SplineFontDB: 3.0
FontName: Mina-Regular
FullName: Mina
FamilyName: Mina
Weight: Regular
Copyright: Copyright 2015 The Mina Project Authors, with Reserved Font Name 'Exo'
UComments: "2015-7-16: Created with FontForge (http://fontforge.org)"
Version: 001.000
ItalicAngle: 0
UnderlinePosition: -24
UnderlineWidth: 24
Ascent: 800
Descent: 200
InvalidEm: 0
LayerCount: 2
Layer: 0 0 "Back" 1
Layer: 1 0 "Fore" 0
PreferredKerning: 4
XUID: [1021 37 -475828938 8093]
FSType: 0
OS2Version: 4
OS2_WeightWidthSlopeOnly: 0
OS2_UseTypoMetrics: 0
CreationTime: 1437065704
ModificationTime: 1487540300
PfmFamily: 17
TTFWeight: 400
TTFWidth: 5
LineGap: 0
VLineGap: 0
OS2TypoAscent: 1075
OS2TypoAOffset: 0
OS2TypoDescent: -515
OS2TypoDOffset: 0
OS2TypoLinegap: 0
OS2WinAscent: 1075
OS2WinAOffset: 0
OS2WinDescent: 515
OS2WinDOffset: 0
HheadAscent: 1075
HheadAOffset: 0
HheadDescent: -515
HheadDOffset: 0
OS2SubXSize: 700
OS2SubYSize: 650
OS2SubXOff: 0
OS2SubYOff: 93
OS2SupXSize: 700
OS2SupYSize: 650
OS2SupXOff: 0
OS2SupYOff: 313
OS2StrikeYSize: 50
OS2StrikeYPos: 313
OS2CapHeight: 712
OS2XHeight: 511
OS2Vendor: 'SUBY'
OS2CodePages: 00000001.00000000
OS2UnicodeRanges: 80018003.80002042.00000000.00000000
Lookup: 5 0 0 "'psts' Post Base Substitutions lookup 34" { "'psts' Post Base Substitutions lookup 34 subtable"  } ['psts' ('beng' <'dflt' > 'bng2' <'dflt' > ) ]
Lookup: 4 0 0 "Ligature Substitution lookup 33" { "Ligature Substitution lookup 33 subtable"  } []
Lookup: 5 0 0 "'psts' Post Base Substitutions lookup 32" { "'psts' Post Base Substitutions lookup 32 subtable"  } ['psts' ('beng' <'dflt' > 'bng2' <'dflt' > ) ]
Lookup: 1 0 0 "Single Substitution lookup 31" { "Single Substitution lookup 31 subtable"  } []
Lookup: 6 0 0 "'psts' Post Base Substitutions lookup 30" { "'psts' Post Base Substitutions lookup 30 subtable"  } ['psts' ('beng' <'dflt' > 'bng2' <'dflt' > ) ]
Lookup: 1 0 0 "Single Substitution lookup 29" { "Single Substitution lookup 29 subtable"  } []

StartChar: bnA
Encoding: 256 2437 0
GlifName: bnA_
Width: 930
VWidth: 0
Flags: HMW
LayerCount: 2
Fore
SplineSet
291 446 m 5
 283 499 l 5
 283 499 417 518 497 518 c 4
 630.126953125 518 683 441.158203125 683 359 c 4
 683 337 678.560546875 313.813476562 671 292 c 4
 667.088867188 280.716796875 654 251 654 251 c 5
 767 209 l 25
 767 573 l 1
 -14 573 l 1
 -14 636.328125 l 1
 946 636.328125 l 1
 946 573 l 1
 840 573 l 25
 840 0 l 1
 767 0 l 1
 767 139 l 25
 618 189 l 5
 618 189 574.788085938 133.729492188 494 97 c 4
 469.966796875 86.0732421875 445 80 418 80 c 4
 361 80 294.000976562 105.052734375 221 182 c 4
 147 260 54 402 54 402 c 5
 91 429 l 5
 271 234 l 6
 323 177 371 153 416 153 c 4
 434 153 452 157 469 165 c 4
 541 198 588.249023438 265.278320312 603 304 c 4
 611 325 614 344 614 361 c 4
 614 423 571 446 480 446 c 4
 416 446 291 446 291 446 c 5
EndSplineSet
Validated: 1
EndChar

StartChar: bnAA
Encoding: 257 2438 1
GlifName: bnA_A_
Width: 1075
VWidth: 0
Flags: W
HStem: 0 21G<766.183 839.183 948 1021.01> 0 21G<766.183 839.183 948 1021.01> 80 73<341.903 486.066> 446 72<290.183 581.408> 573 63.3223<-14.8174 766.183 839.183 939.696 1021.18 1084>
VStem: 613.183 69<281.328 418.415> 766.183 73<0 139 209 573> 948 73<0 573>
AnchorPoint: "anchor0" 868.183 636.984 basechar 0
LayerCount: 2
Fore
SplineSet
948 573 m 1xbf
 839.182617188 573 l 1
 839.182617188 0 l 1
 766.182617188 0 l 1
 766.182617188 139 l 25
 617.182617188 189 l 1
 617.182617188 189 573.970703125 133.729492188 493.182617188 97 c 0
 469.149414062 86.0732421875 444.182617188 80 417.182617188 80 c 0
 360.182617188 80 293.18359375 105.052734375 220.182617188 182 c 0
 146.182617188 260 53.1826171875 402 53.1826171875 402 c 1
 90.1826171875 429 l 1
 270.182617188 234 l 2
 322.182617188 177 370.182617188 153 415.182617188 153 c 0
 433.182617188 153 451.182617188 157 468.182617188 165 c 0
 540.182617188 198 587.431640625 265.278320312 602.182617188 304 c 0
 610.182617188 325 613.182617188 344 613.182617188 361 c 0
 613.182617188 423 570.182617188 446 479.182617188 446 c 0
 415.182617188 446 290.182617188 446 290.182617188 446 c 1
 282.182617188 499 l 1
 282.182617188 499 416.182617188 518 496.182617188 518 c 0
 629.309570312 518 682.182617188 441.158203125 682.182617188 359 c 0
 682.182617188 337 677.743164062 313.813476562 670.182617188 292 c 0
 666.271484375 280.716796875 653.182617188 251 653.182617188 251 c 1
 766.182617188 209 l 25
 766.182617188 573 l 1
 -14.8173828125 573 l 1
 -14.8173828125 636.322265625 l 1
 878.883789062 636.322265625 l 1
 951.182617188 628 l 1
 947.182617188 702 l 1
 987.182617188 702 l 1
 1010 636 l 9
 1084 636 l 17
 1084.18261719 573 l 1
 1021.18261719 573 l 25
 1021 0 l 1
 948 0 l 1
 948 573 l 1xbf
EndSplineSet
Validated: 524289
EndChar

StartChar: bnTA
Encoding: 258 2468 2
GlifName: bnT_A_
Width: 729
VWidth: 0
Flags: W
HStem: 37 75<308.066 460.783> 444 72<279 582.05> 572.998 63.3301<-34 769>
VStem: 614 70<273.095 415.957>
AnchorPoint: "anchor 1" 358 43 basechar 0
AnchorPoint: "anchor0" 547 636.7 basechar 0
LayerCount: 2
Fore
SplineSet
769 636.328125 m 9
 769 572.998046875 l 17
 -34 572.998046875 l 1
 -34 636.328125 l 1
 769 636.328125 l 9
469 57 m 4
 445 46 412 37 385 37 c 4
 315 37 261 66 188 141 c 4
 111.061523438 220.046875 31 361 31 361 c 5
 68 388 l 5
 238 193 l 6
 288.3203125 135.279296875 338 112 383 112 c 4
 401 112 426.919921875 117.171875 444 125 c 4
 516 158 582 240 599 286 c 4
 606.146484375 305.336914062 614 325 614 360 c 4
 614 419 574 444 483 444 c 4
 432 444 279 444 279 444 c 5
 271 496 l 5
 271 496 429 516 500 516 c 4
 637 516 684 446 684 358 c 4
 684 336 676.1953125 295.927734375 668 274 c 4
 631 175 556.874023438 97.275390625 469 57 c 4
EndSplineSet
Validated: 1
EndChar

StartChar: bnI
Encoding: 259 2439 3
GlifName: bnI_
Width: 585
VWidth: 0
Flags: W
HStem: 443 74<104 401.311> 573 63.3281<-14 406 476 596> 708 64<119.066 394.863>
VStem: 406 70<636.328 696.458> 422 73.0029<306.41 421.728>
LayerCount: 2
Fore
SplineSet
314 443 m 4xe8
 251 443 104 443 104 443 c 5
 96 496 l 5
 96 496 220 517 315 517 c 4
 488.268882196 517 495.002929688 425.794712106 495.002929688 317.440429688 c 4
 495.002929688 198.766601562 198.900390625 151 198.900390625 151 c 5
 291.900390625 98 492 -18 492 -18 c 13
 467 -65 l 5
 467 -65 222.865234375 35.6982421875 73.900390625 130 c 13
 81.900390625 208 l 5
 81.900390625 208 422 250.531961927 422 342 c 4
 422 439 384 443 314 443 c 4xe8
406 636.328125 m 17xf0
 406 690.328125 390 708 342 708 c 0
 256.614290766 708 81 708 81 708 c 9
 77 758 l 1
 77 758 288.281667623 771.939269807 348 772 c 0
 348.231566599 772.000117796 l 0
 442.055796601 772.000117796 476 714.264648438 476 636.328125 c 9
 596 636.328125 l 1
 596 573 l 25
 -14 573 l 1
 -14 636.328125 l 1
 406 636.328125 l 17xf0
EndSplineSet
Validated: 1
EndChar

StartChar: e
Encoding: 260 101 4
GlifName: e
Width: 525
Flags: W
HStem: -5 73.9763<154.032 450.932> 225 73<124 403.251> 461 74<160.856 389.792>
VStem: 50 74<101.024 225 298 420.766> 411 74<306.569 441.221>
LayerCount: 2
Fore
SplineSet
50 268 m 0
 50 505 118 535 282 535 c 0
 407 535 485 523 485 347 c 0
 485 270 444 225 348 225 c 2
 124 225 l 1
 124 100 147 69 225 69 c 0
 239.153846154 69 253.094674556 68.9763313609 266.826126536 68.9763313609 c 0
 342.349112426 68.9763313609 411.538461538 69.6923076923 475 79 c 1
 475 23 l 1
 394 0 308 -5 225 -5 c 0
 90 -5 50 60 50 268 c 0
124 298 m 1
 348 298 l 2
 392 298 411 314 411 347 c 0
 411 452 391 461 283 461 c 0
 170 461 124 460 124 298 c 1
EndSplineSet
Validated: 1
EndChar

StartChar: bnHA
Encoding: 261 2489 5
GlifName: bnH_A_
Width: 565
VWidth: 0
Flags: W
HStem: 443 74<104 401.311> 573 63.3281<-14 576>
VStem: 422 73.0029<306.41 421.728>
AnchorPoint: "anchor 1" 334 -1 basechar 0
AnchorPoint: "anchor0" 412 637 basechar 0
LayerCount: 2
Fore
SplineSet
314 443 m 4
 251 443 104 443 104 443 c 5
 96 496 l 5
 96 496 220 517 315 517 c 4
 488.268882196 517 495.002929688 425.794712106 495.002929688 317.440429688 c 4
 495.002929688 198.766601562 198.900390625 151 198.900390625 151 c 5
 291.900390625 98 492 -18 492 -18 c 13
 467 -65 l 5
 467 -65 222.865234375 35.6982421875 73.900390625 130 c 13
 81.900390625 208 l 5
 81.900390625 208 422 250.531961927 422 342 c 4
 422 439 384 443 314 443 c 4
576 636.328125 m 21
 576 573 l 29
 -14 573 l 5
 -14 636.328125 l 5
 576 636.328125 l 21
EndSplineSet
Validated: 1
EndChar

StartChar: bnU
Encoding: 262 2441 6
GlifName: bnU_
Width: 750
VWidth: 0
Flags: W
HStem: -0 76<354.3 479.725> 356 72<399.509 607.503> 573 63<-14 325 398 527 597 759> 705 67<236.959 515.718>
VStem: 325 73<412 573> 527 70<636 696.221> 617 72<223.47 344.464>
LayerCount: 2
Fore
SplineSet
527 636 m 17
 527 690 511 705 463 705 c 0
 358 705 137 705 137 705 c 9
 133 758 l 1
 133 758 410 772 469 772 c 0
 563 772 597 714 597 636 c 9
 759 636 l 1
 759 573 l 25
 398 573 l 25
 398 412 l 1
 398 412 482 428 550 428 c 0
 643 428 689 371 689 311 c 0
 689 234 657 146 537 46 c 0
 506 20 462 -0 412 -0 c 0
 369 -0 309 25 245 97 c 0
 122 236 74 398 74 398 c 1
 121 416 l 1
 121 416 223 242 285 167 c 0
 323 121 361 76 415 76 c 0
 447 76 480 95 502 115 c 0
 576 180 617 239 617 300 c 0
 617 336 598 356 544 356 c 0
 490 356 325 340 325 340 c 9
 325 573 l 25
 -14 573 l 1
 -14 636 l 1
 527 636 l 17
EndSplineSet
Validated: 1
EndChar

StartChar: bnDDA
Encoding: 263 2465 7
GlifName: bnD_D_A_
Width: 735
VWidth: 0
Flags: W
HStem: -0.356445 76.3564<343.302 467.046> 356 72<388.612 596.708> 572.98 63.3516<-14 314.104 387.104 746>
VStem: 314.104 73<412 572.98> 606.547 71.4551<223.462 344.27>
AnchorPoint: "anchor 1" 453.1 9 basechar 0
AnchorPoint: "anchor0" 569 636.7 basechar 0
LayerCount: 2
Fore
SplineSet
746 636.33203125 m 17
 746 572.98046875 l 25
 387.103515625 572.98046875 l 25
 387.103515625 412 l 1
 387.103515625 412 471.103515625 428 539.103515625 428 c 0
 632.1015625 428 678.001953125 370.59765625 678.001953125 310.791992188 c 0
 678.001953125 233.950195312 645.962890625 146.241210938 526 46 c 0
 494.9921875 20.08984375 451.073242188 -0.3564453125 401.052734375 -0.3564453125 c 0
 357.690429688 -0.3564453125 297.7265625 25.1005859375 234.103515625 97 c 0
 111.103515625 236 63.103515625 398 63.103515625 398 c 1
 110.103515625 416 l 1
 110.103515625 416 212.424804688 242.297851562 274.103515625 167 c 0
 311.885742188 120.875 350.482421875 76 404.103515625 76 c 0
 435.956054688 76 468.715820312 95.3349609375 491.103515625 115 c 0
 565.103515625 180 606.546875 239 606.546875 300 c 0
 606.546875 335.608398438 586.830078125 356 533.103515625 356 c 0
 479.103515625 356 314.103515625 340 314.103515625 340 c 9
 314.103515625 572.98046875 l 25
 -14 572.98046875 l 1
 -14 636.33203125 l 1
 746 636.33203125 l 17
EndSplineSet
Validated: 1
EndChar

StartChar: bnDDxA
Encoding: 264 2524 8
GlifName: bnD_D_xA_
Width: 740
VWidth: 0
Flags: W
HStem: -152 98<301 396> -0.356445 76.3564<333.302 457.046> 356 72<378.612 586.708> 572.98 63.3516<-14 304.104 377.104 749>
VStem: 301 95<-152 -54> 304.104 73<412 572.98> 596.547 71.4551<223.462 344.27>
AnchorPoint: "anchor 1" 585.1 -113 basechar 0
AnchorPoint: "anchor0" 554 636 basechar 0
LayerCount: 2
Fore
SplineSet
749 636.33203125 m 17xf6
 749 572.98046875 l 25
 377.103515625 572.98046875 l 25
 377.103515625 412 l 1
 377.103515625 412 461.103515625 428 529.103515625 428 c 0
 622.1015625 428 668.001953125 370.59765625 668.001953125 310.791992188 c 0
 668.001953125 233.950195312 635.962890625 146.241210938 516 46 c 0
 484.9921875 20.08984375 441.073242188 -0.3564453125 391.052734375 -0.3564453125 c 0
 347.690429688 -0.3564453125 287.7265625 25.1005859375 224.103515625 97 c 0
 101.103515625 236 53.103515625 398 53.103515625 398 c 1
 100.103515625 416 l 1
 100.103515625 416 202.424804688 242.297851562 264.103515625 167 c 0
 301.885742188 120.875 340.482421875 76 394.103515625 76 c 0
 425.956054688 76 458.715820312 95.3349609375 481.103515625 115 c 0
 555.103515625 180 596.546875 239 596.546875 300 c 0
 596.546875 335.608398438 576.830078125 356 523.103515625 356 c 0
 469.103515625 356 304.103515625 340 304.103515625 340 c 9
 304.103515625 572.98046875 l 25
 -14 572.98046875 l 1
 -14 636.33203125 l 1
 749 636.33203125 l 17xf6
301 -137 m 6xfa
 301 -70 l 6
 301 -57 303 -54 316 -54 c 6
 380 -54 l 6
 395 -54 396 -57 396 -70 c 6
 396 -137 l 6
 396 -152 392 -152 380 -152 c 6
 316 -152 l 6
 304 -152 301 -149 301 -137 c 6xfa
EndSplineSet
Validated: 524289
EndChar

StartChar: bnUU
Encoding: 265 2442 9
GlifName: bnU_U_
Width: 750
VWidth: 0
Flags: W
HStem: -0 76<376.354 503.725> 356 72<423.509 631.503> 573 63<-14 349 422 551 621 759> 705 67<260.959 539.718>
VStem: 349 73<412 573> 551 70<636 696.221> 641 72<223.47 344.464>
LayerCount: 2
Fore
SplineSet
256 86 m 0
 129 190 49 315 49 315 c 1
 86 348 l 1
 232 185 l 1
 199 216 143 417 143 417 c 1
 192 435 l 1
 192 435 253 241 309 167 c 0
 345 119 385 76 439 76 c 0
 471 76 504 95 526 115 c 0
 600 180 641 239 641 300 c 0
 641 336 622 356 568 356 c 0
 514 356 349 340 349 340 c 9
 349 573 l 25
 -14 573 l 1
 -14 636 l 1
 551 636 l 17
 551 690 535 705 487 705 c 0
 382 705 161 705 161 705 c 9
 157 758 l 1
 157 758 434 772 493 772 c 0
 587 772 621 714 621 636 c 9
 759 636 l 1
 759 573 l 25
 422 573 l 25
 422 412 l 1
 422 412 506 428 574 428 c 0
 667 428 713 371 713 311 c 0
 713 234 681 146 561 46 c 0
 530 20 486 -0 436 -0 c 0
 377 -0 316 37 256 86 c 0
EndSplineSet
Validated: 5
EndChar

StartChar: bnKA
Encoding: 266 2453 10
GlifName: bnK_A_
Width: 860
VWidth: 0
Flags: W
HStem: 0 21G<420.462 520.419> 0 21G<420.462 520.419> 572.998 63.3301<-9.58105 447.419 520.419 876.419>
VStem: 447.419 73<89 454 532 572.998> 733.564 73.5596<293.139 386.308>
AnchorPoint: "anchor 1" 447.419 0 basechar 0
AnchorPoint: "anchor0" 700.419 636.3 basechar 0
LayerCount: 2
Fore
SplineSet
520.418945312 457 m 1xb8
 520.418945312 0 l 1
 447.418945312 0 l 1
 75.4189453125 276 l 1
 75.4189453125 362 l 1
 447.418945312 532 l 25
 447.418945312 572.998046875 l 1
 -9.5810546875 572.998046875 l 1
 -9.5810546875 636.328125 l 1
 876.418945312 636.328125 l 1
 876.418945312 572.998046875 l 1
 520.418945312 572.998046875 l 25
 520.418945312 532 l 1
 707.418945312 468 l 2
 755.573242188 452.19921875 807.124023438 411.88671875 807.124023438 348.375976562 c 0
 807.124023438 327.4765625 801.908203125 303.556640625 788.418945312 277 c 0
 756.418945312 214 704.418945312 164 704.418945312 164 c 1
 656.418945312 197 l 1
 656.418945312 197 720.34765625 306.782226562 720.418945312 307 c 2
 728.686523438 321.208984375 733.564453125 335.150390625 733.564453125 346.802734375 c 0
 733.564453125 377.979492188 703.734375 398.168945312 656.418945312 412 c 2
 520.418945312 457 l 1xb8
447.418945312 89 m 25
 447.418945312 454 l 25
 146.418945312 311 l 25
 447.418945312 89 l 25
EndSplineSet
Validated: 1
EndChar

StartChar: bnvR
Encoding: 267 2443 11
GlifName: bnvR_
Width: 790
VWidth: 0
Flags: W
HStem: 0 21G<411.667 517> 0 21G<411.667 517> 451 61<125.917 237.99> 573 63.3281<711 802>
VStem: 52 64<520.16 584.262> 444 73<82 197 270 418 491 635> 638 73<39 160 227 573>
LayerCount: 2
Fore
SplineSet
638 160 m 25xbe
 517 197 l 25
 517 0 l 1
 444 0 l 1
 56 240 l 1
 56 321 l 1
 336 443 l 25
 307 505 l 21
 307 505 230 451 161 451 c 4
 130 451 101.977539062 458.9765625 81 479 c 4
 59 500 52 528 52 553 c 4
 52 586 65.2822265625 603.021484375 82 614 c 4
 116 636.328125 168 639 168 639 c 5
 177 599 l 21
 177 599 161.609375 594.8515625 134 583 c 4
 120.84375 577.352539062 116 566 116 554 c 4
 116 545 120 532 129 523 c 4
 139 513 151 512 163 512 c 4
 223.017578125 512 329 584.749023438 329 584.749023438 c 5
 333.108398438 587.66015625 335.567382812 587.795898438 336.884765625 585 c 6
 392 468 l 9
 444 491 l 25
 444 636 l 1
 517 635 l 25
 517 270 l 25
 638 227 l 25
 638 636 l 1
 633 702 l 1
 674 702 l 1
 697 636.328125 l 1
 802 636.328125 l 17
 802 573 l 1
 711 573 l 25
 711 39 l 1
 638 39 l 1
 638 160 l 25xbe
444 82 m 25
 444 418 l 25
 127 275 l 25
 444 82 l 25
EndSplineSet
Validated: 524289
EndChar

StartChar: bnJHA
Encoding: 268 2461 12
GlifName: bnJ_H_A_
Width: 780
VWidth: 0
Flags: W
HStem: 0 21G<420.096 520> 0 21G<420.096 520> 573.014 63.3066<-14 447 714 793.889>
VStem: 447 73<82 198 271 459 532 573.014> 641 73<39 160 226.727 573.014>
AnchorPoint: "anchor 1" 447 0 basechar 0
AnchorPoint: "anchor0" 651.4 636.32 basechar 0
LayerCount: 2
Fore
SplineSet
520 271 m 25xb8
 641 226.7265625 l 25
 641 636.3203125 l 1
 636 702 l 1
 680 702 l 1
 703 636.3203125 l 1
 793.888671875 636.3203125 l 17
 793.888671875 573.013671875 l 1
 714 573.013671875 l 25
 714 39 l 1
 641 39 l 1
 641 160 l 25
 520 198 l 25
 520 0 l 1
 447 0 l 1
 69 281 l 1
 69 362 l 1
 447 532 l 25
 447 573.013671875 l 9
 -14 573.013671875 l 17
 -14 636.3203125 l 1
 520 636.3203125 l 9
 520 271 l 25xb8
447 82 m 25
 447 459 l 25
 140 316 l 25
 447 82 l 25
EndSplineSet
Validated: 524289
EndChar

StartChar: bnDHA
Encoding: 269 2471 13
GlifName: bnD_H_A_
Width: 575
VWidth: 0
Flags: W
HStem: 0 21G<420.096 520> 0 21G<420.096 520> 572.998 63.3301<520 587> 605 56<157.564 277.985>
VStem: 81.293 62.707<509.767 593.961> 447 73<93.7891 454 530 572.998>
AnchorPoint: "anchor 1" 447 0 basechar 0
AnchorPoint: "anchor0" 447 636 basechar 0
LayerCount: 2
Fore
SplineSet
447 93.7890625 m 1x0c
 447 454 l 1
 144 314 l 25
 447 93.7890625 l 1x0c
279 455 m 5
 447 530 l 1
 447 636 l 1
 443 702 l 1
 487 702 l 1
 510 636.328125 l 9
 587 636.328125 l 17
 587 572.998046875 l 1
 520 572.998046875 l 25x2c
 520 0 l 17
 447 0 l 1
 69 281 l 1
 69 360 l 1
 205 421.513671875 l 5
 205 421.513671875 81.29296875 463.217773438 81.29296875 540.15625 c 4
 81.29296875 587.002929688 119 661 170 661 c 4
 225 661 286 637 286 637 c 5
 276 595 l 21
 276 595 223.84765625 605 193 605 c 4x9c
 164 605 144 572.21875 144 542 c 4
 144 497.723632812 279 455 279 455 c 5
EndSplineSet
Validated: 524289
EndChar

StartChar: bnBA
Encoding: 270 2476 14
GlifName: bnB_A_
Width: 585
VWidth: 0
Flags: W
HStem: 0 21G<419.308 520> 0 21G<419.308 520> 572.998 63.3301<-14 447 520 595>
VStem: 447 73<93.7891 454 532 572.998>
AnchorPoint: "anchor 1" 447.1 2.98023e-08 basechar 0
AnchorPoint: "anchor0" 413 636.5 basechar 0
LayerCount: 2
Fore
SplineSet
520 572.998046875 m 17xb0
 520 0 l 1
 447 0 l 1
 69 273 l 1
 69 362 l 1
 447 532 l 25
 447 572.998046875 l 9
 -14 572.998046875 l 17
 -14 636.328125 l 1
 595 636.328125 l 1
 595 572.998046875 l 9
 520 572.998046875 l 17xb0
447 93.7890625 m 1
 447 454 l 1
 144 314 l 25
 447 93.7890625 l 1
EndSplineSet
Validated: 524289
EndChar

StartChar: bnRA
Encoding: 271 2480 15
GlifName: bnR_A_
Width: 585
VWidth: 0
Flags: W
HStem: -8.50195 98<128 223> 0 21G<419.308 520.035> 0 21G<419.308 520.035> 572.998 63.3301<-14 447 521 595>
VStem: 128 95<-8.50195 89.498> 447 73<93.7891 454 532 572.998>
AnchorPoint: "anchor 1" 447 -0.2 basechar 0
AnchorPoint: "anchor0" 416 636.3 basechar 0
LayerCount: 2
Fore
SplineSet
128 6.498046875 m 2x9c
 128 73.498046875 l 2
 128 86.498046875 130 89.498046875 143 89.498046875 c 2
 207 89.498046875 l 2
 222 89.498046875 223 86.498046875 223 73.498046875 c 2
 223 6.498046875 l 2
 223 -8.501953125 219 -8.501953125 207 -8.501953125 c 2
 143 -8.501953125 l 2
 131 -8.501953125 128 -5.501953125 128 6.498046875 c 2x9c
521 572.998046875 m 17
 520 0 l 1
 447 0 l 1x5c
 69 273 l 1
 69 362 l 1
 447 532 l 25
 447 572.998046875 l 9
 -14 572.998046875 l 17
 -14 636.328125 l 1
 595 636.328125 l 1
 595 572.998046875 l 9
 521 572.998046875 l 17
447 93.7890625 m 1
 447 454 l 1
 144 314 l 25
 447 93.7890625 l 1
EndSplineSet
Validated: 8912897
EndChar

StartChar: bnE
Encoding: 272 2447 16
GlifName: bnE_
Width: 675
VWidth: 0
Flags: W
HStem: 0 72<230.997 411.832> 556 74<356.802 495.177>
VStem: 534 73<0 84 160 515.337>
LayerCount: 2
Fore
SplineSet
181 420 m 13
 151 458 l 5
 223 532 321.501953125 630 421.501953125 630 c 4
 509 630 607 587 607 463 c 6
 607 0 l 5
 534 0 l 5
 534 84 l 21
 534 84 411.524414062 0 317 0 c 4
 274 0 186 0 125 89 c 4
 99.2841796875 126.51953125 75 187 55 254 c 5
 97 276 l 5
 179 145 l 6
 223.928710938 73.22265625 292 72 320 72 c 4
 410.877929688 72 534 160 534 160 c 5
 534 457 l 5
 534 505 494.501953125 556 428.501953125 556 c 4
 351.276367188 556 181 420 181 420 c 13
EndSplineSet
Validated: 1
EndChar

StartChar: bnAI
Encoding: 273 2448 17
GlifName: bnA_I_
Width: 800
VWidth: 0
Flags: W
HStem: 0 72<220.712 400.832> 279 70<596 661.995> 556 74<345.802 484.177>
VStem: 523 73<457 515.337> 673 73<361.595 645.442>
LayerCount: 2
Fore
SplineSet
596 279 m 17
 674 279 746 307 746 407 c 0
 746 465.061523438 732 743 732 743 c 1
 673 739 l 17
 673 739 673 519.432617188 673 413 c 0
 673 365 650 349 596 349 c 9
 596 463 l 2
 596 587 498 630 410.501953125 630 c 0
 310.501953125 630 212 532 140 458 c 1
 170 420 l 17
 170 420 340.276367188 556 417.501953125 556 c 0
 483.501953125 556 523 505 523 457 c 1
 523 160 l 1
 523 160 399.877929688 72 309 72 c 0
 281 72 212.932872045 73.2169970988 168 145 c 2
 86 276 l 1
 44 254 l 1
 64 187 91.2841796875 126.51953125 117 89 c 0
 178 0 263 0 306 0 c 0
 400.524414062 0 523 84 523 84 c 9
 523 0 l 5
 596 0 l 1
 596 279 l 17
EndSplineSet
Validated: 9
EndChar

StartChar: bnNYA
Encoding: 274 2462 18
GlifName: bnN_Y_A_
Width: 925
VWidth: 0
Flags: W
HStem: 0 72<250.009 430.832> 103 63<627.049 784.402> 278 60<682 783.639> 454 65<627.057 784.641> 553 77<377.103 512.833>
VStem: 553 74<0 84 174 444> 788 71<170.276 272.459 343.875 450.188>
AnchorPoint: "anchor0" 699 636 basechar 0
LayerCount: 2
Fore
SplineSet
627 500 m 5
 627 500 705.082704265 519.011480761 742 519 c 4
 805.999996905 518.980096899 860 518 860 405 c 6
 860 397 l 6
 860 364 856 317 815 311 c 5
 856 304 859 257 859 224 c 6
 859 215 l 6
 859 103 799.017131728 103 742 103 c 4
 687 103 627 121 627 121 c 13
 627 0 l 5
 553 0 l 5
 553 84 l 21
 553 84 430.524414062 0 336 0 c 4
 293 0 205 0 144 89 c 4
 118.284179688 126.51953125 94 187 74 254 c 5
 114 279 l 5
 198 145 l 6
 242.982421875 73.2421875 311 72 339 72 c 4
 429.877929688 72 553 160 553 160 c 5
 553 457 l 5
 553 505 513.501953125 553 447.501953125 553 c 4
 370.276367188 553 200 420 200 420 c 13
 170 458 l 5
 242 541 347 630 440.501953125 630 c 4
 600.520178353 630 627 500 627 500 c 5
627 174 m 21
 627 174 701.904807624 166 742 166 c 4
 768 166 788 176 788 208 c 6
 788 229 l 6
 788 267 772 278 735 278 c 6
 682 278 l 21
 682 338 l 13
 735 338 l 6
 772 338 788 349 788 387 c 6
 788 412 l 6
 788 445 769 454 744 454 c 4
 703.355385059 454 627 444 627 444 c 13
 627 174 l 21
EndSplineSet
Validated: 33
EndChar

StartChar: bnTTA
Encoding: 275 2463 19
GlifName: bnT_T_A_
Width: 600
VWidth: 0
Flags: W
HStem: 0 74<159.492 281.468> 337 66<292 440.325> 573.008 63.3184<-23 73 146 425 495 610> 732 67<140.8 406.767>
VStem: 73 73<86.6083 573.008> 425 70<636.326 712.036> 448 71<226.579 328.705>
AnchorPoint: "anchor0" 425 636.2 basechar 0
AnchorPoint: "anchor 1" 193 11 basechar 0
LayerCount: 2
Fore
SplineSet
409 403 m 0xfa
 481.241210938 403 519 355.7421875 519 296 c 0xfa
 519 267 506.693359375 236.716796875 497 214 c 0
 439.016601562 78.10546875 276 0 201 0 c 0
 136 0 73 37 73 159 c 2
 73 573.0078125 l 1
 -23 573.0078125 l 1
 -23 636.326171875 l 1
 425 636.326171875 l 17
 425 690.326171875 409 732 361 732 c 0
 251 732 -14 732 -14 732 c 9
 -18 785 l 1
 -18 785 299 799 367 799 c 0
 461 799 495 714.326171875 495 636.326171875 c 9xfc
 610 636.326171875 l 1
 610 573.0078125 l 1
 146 573.0078125 l 17
 146 573.0078125 146 210 146 169 c 1
 146 109 156 74 205 74 c 0
 260 74 363 128 418 213 c 0
 440 247 448 272 448 291 c 0
 448 327 419.411132812 337 390 337 c 0
 353 337 292 337 292 337 c 1
 286 397 l 1
 286 397 375 403 409 403 c 0xfa
EndSplineSet
Validated: 1
EndChar

StartChar: bnDDHA
Encoding: 276 2466 20
GlifName: bnD_D_H_A_
Width: 620
VWidth: 0
Flags: W
HStem: 0 74<240.825 361.842> 337 66<373.333 521.578> 573.008 63.3184<67.333 154.333 227.333 700.333>
VStem: 154.333 73<86.6083 573.008> 529.333 71<226.582 328.705>
AnchorPoint: "anchor 1" 271.333 11 basechar 0
AnchorPoint: "anchor0" 518.333 637 basechar 0
LayerCount: 2
Fore
SplineSet
700.333007812 636.326171875 m 17
 700.333007812 573.0078125 l 1
 227.333007812 573.0078125 l 17
 227.333007812 573.0078125 227.333007812 210 227.333007812 169 c 1
 227.333007812 109 237.333007812 74 286.333007812 74 c 0
 341.333007812 74 444.333007812 128 499.333007812 213 c 0
 521.333007812 247 529.333007812 272 529.333007812 291 c 0
 529.333007812 327 500.744140625 337 471.333007812 337 c 0
 434.333007812 337 373.333007812 337 373.333007812 337 c 1
 367.333007812 397 l 1
 367.333007812 397 456.333007812 403 490.333007812 403 c 0
 562.333007812 403 600.333007812 355.7421875 600.333007812 296 c 0
 600.333007812 267 587.982421875 236.735351562 578.333007812 214 c 0
 519.333007812 75 353.333007812 0 282.333007812 0 c 0
 217.333007812 0 154.333007812 37 154.333007812 159 c 2
 154.333007812 573.0078125 l 1
 67.3330078125 573.0078125 l 1
 67.3330078125 636.326171875 l 1
 700.333007812 636.326171875 l 17
EndSplineSet
Validated: 524289
EndChar

StartChar: bnDDHxA
Encoding: 277 2525 21
GlifName: bnD_D_H_xA_
Width: 600
VWidth: 0
Flags: W
HStem: -154 98<141 236> 0 74<160.492 282.468> 337 66<293 441.325>
VStem: 74 73<86.6083 169> 141 95<-154 -56> 449 71<226.579 328.705>
AnchorPoint: "anchor 1" 435 -90 basechar 0
AnchorPoint: "anchor0" 444 636.228 basechar 0
LayerCount: 2
Fore
SplineSet
141 -139 m 2xec
 141 -72 l 2
 141 -59 143 -56 156 -56 c 2
 220 -56 l 2
 235 -56 236 -59 236 -72 c 2
 236 -139 l 2
 236 -154 232 -154 220 -154 c 2
 156 -154 l 2
 144 -154 141 -151 141 -139 c 2xec
74 573.0078125 m 1xf4
 74 159 l 2
 74 37 137 0 202 0 c 0
 277 0 440.016601562 78.10546875 498 214 c 0
 507.693359375 236.716796875 520 267 520 296 c 0
 520 355.7421875 482.241210938 403 410 403 c 0
 376 403 287 397 287 397 c 1
 293 337 l 1
 293 337 354 337 391 337 c 0
 420.411132812 337 449 327 449 291 c 0
 449 272 441 247 419 213 c 0
 364 128 261 74 206 74 c 0
 157 74 147 109 147 169 c 1
 147 210 147 573.0078125 147 573.0078125 c 9
 612 573.0078125 l 1
 612 636.326171875 l 9
 -13 636.326171875 l 1
 -13 573.0078125 l 1
 74 573.0078125 l 1xf4
EndSplineSet
Validated: 8912905
EndChar

StartChar: bnYA
Encoding: 278 2479 22
GlifName: bnY_A_
Width: 665
VWidth: 0
Flags: W
HStem: 0 21G<492.032 603.002> 0 21G<492.032 603.002> 573 63.3281<32 135.002 170.002 530.002 603.002 673>
VStem: 334.002 81<358.229 414.741> 530.002 73<85 573>
AnchorPoint: "anchor 1" 530 0 basechar 0
AnchorPoint: "anchor0" 518 636.5 basechar 0
LayerCount: 2
Fore
SplineSet
603.001953125 573 m 29xb8
 603.001953125 0 l 5
 530.001953125 0 l 5
 156.001953125 197 l 5
 156.001953125 272 l 5
 156.001953125 272 334.001953125 346 334.001953125 389 c 4
 334.001953125 421.25 119.001953125 538 119.001953125 538 c 13
 135.001953125 572.998046875 l 13
 32 573 l 5
 32 636.328125 l 5
 673 636.328125 l 5
 673 573 l 13
 603.001953125 573 l 29xb8
530.001953125 573 m 29
 170.001953125 572.998046875 l 5
 170.001953125 572.998046875 270.986328125 529.013671875 341.001953125 487 c 4
 376.000976562 465.998046875 415.001953125 440 415.001953125 395 c 4
 415.001953125 336 378.001953125 300 250.001953125 234 c 5
 530.001953125 85 l 5
 530.001953125 573 l 29
EndSplineSet
Validated: 524289
EndChar

StartChar: bnYxA
Encoding: 279 2527 23
GlifName: bnY_xA_
Width: 625
VWidth: 0
Flags: W
HStem: -36 98<184 279> 0 21G<452.134 563.002> 0 21G<452.134 563.002> 573 63.3281<-8 95.002 130.002 490.002 563.002 633>
VStem: 184 95<-36 62> 294.002 81<358.229 414.741> 490.002 73<85 573>
AnchorPoint: "anchor0" 414 636.228 basechar 0
LayerCount: 2
Fore
SplineSet
184 -21 m 2x9e
 184 46 l 2
 184 59 186 62 199 62 c 2
 263 62 l 2
 278 62 279 59 279 46 c 2
 279 -21 l 2
 279 -36 275 -36 263 -36 c 2
 199 -36 l 2
 187 -36 184 -33 184 -21 c 2x9e
563.001953125 573 m 25
 563.001953125 0 l 1
 490.001953125 0 l 1x5e
 117.001953125 197 l 1
 116.001953125 272 l 1
 116.001953125 272 294.001953125 346 294.001953125 389 c 0
 294.001953125 421.25 79.001953125 538 79.001953125 538 c 9
 95.001953125 572.998046875 l 9
 -8 573 l 1
 -8 636.328125 l 1
 633 636.328125 l 1
 633 573 l 9
 563.001953125 573 l 25
490.001953125 573 m 25
 130.001953125 572.998046875 l 1
 130.001953125 572.998046875 230.986328125 529.013671875 301.001953125 487 c 0
 336.000976562 465.998046875 375.001953125 440 375.001953125 395 c 0
 375.001953125 336 338.001953125 300 210.001953125 234 c 1
 490.001953125 85 l 1
 490.001953125 573 l 25
EndSplineSet
Validated: 8912897
EndChar

StartChar: bnSSA
Encoding: 280 2487 24
GlifName: bnS_S_A_
Width: 625
VWidth: 0
Flags: W
HStem: 0 21G<442.032 553.002> 0 21G<442.032 553.002> 353 76<374.456 480.002> 573 63.3281<-8 85.002 120.002 480.002 553.002 637>
VStem: 480.002 73<85 353 429 573>
AnchorPoint: "anchor 1" 480 0 basechar 0
AnchorPoint: "anchor0" 455 636.3 basechar 0
LayerCount: 2
Fore
SplineSet
553.001953125 573 m 29xb8
 553.001953125 0 l 5
 480.001953125 0 l 5
 106.001953125 197 l 5
 106.001953125 272 l 5
 106.001953125 272 284.001953125 346 284.001953125 389 c 4
 284.001953125 421.25 69.001953125 538 69.001953125 538 c 13
 85.001953125 572.998046875 l 13
 -8 573 l 5
 -8 636.328125 l 5
 637 636.328125 l 5
 637 573 l 13
 553.001953125 573 l 29xb8
291.001953125 487 m 4
 316.928710938 473.6640625 407 429 480.001953125 429 c 5
 480.001953125 573 l 13
 120.001953125 572.998046875 l 5
 120.001953125 572.998046875 220.986328125 523.013671875 291.001953125 487 c 4
363 373.85546875 m 5
 363 373.85546875 364 311 196.001953125 233 c 5
 480.001953125 85 l 5
 480.001953125 353 l 5
 428 353 363 373.85546875 363 373.85546875 c 5
EndSplineSet
Validated: 33
EndChar

StartChar: bnPHA
Encoding: 281 2475 25
GlifName: bnP_H_A_
Width: 845
VWidth: 0
Flags: W
HStem: 0 21G<425.741 536> 0 21G<425.741 536> 421 72<536 702.625> 573 63.3281<-14 74 109 855>
VStem: 273 81<358.229 414.741> 463 73<85 421> 711 76<316.533 411.456>
AnchorPoint: "anchor 1" 463.2 0.2 basechar 0
AnchorPoint: "anchor0" 657 637 basechar 0
LayerCount: 2
Fore
SplineSet
109 573 m 1xbe
 109 573 209.984375 529.013671875 280 487 c 0
 314.999023438 465.998046875 354 440 354 395 c 0
 354 336 319 300 191 234 c 1
 463 85 l 1
 463 493 l 25
 631 493 l 18
 743 493 787 443 787 370 c 0
 787 348 778.401367188 322.803710938 766 298 c 0
 744 254 681 194 681 194 c 1
 630 228 l 1
 630 228 672 290 692 321 c 0
 704.374023438 340.1796875 711 362 711 375 c 0
 711 411 680 421 634 421 c 2
 536 421 l 25
 536 0 l 1
 463 0 l 1
 96 197 l 1
 96 272 l 5
 96 272 273 346 273 389 c 0
 273 421.25 58 538 58 538 c 9
 74 573 l 1
 -14 573 l 1
 -14 636.328125 l 1
 855 636.328125 l 1
 855 573 l 25
 109 573 l 1xbe
EndSplineSet
Validated: 1
EndChar

StartChar: bnGHA
Encoding: 282 2456 26
GlifName: bnG_H_A_
Width: 693
VWidth: 0
Flags: W
HStem: 0 21G<514.869 629.383> 0 21G<514.869 629.383> 364.544 64.2656<217.165 405.351> 572.998 63.3301<83.3828 195.383 260.383 556.383 629.383 704.383>
VStem: 138.383 73<438.279 519.51> 556.383 73<82 572.998>
AnchorPoint: "anchor0" 542.384 636.5 basechar 0
AnchorPoint: "anchor 1" 556.384 0 basechar 0
LayerCount: 2
Fore
SplineSet
260.3828125 572.998046875 m 1x3c
 260.3828125 572.998046875 211.3828125 497 211.3828125 472 c 0
 211.3828125 463 211.3828125 455 219.3828125 446 c 0
 232.37890625 431.704101562 283.979492188 428.809570312 345.379882812 428.809570312 c 0
 378.467773438 428.809570312 440.3828125 429 440.3828125 429 c 1
 461.3828125 342 l 1
 255.3828125 225 l 1
 556.3828125 82 l 25
 556.3828125 572.998046875 l 25
 260.3828125 572.998046875 l 1x3c
629.3828125 572.998046875 m 25
 629.3828125 0 l 17
 556.3828125 0 l 1xbc
 172.3828125 185 l 1
 172.3828125 260 l 1
 370.3828125 365 l 1
 370.3828125 365 343.431640625 364.543945312 320.1640625 364.543945312 c 0
 262.528320312 364.543945312 178.3828125 371 151.3828125 408 c 0
 141.877929688 421.025390625 138.3828125 436 138.3828125 451 c 0
 138.3828125 503 195.3828125 572.998046875 195.3828125 572.998046875 c 1
 83.3828125 572.998046875 l 5
 83.3828125 636.328125 l 5
 704.3828125 636.328125 l 1
 704.3828125 572.998046875 l 9
 629.3828125 572.998046875 l 25
EndSplineSet
Validated: 524289
EndChar

StartChar: bnBHA
Encoding: 283 2477 27
GlifName: bnB_H_A_
Width: 825
VWidth: 0
Flags: W
HStem: 32 79<345.665 504.307> 264 75<346.993 477.718> 357 86<560.761 625.936> 452 64.0977<348.85 442> 573 63.3281<-11 834>
VStem: 269 74<346.138 450.715> 661 83<234.085 319.72>
AnchorPoint: "anchor 1" 406 40 basechar 0
AnchorPoint: "anchor0" 654 637 basechar 0
LayerCount: 2
Fore
SplineSet
432 264 m 4
 327.8515625 264 269 289.602539062 269 383 c 4
 269 429 277 482 296 500 c 4
 310.863765313 514.081461876 332 516.09765625 364.72265625 516.09765625 c 4
 400 516.09765625 448 506 448 506 c 5
 442 452 l 21
 442 452 405.595703125 452 368.498046875 452 c 4
 343.498046875 452 343 402 343 376 c 4
 343 340.8125 377.337890625 339 426 339 c 4
 491.115234375 339 539.598632812 443 593 443 c 4
 654 443 744 323 744 277 c 4
 744 207.56640625 629 109 535 61 c 0
 512.241210938 49.37890625 471 32 421 32 c 0
 355 32 288 65 213 140 c 0
 131 222 61 345 61 345 c 1
 103 376 l 1
 253 210 l 2
 301.584960938 155.416015625 361 111 417 111 c 0
 467 111 492 126 509 135 c 0
 566.40625 165.028320312 661 232.272460938 661 277 c 4
 661 295 619 357 591 357 c 4
 564.631835938 357 522.34765625 264 432 264 c 4
834 573 m 1
 -11 573 l 1
 -11 636.328125 l 1
 834 636.328125 l 1
 834 573 l 1
EndSplineSet
Validated: 524289
EndChar

StartChar: bnKHA
Encoding: 284 2454 28
GlifName: bnK_H_A_
Width: 670
VWidth: 0
Flags: W
HStem: 0 21G<506.893 615> 0 21G<506.893 615> 441.622 63.9746<177.207 266.08> 572.998 63.3262<615 678>
VStem: 100.173 69.1426<509.053 577.595> 542 136<572.998 636.324> 542 73<85 572.998>
AnchorPoint: "anchor 1" 542 0 basechar 0
AnchorPoint: "anchor0" 542 636.328 basechar 0
LayerCount: 2
Fore
SplineSet
470 386 m 1xba
 212 271 l 25
 542 85 l 25xba
 542 636 l 17
 537 702 l 1
 581 702 l 1
 604 636.32421875 l 1
 678 636.32421875 l 17
 678 572.998046875 l 1xbc
 615 572.998046875 l 1
 615 0 l 17
 542 0 l 1
 133 233 l 1
 133 316 l 1
 388 427 l 1
 388 427 373.783025181 459.867899276 365 483 c 0
 362.072888343 490.70921639 360 495 351 495 c 0
 334 495 239.709960938 441.622070312 198.05078125 441.622070312 c 0
 166.828125 441.622070312 153.745117188 450.42578125 133 472 c 0
 115.823242188 489.731445312 100.172851562 524.5234375 100.172851562 549.572265625 c 0
 100.172851562 574.73046875 107.83984375 596.924804688 126 614 c 0
 160.034179688 646.001953125 224 637 224 637 c 1
 236 597 l 17
 236 597 218.108398438 590.326171875 190 577 c 0
 176.583984375 570.639648438 169.315429688 560.45703125 169.315429688 549.35546875 c 0
 169.315429688 541.393554688 173.653852321 533.273060347 178 525 c 0
 183.436523438 514.651367188 186.833007812 505.596679688 208.138671875 505.596679688 c 0
 241 505.596679688 339 573 377 573 c 0
 400.1953125 573 413 559 418 546 c 0
 437.451171875 495.426757812 470 386 470 386 c 1xba
EndSplineSet
Validated: 524321
EndChar

StartChar: bnTHA
Encoding: 285 2469 29
GlifName: bnT_H_A_
Width: 661
VWidth: 0
Flags: W
HStem: 0 21G<487.924 595.989> 0 21G<487.924 595.989> 529 76<95.9893 341.549> 572.998 63.3301<595.989 669.989>
VStem: 355.989 72<414.361 514.738> 522.989 73<82 572.998> 522.989 46<683.489 711>
AnchorPoint: "anchor 1" 522.667 6 basechar 0
AnchorPoint: "anchor0" 522.967 636.3 basechar 0
LayerCount: 2
Fore
SplineSet
244.989257812 529 m 4xaa
 186.989257812 529 95.9892578125 529 95.9892578125 529 c 5
 87.9892578125 586 l 1
 87.9892578125 586 171.989257812 605 245.989257812 605 c 0
 405.094726562 605 427.989257812 552 427.989257812 441 c 0
 427.989257812 333.357421875 198.989257812 269 198.989257812 269 c 9
 522.989257812 82 l 25xac
 522.989257812 711 l 25
 568.989257812 711 l 1xaa
 587.989257812 636.328125 l 9
 669.989257812 636.328125 l 17
 669.989257812 572.998046875 l 1
 595.989257812 572.998046875 l 25
 595.989257812 0 l 17x9c
 522.989257812 0 l 1
 117.989257812 231 l 1
 117.989257812 318 l 1
 117.989257812 318 355.989257812 375.091796875 355.989257812 454 c 0
 355.989257812 514 345.989257812 529 244.989257812 529 c 4xaa
EndSplineSet
Validated: 524289
EndChar

StartChar: bnCA
Encoding: 286 2458 30
GlifName: bnC_A_
Width: 706
VWidth: 0
Flags: W
HStem: 0 71<256.895 374.521> 572.998 63.3301<72.6777 166.678 239.678 717.678>
VStem: 166.678 73<86.6083 405 463 572.998> 559.678 71<242.43 344.288>
AnchorPoint: "anchor 1" 292.679 10 basechar 0
AnchorPoint: "anchor0" 476.679 636.4 basechar 0
LayerCount: 2
Fore
SplineSet
239.677734375 405 m 9
 239.677734375 166 l 1
 239.677734375 106 255.677734375 71 304.677734375 71 c 0
 359.677734375 71 474.677734375 144 529.677734375 229 c 0
 551.677734375 263 559.677734375 288 559.677734375 307 c 0
 559.677734375 343 535.897460938 348 501.677734375 355 c 0
 403.936523438 374.993164062 239.677734375 405 239.677734375 405 c 9
239.677734375 463 m 25
 239.677734375 463 311.387695312 455.448242188 348.677734375 451 c 0
 467.654296875 436.806640625 491.677734375 434 520.677734375 429 c 0
 597.634765625 415.733398438 630.677734375 371.7421875 630.677734375 312 c 0
 630.677734375 283 617.209960938 247.840820312 605.677734375 226 c 0
 539.677734375 101 396.333007812 0 302.677734375 0 c 0
 237.677734375 0 166.677734375 37 166.677734375 159 c 2
 166.677734375 573 l 1
 72.677734375 573 l 5
 72.677734375 636.328125 l 5
 717.677734375 636.328125 l 1
 717.677734375 572.998046875 l 1
 239.677734375 572.998046875 l 17
 239.677734375 463 l 25
EndSplineSet
Validated: 524289
EndChar

StartChar: bnCHA
Encoding: 287 2459 31
GlifName: bnC_H_A_
Width: 660
VWidth: 0
Flags: W
HStem: 198 68<154.528 259.766> 573.014 63.3145<-14 73 146 672>
VStem: 73 73<276.489 460 516 573.014> 363 71<342.692 404.429> 521 70<257.791 380.704>
AnchorPoint: "anchor 1" 399 11 basechar 0
AnchorPoint: "anchor0" 493 636.5 basechar 0
LayerCount: 2
Fore
SplineSet
343 344 m 0
 355.62890625 354.463867188 363 369 363 385 c 0
 363 424.76171875 323.272460938 428.969726562 283 436 c 0
 174.123046875 455.006835938 146 460 146 460 c 1
 146 320 l 1
 147 276 176 266 195 266 c 0
 239 266 308 315 343 344 c 0
429.66796875 405 m 1
 429.66796875 405 434 390.366210938 434 381 c 0
 434 347 415.037109375 321.588867188 375 289 c 0
 330.641601562 252.89453125 258.76953125 198 187 198 c 0
 148 198 73 228 73 312 c 2
 73 573.013671875 l 1
 -14 573.013671875 l 1
 -14 636.328125 l 1
 672 636.328125 l 1
 672 573.013671875 l 1
 146 573.013671875 l 1
 146 516 l 17
 146 516 233.976963014 504.461970931 292 496 c 0
 367.008898416 485.060842884 402.327148438 481.064453125 475 464 c 0
 544.9375 447.578125 591 420 591 345 c 0
 591 317 584.454101562 277.564453125 579 247 c 0
 564.754882812 167.17578125 329 102 329 102 c 1
 575 3 l 9
 559 -44 l 1
 559 -44 324 22 228 74 c 1
 228 146 l 1
 228 146 498.494140625 210.89453125 515 281 c 0
 520.447265625 304.13671875 521 315 521 340 c 0
 521 367 514.5703125 377.971679688 476 392 c 0
 448.004882812 402.181640625 429.66796875 405 429.66796875 405 c 1
EndSplineSet
Validated: 1
EndChar

StartChar: bnNGA
Encoding: 288 2457 32
GlifName: bnN_G_A_
Width: 690
Flags: W
HStem: 16.167 73.3428<303.312 428.984> 290 70<370.082 564.836> 431 60<370 509.061> 571 66<375.986 510.787>
VStem: 305 65<349 431 500 565.679> 513 62<494.945 566.999> 569.148 71.3691<204.676 283.626>
AnchorPoint: "anchor 1" 341 28 basechar 0
AnchorPoint: "anchor0" 466 636.656 basechar 0
LayerCount: 2
Fore
SplineSet
305 290 m 9xfa
 305 438 l 17
 305 438 231.27576337 459.263645989 177 487 c 0
 151.892295976 499.830702398 141 506 141 506 c 9
 164 552 l 1
 305 500 l 1
 305 537 306.651238865 574.172844418 331 602 c 0
 352 626 373 637 433 637 c 0
 519 637 575 634 575 532 c 0xfc
 575 467 560 431 483 431 c 2
 370 431 l 1
 370 349 l 1
 370 349 482.938611967 360 525 360 c 0
 596 360 640.517578125 319.931640625 640.517578125 266.57421875 c 0
 640.517578125 182.028320312 559 104 470 50 c 0
 436.37890625 29.6005859375 389.525390625 16.1669921875 358.516601562 16.1669921875 c 0
 314.512695312 16.1669921875 261.881876257 36.4223472149 200 106 c 0
 106.483755461 211.146145946 30 401 30 401 c 1
 77 419 l 1
 77 419 181 239 249 164 c 0
 290.0546875 118.234375 321.59765625 89.509765625 358.565429688 89.509765625 c 0
 376.525390625 89.509765625 403.638671875 96.216796875 428 110 c 0
 504 153 569.1484375 207 569.1484375 257.221679688 c 0
 569.1484375 274.35546875 555 290 504 290 c 0
 475 290 375 290 305 290 c 9xfa
370 491 m 1
 466 491 l 2
 498 491 513 500 513 525 c 0
 513 567 511 571 440 571 c 0
 378.674804688 571 370 570 370 491 c 1
EndSplineSet
Validated: 1
EndChar

StartChar: bnNA
Encoding: 289 2472 33
GlifName: bnN_A_
Width: 670
VWidth: 0
Flags: W
HStem: 0 21G<538 611> 0 21G<538 611> 359.226 73.1729<234.625 390.717> 572.998 63.3301<66 538 611 680>
VStem: 139.355 73.4795<228.922 338.221> 538 73<0 288 356 572.998>
AnchorPoint: "anchor 1" 538 0 basechar 0
AnchorPoint: "anchor0" 506 636.3 basechar 0
LayerCount: 2
Fore
SplineSet
538 288 m 5xbc
 538 288 353.875 359.225585938 282.795898438 359.225585938 c 4
 238.532226562 359.225585938 212.834960938 319.1875 212.834960938 280.705078125 c 4
 212.834960938 269.055664062 215.279296875 257.623046875 221.087890625 248 c 4
 248.555664062 202.5 311 145 311 145 c 5
 276 100 l 5
 276 100 205.732421875 151.493164062 185 173 c 4
 154.16015625 204.9921875 139.35546875 248.028320312 139.35546875 289.431640625 c 4
 139.35546875 329.131835938 154.359375 367.202148438 183 393 c 4
 216.502929688 423.177734375 248.908203125 432.3984375 296.963867188 432.3984375 c 4
 373.952148438 432.3984375 538 356 538 356 c 13
 538 572.998046875 l 5
 66 572.998046875 l 5
 66 636.328125 l 5
 680 636.328125 l 5
 680 572.998046875 l 5
 611 572.998046875 l 5
 611 0 l 29
 538 0 l 21
 538 288 l 5xbc
EndSplineSet
Validated: 524289
EndChar

StartChar: bnNNA
Encoding: 290 2467 34
GlifName: bnN_N_A_
Width: 575
VWidth: 0
Flags: W
HStem: 0 21G<432 505> 0 21G<432 505> 531.592 75.252<166.247 319.221> 572.996 63.332<505 586>
VStem: 47.3555 77.3916<373.236 487.458> 432 73<0 460 540 572.996 636.328 662.633> 454 51<692.695 719>
AnchorPoint: "anchor0" 431.948 636.328 basechar 0
LayerCount: 2
Fore
SplineSet
505 572.99609375 m 25x1c
 505 0 l 1
 432 0 l 1
 432 460 l 5
 432 460 304.725585938 531.591796875 212.634765625 531.591796875 c 4
 166.318359375 531.591796875 124.747070312 467.666015625 124.747070312 429 c 4
 124.747070312 374.735351562 220 285 220 285 c 13
 184 245 l 5
 184 245 131.23046875 276.041015625 93 317.735351562 c 4
 68 345 47.35546875 384.763671875 47.35546875 426.166992188 c 4
 47.35546875 477.8671875 87.9287109375 546.03515625 117.298828125 571 c 4
 151.846679688 600.365234375 179.677734375 606.84375 218.091796875 606.84375 c 4xac
 233.393554688 606.84375 264.456054688 603.2421875 281 599 c 4
 359 579 432 540 432 540 c 5
 432 636.328125 l 25x1c
 454 719 l 1
 505 719 l 1x1a
 505 636.328125 l 25
 586 636.328125 l 17
 586 572.99609375 l 1
 505 572.99609375 l 25x1c
EndSplineSet
Validated: 524289
EndChar

StartChar: bnGA
Encoding: 291 2455 35
GlifName: bnG_A_
Width: 540
VWidth: 0
Flags: W
HStem: 549.388 72.3906<130.492 278.883>
VStem: 20.8506 81.9395<444.922 519.589> 218.035 73.0049<241.912 340.874>
AnchorPoint: "anchor 1" 401.617 0 basechar 0
AnchorPoint: "anchor0" 401.2 636.241 basechar 0
LayerCount: 2
Fore
SplineSet
401.6171875 502 m 5
 401.6171875 0 l 5
 474 0 l 5
 474 573 l 29
 552 573 l 5
 552 636.328125 l 13
 461 636.328125 l 21
 435 702 l 5
 394 702 l 5
 401.616210938 636.099609375 l 5
 401.6171875 561 l 21
 401.6171875 561 254.265625 621.778320312 159.793945312 621.778320312 c 4
 133.889648438 621.778320312 114 619 91 600 c 4
 71.3525390625 583.76953125 20.8505859375 503.376953125 20.8505859375 448.177734375 c 4
 20.8505859375 391.694335938 129.75 368.682617188 191 344 c 4
 213.856445312 334.4765625 218.03515625 310.245117188 218.03515625 290.23828125 c 4
 218.03515625 268.698242188 93 186 93 186 c 5
 125 135 l 5
 125 135 291.040039062 221 291.040039062 263.68359375 c 4
 291.040039062 295.348632812 277.759765625 348.624023438 273 361 c 4
 264 386 254 397 216 412 c 4
 159.537109375 435.140625 102.790039062 441.001953125 102.790039062 467.06640625 c 4
 102.790039062 494.487304688 138.791992188 549.387695312 160.770507812 549.387695312 c 4
 188 549.387695312 242.241210938 536.090820312 265 531 c 4
 401.6171875 502 l 5
EndSplineSet
Validated: 9
EndChar

StartChar: bnPA
Encoding: 292 2474 36
GlifName: bnP_A_
Width: 710
VWidth: 0
Flags: W
HStem: 0 21G<569.004 642.454> 0 21G<569.004 642.454> 548 73<303.026 422.81> 572.998 63.3301<642.454 724.598>
VStem: 569.004 73.4502<0 399 486 572.998>
AnchorPoint: "anchor 1" 569 0 basechar 0
AnchorPoint: "anchor0" 569.1 636.328 basechar 0
LayerCount: 2
Fore
SplineSet
496 464 m 5x28
 496 464 466.064453125 493.083984375 445 510 c 4
 415.525550848 533.669745397 391 548 363 548 c 4
 335 548 311.745117188 531.4296875 298 523 c 4
 273.557617188 508.010742188 210.029296875 454.765625 210.029296875 454.765625 c 5
 330 312 l 5
 496 464 l 5x28
642.454101562 0 m 17x98
 569.00390625 0 l 9
 569.00390625 399 l 5
 547 420 l 5
 344 233 l 5
 299 240 l 5
 154.029296875 416.765625 l 5
 110 387 l 5
 74 434 l 5
 74 434 185.6660805 535.313346206 264 586 c 4
 298 608 331 621 360 621 c 4xa8
 400 621 425.391601562 605.65234375 448 590 c 4
 500 554 569 486 569 486 c 5
 569 636 l 1
 561.59765625 702 l 1
 603.59765625 702 l 1
 629.59765625 636.328125 l 9
 724.59765625 636.328125 l 17
 724.59765625 572.998046875 l 1
 642.454101562 572.998046875 l 25
 642.454101562 0 l 17x98
EndSplineSet
Validated: 524289
EndChar

StartChar: bnLA
Encoding: 293 2482 37
GlifName: bnL_A_
Width: 725
VWidth: 0
Flags: W
HStem: 0 21G<588 661> 0 21G<588 661> 381 77<138.381 304.125 435.125 571.555> 573 63.3281<-14 588 661 741>
VStem: 47 75<198.947 364.856> 337 56<206 254> 588 73<0 365.591 425 573>
AnchorPoint: "anchor 1" 588 0 basechar 0
AnchorPoint: "anchor0" 578 636.8 basechar 0
LayerCount: 2
Fore
SplineSet
588 425 m 9xbe
 588 573 l 1
 -14 573 l 1
 -14 636.328125 l 1
 741 636.328125 l 1
 741 573 l 1
 661 573 l 1
 661 0 l 25
 588 0 l 17
 588 288 l 0
 588 331 582 381 520 381 c 0
 451.796875 381 415.009765625 367.268554688 404 288 c 2
 393 206 l 1
 337 206 l 1
 334 254 l 1
 329.635742188 369.26171875 303.225585938 381 196 381 c 4
 139 381 122 348 122 302 c 4
 122 253.916015625 160 117 160 117 c 5
 114 100 l 5
 114 100 47 201.530273438 47 322 c 4
 47 436 128 458 189 458 c 4
 269.517578125 458 351.249023438 452.481445312 371 385 c 1
 399 444 447 453 515 453 c 0
 572.284179688 453 588 425 588 425 c 9xbe
EndSplineSet
Validated: 524289
EndChar

StartChar: bnDA
Encoding: 294 2470 38
GlifName: bnD_A_
Width: 580
Flags: W
HStem: 573 63.3281<-11 65 138.9 589>
VStem: 65 73.9004<310 573>
AnchorPoint: "anchor 1" 374 -15 basechar 0
AnchorPoint: "anchor0" 402 636.3 basechar 0
LayerCount: 2
Fore
SplineSet
65 264.501953125 m 9
 65 573 l 1
 -11 573 l 1
 -11 636.328125 l 1
 589 636.328125 l 5
 589 573 l 5
 138.900390625 573 l 1
 138.900390625 310 l 25
 457.900390625 460 l 1
 504.099609375 427 l 1
 444.19921875 -35 l 1
 369.499023438 -35 l 1
 421.099609375 357 l 1
 109.919921875 208 l 1
 65 264.501953125 l 9
EndSplineSet
Validated: 524289
EndChar

StartChar: bnSHA
Encoding: 295 2486 39
GlifName: bnS_H_A_
Width: 645
VWidth: 0
Flags: W
HStem: 0 21G<477 550> 0 21G<477 550> 560 74<293.041 442.395> 573 63.3281<550 650>
VStem: 198 77<392.863 542.096> 477 73<0 531.462 636.328 661.773> 499 51<691.227 717>
AnchorPoint: "anchor 1" 477 0 basechar 0
AnchorPoint: "anchor0" 477 636 basechar 0
LayerCount: 2
Fore
SplineSet
477 598 m 1x2c
 477 636 l 1x2c
 499 717 l 1
 550 717 l 1x2a
 550 636.328125 l 25x1c
 650 636.328125 l 17
 650 573 l 1
 550 573 l 25x1a
 550 0 l 1
 477 0 l 1
 477 504 l 5
 477 534 397 560 352 560 c 0
 297.770507812 560 275 531 275 478 c 0
 275 417.71484375 279.6953125 400.182617188 315 379 c 0
 350 358 405 336 405 336 c 1
 387 282 l 1
 387 282 347 288 310 303 c 0
 269.330078125 319.487304688 242 340 242 340 c 1
 242 340 222.553710938 321.16796875 176 303 c 0
 135 287 77 279 77 279 c 1
 62 337 l 1
 62 337 106.999023438 353.000976562 149 373 c 0
 193.701171875 394.28515625 198 413.141601562 198 483 c 0
 198 533 182.918945312 555.954101562 146 560 c 0xac
 108.108398438 564.15234375 -11 573 -11 573 c 1
 -11 636.328125 l 1
 -11 636.328125 108 636.328125 160 636.328125 c 0x1c
 200 636.328125 226 629 250 599 c 1
 277 630 299 634 335 634 c 0
 379 634 442 622 477 598 c 1x2c
EndSplineSet
Validated: 524289
EndChar

StartChar: bnMA
Encoding: 296 2478 40
GlifName: bnM_A_
Width: 565
VWidth: 0
Flags: W
HStem: 0 21G<450 523> 0 21G<450 523> 296 74<180.579 242.533> 573 63.3301<-12 89.002 125 450 522.999 602>
VStem: 85 73<184.561 272.849> 247 72<367.262 446.052> 450 72.999<0 220 287 572.998>
AnchorPoint: "anchor 1" 450 0 basechar 0
AnchorPoint: "anchor0" 438 636.6 basechar 0
LayerCount: 2
Fore
SplineSet
226 446 m 24xbe
 170 487 73.001953125 538 73.001953125 538 c 1
 89.001953125 572.998046875 l 1
 -12 573 l 17
 -12 636.330078125 l 1
 602 636.330078125 l 1
 602 573 l 9
 522.999023438 573 l 17
 523 0 l 1
 450 0 l 9
 450 220 l 17
 450 220 241.87890625 296 217 296 c 0
 202 296 188 287 175 266 c 0
 165 249 158 234 158 217 c 0
 158 209 160.137695312 202.157226562 167 196 c 0
 205.926757812 161.072265625 244 128 244 128 c 1
 215 89 l 1
 215 89 156 118 122 146 c 0
 101.796875 162.638671875 85 185 85 211 c 0
 85 234 91 267 110 300 c 0
 141.15234375 354.106445312 175 370 202 370 c 0
 222 370 241 367 241 367 c 2
 241.1328125 367.926757812 247 403.220703125 247 411 c 0
 247 422 239 437 226 446 c 24xbe
319 417 m 4
 319 403 310 348 310 348 c 1
 450 287 l 1
 450 572.998046875 l 25
 125 573 l 1
 125 573 174.984375 554.013671875 245 512 c 0
 279.999023438 490.998046875 319 462 319 417 c 4
EndSplineSet
Validated: 1
EndChar

StartChar: bnSA
Encoding: 297 2488 41
GlifName: bnS_A_
Width: 620
VWidth: 0
Flags: W
HStem: 0 21G<490 563> 0 21G<490 563> 113 75<99.0411 202.515> 314 83<350 422.848> 573 63.3281<-9 112 138 490 563 631>
VStem: 490 73<0 263 341 573>
AnchorPoint: "anchor 1" 489.9 0 basechar 0
AnchorPoint: "anchor0" 470 636 basechar 0
LayerCount: 2
Fore
SplineSet
490 263 m 5xbc
 490 263 399.125 314 368 314 c 4
 355 314 338 314 322 274 c 4
 287.375 187.4375 253 113 187 113 c 4
 135 113 46 158 46 158 c 5
 62 214 l 5
 62 214 153.547851562 188 170 188 c 4
 204 188 237.884765625 260.212890625 263 323 c 4
 267 333 274 355 274 373 c 4
 274 406 226 441 194 464 c 4
 154.381835938 492.475585938 93 535 93 535 c 5
 112 573 l 29
 -9 573 l 5
 -9 636.328125 l 5
 631 636.328125 l 5
 631 573 l 13
 563 573 l 21
 563 0 l 5
 490 0 l 5
 490 263 l 5xbc
490 341 m 5
 490 573 l 29
 138 573 l 5
 138 573 187.463867188 548.0625 200 541 c 4
 248.744140625 513.540039062 304.740234375 481.719726562 328 449 c 4
 345.625976562 424.205078125 350 397 350 397 c 5
 398 397 483.91015625 343.858398438 490 341 c 5
EndSplineSet
Validated: 1
EndChar

StartChar: bnJA
Encoding: 298 2460 42
GlifName: bnJ_A_
Width: 875
VWidth: 0
Flags: W
HStem: 29.6436 77.3564<312.296 433.463> 315 73<370.541 555.617>
VStem: 561.045 79.5586<225.54 338.808>
AnchorPoint: "anchor 1" 647 0 basechar 0
AnchorPoint: "anchor0" 713 636.9 basechar 0
LayerCount: 2
Fore
SplineSet
297 306 m 17
 297 306 405.6015625 315 459.6015625 315 c 0
 513.328125 315 561.044921875 312.608398438 561.044921875 277 c 0
 561.044921875 243 524 201 462 149 c 0
 439.168945312 129.8515625 404.852539062 107 373 107 c 0
 319.37890625 107 280.782226562 154.875 243 201 c 0
 181.321289062 276.297851562 89 397 89 397 c 1
 44 372 l 1
 44 372 80 270 203 131 c 0
 266.623046875 59.1005859375 319.586914062 29.6435546875 372.94921875 29.6435546875 c 0
 422.969726562 29.6435546875 469.152846762 55.898562645 500 82 c 0
 591 159 640.603515625 229.950195312 640.603515625 305.791992188 c 0
 640.603515625 371.59765625 551 388 465.6015625 388 c 0
 427.6015625 388 370 382 370 382 c 1
 370 493 l 1
 370 493 629 432 687 415 c 0
 735.73828125 400.71484375 753.954962826 371.307535319 740 322 c 0
 725 269 641 -16 641 -16 c 1
 714 -16 l 1
 815 329 l 2
 819.428710938 345.532226562 821.481445312 360.103515625 821.481445312 373.022460938 c 0
 821.481445312 447.625976562 750.010742188 467.1328125 675 491 c 0
 589 518 370 555 370 555 c 1
 370 573.001953125 l 25
 894 573.001953125 l 25
 894 636.328125 l 1
 -15.009765625 636.328125 l 1
 -15 573.001953125 l 1
 297 573.001953125 l 25
 297 306 l 17
EndSplineSet
Validated: 524329
EndChar

StartChar: bnO
Encoding: 299 2451 43
GlifName: bnO_
Width: 725
VWidth: 0
Flags: W
HStem: 25 73<323.476 474.111> 333 64<368 506.493> 563 73<253 512.706>
VStem: 519 74<406.252 554.239> 570 77<184.991 296.893>
AnchorPoint: "anchor0" 376 638 basechar 0
LayerCount: 2
Fore
SplineSet
432 563 m 4xf0
 374.293945312 563 253 563 253 563 c 5
 245 616 l 5
 245 616 335 636 432 636 c 4
 546.003759453 636 593 606 593 546 c 4xf0
 593 530 592.6875 503.8125 591 483 c 4
 588 446 588 390 568 376 c 5
 613 362 647 275.76953125 647 232 c 4
 647 176 604 109 510 53 c 4
 482.294921875 36.4951171875 443 25 409 25 c 4
 348 25 268 32 193 142 c 4
 114.92138788 256.515297776 54 395 54 395 c 5
 93 419 l 5
 242 204 l 6
 295.282100371 127.11643235 338 98 407 98 c 4
 453 98 501.369611759 136.557866113 517 150 c 4
 567 193 570 230 570 246 c 4xe8
 570 273 535 333 493 333 c 5
 368 333 l 5
 368 397 l 5
 368 397 437.060546875 397 471 397 c 4
 510 397 513 428 517 474 c 4
 518.706054688 493.623046875 519 503 519 516 c 4
 519 557 489 563 432 563 c 4xf0
EndSplineSet
Validated: 1
EndChar

StartChar: bnAU
Encoding: 300 2452 44
GlifName: bnA_U_
Width: 775
VWidth: 0
Flags: W
HStem: 25 73<316.296 464.344> 333 64<362 500.493> 344 67<601.162 642.062> 563 73<247 506.706>
VStem: 513 74<411.157 554.239> 564 77<182.79 297.376> 660 64<430.632 711.631>
AnchorPoint: "anchor0" 346 638 basechar 0
LayerCount: 2
Fore
SplineSet
601.162109375 344 m 1xba
 601.162109375 344 641 261.724609375 641 232 c 0
 641 176 595 107 501 51 c 0
 473.294921875 34.4951171875 430 25 396 25 c 0
 339 25 257.498046875 38.3701171875 187 142 c 0
 109.041015625 256.596679688 48 395 48 395 c 1
 87 419 l 1
 239 198 l 2
 282.896484375 134.177734375 328 98 397 98 c 0
 440 98 494.991210938 137.01171875 511 150 c 0
 564 193 564 234 564 246 c 0
 564 273 529 333 487 333 c 1
 362 333 l 1
 362 397 l 1
 362 397 431.060546875 397 465 397 c 0xd6
 504 397 507 428 511 474 c 0
 512.706054688 493.623046875 513 503 513 516 c 0
 513 557 483 563 426 563 c 0
 368.293945312 563 247 563 247 563 c 1
 239 616 l 1
 239 616 329 636 426 636 c 0
 540.00390625 636 587 606 587 546 c 0
 587 530 586.6875 503.8125 585 483 c 0
 583.328125 462.381835938 578.799804688 411 578.799804688 411 c 1
 636 411 660 439 660 486 c 0
 660 567.413085938 660 736 660 736 c 9
 710 740 l 1
 710 740 724 541.482421875 724 482 c 0
 724 396 674.162109375 344 601.162109375 344 c 1xba
EndSplineSet
Validated: 1
EndChar

StartChar: bnII
Encoding: 301 2440 45
GlifName: bnI_I_
Width: 750
VWidth: 0
Flags: W
HStem: 386 54<641.211 663> 446.919 69.0811<131.695 308.907> 573.008 63.3242<-14 494 564 761> 705.51 66.4902<206.488 483.09>
VStem: 311 73<364.535 443.777> 494 70<636.332 696.489>
LayerCount: 2
Fore
SplineSet
95 423.60546875 m 1
 81 478 l 1
 134 498 211 516 280 516 c 0
 332 516 384 485 384 431 c 0
 384 404 370.830932999 372.869129618 353 344 c 2
 315 280 l 1
 567 440 l 1
 663 440 l 1
 667 386 l 1
 597 367 l 1
 539 -68 l 1
 468 -68 l 1
 523 321 l 1
 153 94 l 1
 127 147.498046875 l 1
 180 200.498046875 l 1
 281 352 l 2
 296 373 311 401.60546875 311 417.60546875 c 0
 311 439.806640625 292.139648438 446.880859375 267.877929688 446.918945312 c 0
 222.552734375 446.98828125 95 423.60546875 95 423.60546875 c 1
564 636.33203125 m 9
 761 636.33203125 l 1
 761 573.0078125 l 25
 -14 573.0078125 l 1
 -14 636.33203125 l 1
 494 636.33203125 l 17
 494 690.33203125 478 705.509765625 430 705.509765625 c 0
 317.32421875 705.509765625 118 705.509765625 118 705.509765625 c 9
 114 758 l 1
 114 758 376.75390625 772 436 772 c 0
 531 772 564 714.33203125 564 636.33203125 c 9
EndSplineSet
Validated: 524321
EndChar

StartChar: bnvL
Encoding: 302 2444 46
GlifName: bnvL_
Width: 630
Flags: W
HStem: -0.356445 21G<322.83 327.221> -0.356445 21G<322.83 327.221>
VStem: 206.273 71.8477<447.361 526.393> 503.106 71.8936<98.6226 229.76>
AnchorPoint: "anchor0" 508 572 basechar 0
LayerCount: 2
Fore
SplineSet
150 40 m 1xb0
 101.901367188 21.2509765625 l 1
 101.901367188 21.2509765625 83 58 76.673828125 86.955078125 c 0
 57.4638671875 174.880859375 81.15234375 225.12890625 171.989257812 245.068359375 c 0
 224.734375 256.646484375 259.348632812 262.197265625 299.657226562 246.474609375 c 0
 332.056640625 234.133789062 349.234375 193.879882812 360.8828125 140.127929688 c 0
 369.529296875 100.23046875 374.15234375 70.3505859375 374.15234375 70.3505859375 c 1
 374.15234375 70.3505859375 429.8046875 79.658203125 458.794921875 85.859375 c 0
 486.048828125 91.6884765625 503.106445312 121 503.106445312 149.84765625 c 0
 503.106445312 164.629882812 502.408203125 203.002929688 491.599609375 219.708007812 c 0
 461 267 206.2734375 384 206.2734375 464.548828125 c 0
 206.2734375 527 264 600 331.216796875 646.635742188 c 1
 366 609 l 1
 307 549 278.12109375 496.873046875 278.12109375 475.174804688 c 0
 278.12109375 433 512.130859375 330.65234375 555 255 c 0
 572 225 575 167.409179688 575 144 c 0
 575 76 528.720703125 28.4951171875 478.901367188 17.58203125 c 0
 429.354492188 6.7294921875 327.220703125 -0.3564453125 327.220703125 -0.3564453125 c 1
 309.424804688 80.7138671875 l 2
 299.991210938 123.690429688 288.388671875 167.21484375 269.87890625 181.580078125 c 0
 258.514648438 191.37109375 236.8125 187.630859375 213.370117188 182.485351562 c 0
 204.580078125 180.555664062 194.8125 178.412109375 186.021484375 176.482421875 c 0
 126.440429688 163.403320312 131.922851562 115.889648438 143.116210938 68.7783203125 c 0
 146.596679688 54.12890625 150 40 150 40 c 1xb0
EndSplineSet
Validated: 33
EndChar

StartChar: bnTTHA
Encoding: 303 2464 47
GlifName: bnT_T_H_A_
Width: 580
Flags: W
HStem: -0.148438 78.1484<224.298 344.352> 572.999 63.3291<-14 168 240 593>
VStem: 168 72<534.546 572.999> 452 76<174.414 263.844>
AnchorPoint: "anchor0" 405 636 basechar 0
AnchorPoint: "anchor 1" 251 12 basechar 0
LayerCount: 2
Fore
SplineSet
528 225 m 0
 528 143 398.399414062 -0.1484375 276.408203125 -0.1484375 c 0
 149.004882812 -0.1484375 42 216 42 279 c 1
 42 279 156 334 192.094726562 374.038085938 c 0
 214.780369976 399.202142494 226 421.7890625 226 444 c 0
 226 464.1328125 213.094726562 481.038085938 190.094726562 513.038085938 c 0
 170.250976562 540.646484375 168 560.999023438 168 572.999023438 c 1
 -14 572.999023438 l 1
 -14 636.328125 l 1
 168.591796875 636.328125 l 1
 168.591796875 636.328125 170.68612777 659.389358007 196 687 c 0
 249.553511479 745.412510717 350 816 350 816 c 1
 382 779 l 1
 382 779 284.851170428 689.180379846 254 658 c 0
 243.519582607 647.407747235 237.81640625 636.328125 237.81640625 636.328125 c 1
 593 636.328125 l 1
 593 572.999023438 l 1
 240 573 l 17
 240 505.821289062 528 335 528 225 c 0
452 222 m 0
 452 273 287.094726562 403.038085938 287.094726562 403.038085938 c 1
 287 390 279 366 250.094726562 332.038085938 c 0
 206.98828125 281.390625 127 241 127 241 c 1
 127 241 193 78 276 78 c 0
 353.641601562 78 452 178 452 222 c 0
EndSplineSet
Validated: 524289
EndChar

StartChar: A
Encoding: 304 65 48
GlifName: A_
Width: 670
Flags: W
HStem: 0 21G<45 142.471 550.824 645> 204 74<229 468> 712 20G<306.65 395.022>
LayerCount: 2
Fore
SplineSet
45 0 m 5
 314 732 l 5
 388 732 l 5
 645 0 l 5
 557 0 l 5
 494 204 l 5
 202 204 l 5
 136 0 l 5
 45 0 l 5
229 278 m 5
 468 278 l 5
 350 619 l 5
 229 278 l 5
EndSplineSet
Validated: 1
EndChar

StartChar: B
Encoding: 305 66 49
GlifName: B_
Width: 596
Flags: W
HStem: 0 74<155 437.089> 346 74<155 431.662> 658 74<155 438.829>
VStem: 80 75<74 346 420 658> 482 74<118.643 293.498 467.176 614.376>
LayerCount: 2
Fore
SplineSet
80 0 m 5
 80 732 l 5
 362 732 l 6
 508 732 552 624 552 542 c 4
 552 468 531 402 460 380 c 5
 504 370 556 318 556 204 c 4
 556 102 516 0 362 0 c 6
 80 0 l 5
155 74 m 5
 362 74 l 6
 410 74 482 87 482 206 c 4
 482 280 446 346 362 346 c 6
 155 346 l 5
 155 74 l 5
155 420 m 5
 362 420 l 6
 437 420 478 460 478 542 c 4
 478 639 414 658 362 658 c 6
 155 658 l 5
 155 420 l 5
EndSplineSet
Validated: 1
EndChar

StartChar: C
Encoding: 306 67 50
GlifName: C_
Width: 578
Flags: W
HStem: -6 74<220.9 539.594> 666 74<203.384 525.638>
VStem: 55 74<193.881 566.781>
LayerCount: 2
Fore
SplineSet
55 368 m 4
 55 602 100 740 299 740 c 4
 351 740 473 728 543 715 c 5
 543 656 l 6
 542 656 391 666 299 666 c 4
 174 666 129 609 129 366 c 4
 129 202 166 68 299 68 c 0
 404 68 543 75 543 75 c 1
 543 16 l 1
 473 3 351 -6 299 -6 c 0
 114 -6 55 153 55 368 c 4
EndSplineSet
Validated: 1
EndChar

StartChar: D
Encoding: 307 68 51
GlifName: D_
Width: 657
Flags: W
HStem: 0 77<154 432.267> 658 74<154 436.081>
VStem: 80 74<77 658> 538 74<215.053 531.866>
LayerCount: 2
Fore
SplineSet
80 0 m 5
 80 732 l 5
 352 732 l 6
 577 732 612 513 612 363 c 4
 612 197 545 0 352 0 c 6
 80 0 l 5
154 77 m 5
 352 77 l 6
 484 77 538 210 538 364 c 4
 538 578 468 658 352 658 c 6
 154 658 l 5
 154 77 l 5
EndSplineSet
Validated: 1
EndChar

StartChar: E
Encoding: 308 69 52
GlifName: E_
Width: 567
Flags: W
HStem: -3.51911 74.5191<160.578 338.266> 14 57<396 522> 323 79<154 383.6> 333 59<252.4 482> 658 74.1761<160.901 342.745> 658 58<383.75 522>
VStem: 80 74<76.6798 323 402 652.375>
LayerCount: 2
Fore
SplineSet
80 123 m 2x82
 80 602 l 2
 80 696.180545884 134.490684939 732.176123104 198.205696272 732.176123104 c 4x8a
 200.789632901 732.176123104 203.388740553 732.116922065 206 732 c 2
 522 716 l 1
 522 658 l 1x06
 206 658 l 2
 154 658 154 629 154 602 c 2
 154 402 l 1x2a
 482 392 l 1
 482 333 l 1x12
 154 323 l 1
 154 123 l 2
 154.963636364 71.9272727273 184.713719008 70.998677686 212.826097671 70.998677686 c 0
 213.886942149 70.998677686 214.945454545 71 216 71 c 2
 522 71 l 1
 522 14 l 1x62
 216 -3 l 2
 210.525242644 -3.33180347614 205.022961901 -3.51910917213 199.535394915 -3.51910917213 c 0
 138.868537602 -3.51910917213 80 19.373448201 80 123 c 2x82
EndSplineSet
Validated: 1
EndChar

StartChar: F
Encoding: 309 70 53
GlifName: F_
Width: 567
Flags: W
HStem: 0 21G<80 154> 323 79<154 383.6> 333 59<252.4 482> 658 74.1761<160.901 342.745> 658 58<383.75 522>
VStem: 80 74<0 323 402 652.375>
LayerCount: 2
Fore
SplineSet
80 0 m 1xc4
 80 602 l 2
 80 696.180545884 134.490684939 732.176123104 198.205696272 732.176123104 c 0xd4
 200.789632901 732.176123104 203.388740553 732.116922065 206 732 c 2
 522 716 l 5
 522 658 l 1x8c
 206 658 l 2
 154 658 154 629 154 602 c 2
 154 402 l 1xd4
 482 392 l 1
 482 333 l 1xa4
 154 323 l 1
 154 0 l 1
 80 0 l 1xc4
EndSplineSet
Validated: 1
EndChar

StartChar: G
Encoding: 310 71 54
GlifName: G_
Width: 614
Flags: W
HStem: -5.01799 73.018<207.766 412.528> 314 75<328.605 485> 314 50<317 425.87> 666 74<205.82 510.876>
VStem: 55 74<173.936 567.504> 485 74<114 314> 503 56<0 21.4375>
LayerCount: 2
Fore
SplineSet
55 370 m 0xda
 55 570 90 740 289 740 c 0
 341 740 473 726 543 713 c 1
 543 654 l 1
 537 654 388 666 289 666 c 0
 157 666 129 570 129 368 c 0
 129 146 170 70 293 68 c 0
 293.8 67.9894736842 294.604432133 67.984265928 295.413114448 67.984265928 c 0
 371.429252078 67.984265928 485 114 485 114 c 1
 485 314 l 1xdc
 317 314 l 1
 317 364 l 1xbc
 357 375 410 389 491 389 c 0
 512 389 535 388 559 386 c 1
 559 0 l 1
 503 0 l 1
 487 49 l 1
 449 28 383 -5 293 -5 c 0
 291.757800818 -5.01200192447 290.521939668 -5.01798992046 289.292385216 -5.01798992046 c 0
 85.6290566996 -5.01798992046 55 159.272203993 55 370 c 0xda
EndSplineSet
Validated: 1
EndChar

StartChar: H
Encoding: 311 72 55
GlifName: H_
Width: 638
Flags: W
HStem: 0 21G<80 154 504 578> 317 74<154 504> 712 20G<80 154 504 578>
VStem: 80 74<0 317 391 732> 504 74<0 317 391 732>
LayerCount: 2
Fore
SplineSet
80 0 m 5
 80 732 l 5
 154 732 l 5
 154 391 l 5
 504 391 l 5
 504 732 l 5
 578 732 l 5
 578 0 l 5
 504 0 l 5
 504 317 l 5
 154 317 l 1
 154 0 l 5
 80 0 l 5
EndSplineSet
Validated: 1
EndChar

StartChar: I
Encoding: 312 73 56
GlifName: I_
Width: 214
Flags: W
HStem: 0 21G<80 154> 712 20G<80 154>
VStem: 80 74<0 732>
LayerCount: 2
Fore
SplineSet
80 0 m 5
 80 732 l 5
 154 732 l 5
 154 0 l 5
 80 0 l 5
EndSplineSet
Validated: 1
EndChar

StartChar: J
Encoding: 313 74 57
GlifName: J_
Width: 359
Flags: W
HStem: -6.04957 64.9118<44.4683 197.867> 712 20G<225 299>
VStem: 225 74<88.3998 732>
LayerCount: 2
Fore
SplineSet
35 21 m 1
 39 75 l 1
 68.0529903498 67.9330564014 102.809198593 58.8622794888 134.372626352 58.8622794888 c 0
 183.203458393 58.8622794888 224.392607978 80.5725089004 225 165 c 2
 225 732 l 1
 299 732 l 1
 299 165 l 2
 299 118 297 50 247 18 c 0
 221.66685093 1.74854587993 183.996394685 -6.04956813839 145.891905114 -6.04956813839 c 0
 104.277211659 -6.04956813839 62.1448348752 3.25145412007 35 21 c 1
EndSplineSet
Validated: 1
EndChar

StartChar: K
Encoding: 314 75 58
GlifName: K_
Width: 591
Flags: W
HStem: 0 21G<80 155 452.061 556> 330 74<155 236> 712 20G<80 154 451.976 556>
VStem: 80 75<0 330 404 732>
LayerCount: 2
Fore
SplineSet
80 0 m 5
 80 732 l 5
 154 732 l 5
 154 404 l 5
 236 404 l 5
 466 732 l 5
 556 732 l 5
 304 367 l 5
 556 0 l 5
 466 0 l 5
 236 330 l 5
 155 330 l 5
 155 0 l 5
 80 0 l 5
EndSplineSet
Validated: 1
EndChar

StartChar: L
Encoding: 315 76 59
GlifName: L_
Width: 557
Flags: W
HStem: 0 74<161.01 522> 712 20G<80 154>
VStem: 80 74<80.0236 732>
LayerCount: 2
Fore
SplineSet
80 126 m 2
 80 732 l 1
 154 732 l 1
 154 126 l 2
 154 74.9272727273 184.643636364 73.998677686 212.822274981 73.998677686 c 0
 213.885619835 73.998677686 214.945454545 74 216 74 c 2
 522 74 l 1
 522 0 l 1
 216 0 l 2
 150 0 80 13 80 126 c 2
EndSplineSet
Validated: 1
EndChar

StartChar: M
Encoding: 316 77 60
GlifName: M_
Width: 801
Flags: W
HStem: 0 21G<55 130.338 356.512 445.288 670.495 746> 712 20G<101.689 211.404 582.793 691.53>
LayerCount: 2
Fore
SplineSet
55 0 m 5
 103 732 l 5
 205 732 l 5
 400 123 l 5
 589 732 l 5
 690 732 l 5
 746 0 l 5
 672 0 l 5
 627 598 l 5
 439 0 l 5
 363 0 l 5
 169 598 l 5
 129 0 l 5
 55 0 l 5
EndSplineSet
Validated: 1
EndChar

StartChar: N
Encoding: 317 78 61
GlifName: N_
Width: 680
Flags: W
HStem: 0 21G<80 155 532.835 620> 712 20G<80 169.131 546 620>
VStem: 80 75<0 594> 546 74<138 732>
LayerCount: 2
Fore
SplineSet
80 0 m 1
 80 732 l 1
 156 732 l 1
 546 138 l 1
 546 732 l 1
 620 732 l 1
 620 0 l 1
 546 0 l 1
 155 594 l 1
 155 0 l 1
 80 0 l 1
EndSplineSet
Validated: 1
EndChar

StartChar: O
Encoding: 318 79 62
GlifName: O_
Width: 676
Flags: W
HStem: -4 74<219.697 475.299> 663 74<215.42 480.653>
VStem: 65 74<165.414 559.094> 557 74<169.3 563.994>
LayerCount: 2
Fore
SplineSet
65 361 m 4
 65 704 181 737 349 737 c 4
 522 737 631 704 631 361 c 4
 631 38 529 -4 349 -4 c 4
 169 -4 65 28 65 361 c 4
139 361 m 4
 139 104 191 70 349 70 c 4
 505 70 557 112 557 361 c 4
 557 660 485 663 349 663 c 4
 216 663 139 660 139 361 c 4
EndSplineSet
Validated: 1
EndChar

StartChar: P
Encoding: 319 80 63
GlifName: P_
Width: 581
Flags: W
HStem: 0 21G<60 134> 298 74<134.363 426.956> 318 54<134 354.472> 657 75<134 425.273>
VStem: 60 74<0 318 372 657> 461 75<409.245 618.009>
LayerCount: 2
Fore
SplineSet
60 0 m 5xbc
 60 732 l 5
 361 732 l 6
 440 732 536 699 536 520 c 4
 536 311 435 298 361 298 c 4xdc
 321 298 139 315 134 318 c 5
 134 0 l 5
 60 0 l 5xbc
134 372 m 5xbc
 361 372 l 6xdc
 413 372 461 387 461 520 c 4
 459 651 396 657 361 657 c 6
 134 657 l 5
 134 372 l 5xbc
EndSplineSet
Validated: 1
EndChar

StartChar: Q
Encoding: 320 81 64
GlifName: Q_
Width: 676
Flags: W
HStem: -142.846 75.0458<390.139 536.007> -4 74<218.166 473.746> 663 74<216.209 479.207>
VStem: 65 74<165.414 563.994> 557 74<174.009 563.994>
LayerCount: 2
Fore
SplineSet
65 361 m 0
 65 704 175 737 347 737 c 0
 520 737 631 704 631 361 c 0
 631 38 527 -4 347 -4 c 0
 167 -4 65 28 65 361 c 0
139 361 m 0
 139 104 189 70 347 70 c 0
 503 70 557 112 557 361 c 0
 557 660 483 663 347 663 c 0
 214 663 139 660 139 361 c 0
317 -33 m 1
 369 -33 l 1
 404.179551058 -57.966133009 434.851711019 -67.8003101921 465.400848415 -67.8003101921 c 0
 488.691127998 -67.8003101921 511.909902603 -62.0843456093 537 -53 c 1
 537 -133 l 1
 519.728852636 -139.476680262 499.005245418 -142.846146656 477.25846491 -142.846146656 c 0
 408.347215379 -142.846146656 329.161967252 -109.012295327 317 -33 c 1
EndSplineSet
Validated: 1
EndChar

StartChar: R
Encoding: 321 82 65
GlifName: R_
Width: 593
Flags: W
HStem: 0 21G<60 134 477.699 568> 313 66<134 234> 657 75<134 430.774>
VStem: 60 74<0 313 379 657> 466 75<404.847 621.147>
LayerCount: 2
Fore
SplineSet
60 0 m 5
 60 732 l 5
 372 732 l 6
 467 732 541 678 541 512 c 4
 541 322 442 306 414 302 c 5
 568 0 l 5
 488 0 l 5
 334 299 l 5
 134 313 l 5
 134 0 l 5
 60 0 l 5
134 379 m 5
 372 379 l 6
 418 379 466 379 466 512 c 4
 466 643 416 657 372 657 c 6
 134 657 l 5
 134 379 l 5
EndSplineSet
Validated: 1
EndChar

StartChar: S
Encoding: 322 83 66
GlifName: S_
Width: 584
Flags: W
HStem: -8 74<108.551 432.534> 322 74<162.037 442.271> 664.518 73.4818<167.448 263>
VStem: 65 74<417.897 635.158> 465 74<97.8527 300.228>
LayerCount: 2
Fore
SplineSet
65 494 m 2
 65 560 l 2
 65 705 151 738 263 738 c 0
 316 738 475 719 513 714 c 1
 513 654 l 1
 449 658 263 664 263 664 c 2
 255.67821785 664.313790664 248.531483843 664.518176238 241.60328302 664.518176238 c 0
 182.294323595 664.518176238 139 649.540311214 139 560 c 2
 139 494 l 2
 139 403 181 396 241 396 c 2
 383 396 l 2
 516 396 539 306 539 224 c 2
 539 156 l 2
 539 14 436 -8 337 -8 c 0
 288 -8 133 9 87 17 c 1
 87 77 l 1
 127 73 244 66 337 66 c 0
 378 66 465 68 465 156 c 2
 465 224 l 2
 465 281 448 322 383 322 c 2
 243 322 l 2
 83 322 65 410 65 494 c 2
EndSplineSet
Validated: 1
EndChar

StartChar: T
Encoding: 323 84 67
GlifName: T_
Width: 578
Flags: W
HStem: 0 21G<259 333> 658 74<45 259 333 553>
VStem: 259 74<0 658>
LayerCount: 2
Fore
SplineSet
45 658 m 5
 45 732 l 5
 553 732 l 5
 553 658 l 5
 333 658 l 5
 333 0 l 5
 259 0 l 5
 259 658 l 5
 45 658 l 5
EndSplineSet
Validated: 1
EndChar

StartChar: U
Encoding: 324 85 68
GlifName: U_
Width: 677
Flags: W
HStem: -5.01681 74.0049<221.825 466.311> 712 20G<80 154 542 617>
VStem: 80 74<152.981 732> 542 75<163.07 732>
LayerCount: 2
Fore
SplineSet
80 320 m 2
 80 732 l 1
 154 732 l 1
 154 320 l 2
 154 74.4646840149 227.021655312 68.9880598665 335.566717196 68.9880598665 c 0
 340.634969113 68.9880598665 345.780669145 69 351 69 c 0
 450 69 542 71 542 320 c 2
 542 732 l 1
 617 732 l 1
 617 320 l 2
 617 -3 472 -5 351 -5 c 0
 344.76504298 -5 338.532187749 -5.01681431187 332.314346157 -5.01681431187 c 0
 202.905518017 -5.01681431187 80 2.2664756447 80 320 c 2
EndSplineSet
Validated: 1
EndChar

StartChar: V
Encoding: 325 86 69
GlifName: V_
Width: 670
Flags: W
HStem: 0 21G<294.978 383.35> 712 20G<45 132.971 556.704 645>
LayerCount: 2
Fore
SplineSet
45 732 m 5
 126 732 l 5
 340 118 l 5
 564 732 l 5
 645 732 l 5
 376 0 l 5
 302 0 l 5
 45 732 l 5
EndSplineSet
Validated: 1
EndChar

StartChar: W
Encoding: 326 87 70
GlifName: W_
Width: 962
Flags: W
HStem: 0 21G<294.978 382.471 626.674 714.257> 712 20G<45 133.065 513.997 604 849.859 937>
LayerCount: 2
Fore
SplineSet
45 732 m 5
 126 732 l 5
 339 129 l 5
 520 732 l 5
 604 732 l 5
 536 498 l 5
 669 123 l 5
 856 732 l 5
 937 732 l 5
 708 0 l 5
 634 0 l 5
 497 374 l 5
 376 0 l 5
 302 0 l 5
 45 732 l 5
EndSplineSet
Validated: 1
EndChar

StartChar: X
Encoding: 327 88 71
GlifName: X_
Width: 596
Flags: W
HStem: 0 21G<48 140.494 473.377 566> 712 20G<45 137.726 478.013 571>
LayerCount: 2
Fore
SplineSet
45 732 m 5
 126 732 l 5
 306 425 l 5
 490 732 l 5
 571 732 l 5
 355 371 l 5
 566 0 l 5
 485 0 l 5
 306 308 l 5
 129 0 l 5
 48 0 l 5
 257 371 l 5
 45 732 l 5
EndSplineSet
Validated: 1
EndChar

StartChar: Y
Encoding: 328 89 72
GlifName: Y_
Width: 630
Flags: W
HStem: 0 21G<278 352> 712 20G<45 135.844 513.115 605>
VStem: 278 74<0 260>
LayerCount: 2
Fore
SplineSet
45 732 m 5
 126 732 l 5
 315 348 l 5
 524 732 l 5
 605 732 l 5
 352 260 l 5
 352 0 l 5
 278 0 l 5
 278 260 l 5
 45 732 l 5
EndSplineSet
Validated: 1
EndChar

StartChar: Z
Encoding: 329 90 73
GlifName: Z_
Width: 563
Flags: W
HStem: 0 74<132 528> 658 74<35 431>
LayerCount: 2
Fore
SplineSet
35 0 m 5
 35 74 l 5
 431 658 l 5
 35 658 l 5
 35 732 l 5
 528 732 l 5
 528 658 l 5
 132 74 l 5
 528 74 l 5
 528 0 l 5
 35 0 l 5
EndSplineSet
Validated: 1
EndChar

StartChar: a
Encoding: 330 97 74
GlifName: a
Width: 519
Flags: W
HStem: -6 74<124.061 278.286> 262 57.5556<297.875 395> 469 72.0163<92.8965 373.315>
VStem: 40 74<78.9822 232.113> 395 74<119 262 319.623 449.467> 414 55<0 23.5789>
LayerCount: 2
Fore
SplineSet
40 126 m 2xf8
 40 187 l 2
 40 267 90 320 173 320 c 2
 173 320 271.666666667 319.555555556 337.444444444 319.555555556 c 0
 370.333333333 319.555555556 395 319.666666667 395 320 c 2
 395 320 395.444444444 349.333333333 395.444444444 369.185185185 c 0
 395.444444444 379.111111111 395.333333333 386.666666667 395 387 c 0
 395 448 363 469 313 469 c 0
 241 469 154 464 57 457 c 1
 57 511 l 1
 128 531 217 540 316 541 c 0
 316.900157753 541.010845274 317.798786447 541.01628003 318.695813371 541.01628003 c 0
 400.510104981 541.01628003 469 495.807019845 469 387 c 2xf8
 469 0 l 1
 414 0 l 1xf4
 395 64 l 2
 393 64 264 -6 173 -6 c 0
 100 -6 40 41 40 126 c 2xf8
114 131 m 2
 114 83 139 68 173 68 c 0
 253 68 395 119 395 119 c 1
 395 262 l 1
 173 246 l 2
 130 242 114 213 114 181 c 2
 114 131 l 2
EndSplineSet
Validated: 1
EndChar

StartChar: b
Encoding: 331 98 75
GlifName: b
Width: 554
Flags: W
HStem: -6 74<225.261 383.478> 465 74<187.279 387.269>
VStem: 60 73<105.707 443.8 499 785> 430 74<128.042 415.865>
LayerCount: 2
Fore
SplineSet
60 0 m 5
 60 785 l 5
 132 785 l 5
 132 499 l 5
 196 525 284 539 329 539 c 4
 480 539 504 399 504 263 c 4
 504 141 474 -6 329 -6 c 4
 261 -6 159 40 133 59 c 5
 113 0 l 5
 60 0 l 5
133 114 m 5
 187 92 250 68 329 68 c 4
 394 68 430 133 430 263 c 4
 430 426 393 465 329 465 c 4
 252 465 202 457 133 439 c 5
 133 114 l 5
EndSplineSet
Validated: 1
EndChar

StartChar: c
Encoding: 332 99 76
GlifName: c
Width: 500
Flags: W
HStem: -5 74<162.645 431.709> 462 74<158.815 440.878>
VStem: 50 74<113 420.51>
LayerCount: 2
Fore
SplineSet
50 266 m 4
 50 498 123 536 225 536 c 4
 277 536 383 523 453 510 c 5
 453 456 l 5
 453 456 314 462 225 462 c 4
 165 462 124 451 124 262 c 4
 124 109 153 69 225 69 c 4
 317 69 460 80 460 80 c 5
 460 24 l 5
 379 1 308 -4 225 -5 c 4
 126 -5 50 33 50 266 c 4
EndSplineSet
Validated: 1
EndChar

StartChar: d
Encoding: 333 100 77
GlifName: d
Width: 554
Flags: W
HStem: -6 74<170.522 328.739> 465 74<166.731 366.308>
VStem: 50 74<128.042 415.865> 421 73<105.707 443.8 499 785>
LayerCount: 2
Fore
SplineSet
50 263 m 4
 50 399 74 539 225 539 c 4
 270 539 357 525 421 499 c 5
 421 785 l 5
 494 785 l 5
 494 0 l 5
 441 0 l 5
 421 59 l 5
 395 40 293 -6 225 -6 c 4
 80 -6 50 141 50 263 c 4
124 263 m 4
 124 133 160 68 225 68 c 4
 304 68 367 92 421 114 c 5
 421 439 l 5
 352 457 302 465 225 465 c 4
 161 465 124 426 124 263 c 4
EndSplineSet
Validated: 1
EndChar

StartChar: f
Encoding: 334 102 78
GlifName: f
Width: 400
Flags: W
HStem: 0 21G<117 191> 457 74<77.0588 117 191 339> 457 57<20 59.9412> 713 49<279.994 380> 714.02 71.9802<204.675 257 257.088 373.154>
VStem: 117 74<0 457 531 703.09>
LayerCount: 2
Fore
SplineSet
20 457 m 1xa4
 20 514 l 1xa4
 117 531 l 1
 117 630 l 2
 117 684 120 786 240 786 c 0xcc
 289 786 331 777 380 762 c 1
 380 713 l 2x94
 379 713 257 714 257 714 c 2
 256.153921065 714.013219983 255.318677744 714.019798784 254.494131411 714.019798784 c 0
 192.947469603 714.019798784 191 677.365440799 191 630 c 2
 191 531 l 1
 339 531 l 1
 339 457 l 1
 191 457 l 1
 191 0 l 1
 117 0 l 1
 117 457 l 1xcc
 20 457 l 1xa4
EndSplineSet
Validated: 1
EndChar

StartChar: g
Encoding: 335 103 79
GlifName: g
Width: 554
Flags: W
HStem: -270 74<140.344 413.093> 11 74<124.085 421.923> 149 74<155.811 372.113> 459 74<157.929 380.441> 477 56<502.5 534>
VStem: 48 74<-176.54 -31 87.9633 146.13 259.919 423.39> 410.139 73.8612<260.463 427.75> 431 74<-178.305 0.397503>
LayerCount: 2
Fore
SplineSet
48 115 m 0xf5
 48 148 66 190 107 198 c 1
 63 226 49 291 49 344 c 0
 49 471 115 533 222 533 c 2xf5
 534 533 l 1
 534 477 l 1xed
 453 459 l 1
 464 438 484 417 484 344 c 0xf6
 484 284 461 149 319 149 c 2
 163 149 l 2
 147 149 122 145 122 119 c 0
 122 93 141 85 163 85 c 2
 376 85 l 2
 459 85 505 30 505 -53 c 2
 505 -116 l 2
 505 -176 486 -270 355 -270 c 2
 205 -270 l 2
 111 -270 45 -220 45 -116 c 2
 45 -31 l 1
 85 34 l 1
 57 54 48 88 48 115 c 0xf5
119 -116 m 2
 119 -189 170 -196 205 -196 c 2
 355 -196 l 2
 414 -196 431 -163 431 -116 c 2
 431 -58 l 2
 431 -11 421 11 363 11 c 2
 164 11 l 2
 133 11 119 19 119 19 c 1
 119 -116 l 2
123 344 m 0
 123 295 138 223 215 223 c 2
 313 223 l 2
 389.349151158 223 410.138807654 290.400042704 410.138807654 337.406286745 c 0xf6
 410.138807654 339.654022169 410.091271221 341.855126305 410 344 c 0
 407 414 391 459 312 459 c 2
 222 459 l 2
 140 459 123 399 123 344 c 0
EndSplineSet
Validated: 1
EndChar

StartChar: h
Encoding: 336 104 80
GlifName: h
Width: 544
Flags: W
HStem: 0 21G<60 134 420 494> 466 74<227.78 392.774> 764 20G<60 134>
VStem: 60 74<0 418.956 469 784> 420 74<0 437.431>
LayerCount: 2
Fore
SplineSet
60 0 m 5
 60 784 l 5
 134 784 l 5
 134 469 l 5
 195 504 249 540 330 540 c 4
 436 540 494 458 494 370 c 6
 494 0 l 5
 420 0 l 5
 420 370 l 6
 420 436 382 466 330 466 c 4
 250 466 211 446 134 409 c 5
 134 0 l 5
 60 0 l 5
EndSplineSet
Validated: 1
EndChar

StartChar: i
Encoding: 337 105 81
GlifName: i
Width: 197
Flags: W
HStem: 0 21G<60 134> 511 20G<60 134> 594 102<50.1465 146.837>
VStem: 50 97<594.104 695.928> 60 74<0 531>
LayerCount: 2
Fore
SplineSet
50 617 m 6xf0
 50 671 l 6
 50 686 58 696 74 696 c 6
 124 696 l 6
 139 696 147 685 147 671 c 6
 147 617 l 6
 147 602 138 594 124 594 c 6
 74 594 l 6
 60 594 50 603 50 617 c 6xf0
60 0 m 5xe8
 60 531 l 5
 134 531 l 5
 134 0 l 5
 60 0 l 5xe8
EndSplineSet
Validated: 1
EndChar

StartChar: j
Encoding: 338 106 82
GlifName: j
Width: 217
Flags: W
HStem: -270 21G<71 130.009> 511 20G<71 145> 594 102<60.1465 156.837>
VStem: 60 97<594.104 695.928> 71 74.1958<-253.213 531> 71 48<-270 -151.818>
LayerCount: 2
Fore
SplineSet
60 617 m 2xf0
 60 671 l 2
 60 686 68 696 84 696 c 2
 134 696 l 2
 149 696 157 685 157 671 c 2
 157 617 l 2
 157 602 148 594 134 594 c 2
 84 594 l 2
 70 594 60 603 60 617 c 2xf0
71 -270 m 1xe4
 71 531 l 1
 145 531 l 1
 145 -4 l 2
 145.11925824 -14.2562086707 145.195848897 -24.7115327319 145.195848897 -35.3083029594 c 0xe8
 145.195848897 -113.567197513 141.018543991 -199.540659229 119 -270 c 1
 71 -270 l 1xe4
EndSplineSet
Validated: 1
EndChar

StartChar: k
Encoding: 339 107 83
GlifName: k
Width: 500
Flags: W
HStem: 0 21G<60 134 372.03 480> 268 74<134 174> 511 20G<355.519 480> 762 20G<60 134>
VStem: 60 74<0 268 342 782>
LayerCount: 2
Fore
SplineSet
60 0 m 5
 60 782 l 5
 134 782 l 5
 134 342 l 5
 174 342 l 5
 377 531 l 5
 480 531 l 5
 244 305 l 5
 480 0 l 5
 388 0 l 5
 174 268 l 5
 134 268 l 5
 134 0 l 5
 60 0 l 5
EndSplineSet
Validated: 1
EndChar

StartChar: l
Encoding: 340 108 84
GlifName: l
Width: 300
Flags: W
HStem: 0 74<154.414 191> 0 53<191.059 280> 763 20G<60 134>
VStem: 60 74<95.4826 783>
LayerCount: 2
Fore
SplineSet
60 189 m 6x70
 60 783 l 5
 134 783 l 5
 134 189 l 6
 134 102 157 82 191 74 c 6xb0
 191 74 273 53 280 53 c 5
 280 0 l 5
 192 0 l 6
 115 0 60 48 60 189 c 6x70
EndSplineSet
Validated: 1
EndChar

StartChar: m
Encoding: 341 109 85
GlifName: m
Width: 898
Flags: W
HStem: 0 21G<60 134 414 488 774 848> 0 21G<60 134 414 488 774 848> 463 74<222.499 382.263 566.626 742.395>
VStem: 60 74<0 416.931> 414 74<0 418.709> 774 74<0 431.686>
LayerCount: 2
Fore
SplineSet
60 0 m 5xbc
 60 531 l 5
 112 531 l 5
 134 467 l 5
 195 502 244 537 323 537 c 4
 388 537 447 508 470 459 c 5
 522 502 595 537 684 537 c 4
 776 537 848 468 848 366 c 6
 848 0 l 5
 774 0 l 5
 774 366 l 6
 774 425 736 463 684 463 c 4
 605 463 554 450 488 407 c 5
 488 368 l 5
 488 0 l 5
 414 0 l 5
 414 366 l 6
 414 425 375 463 323 463 c 4
 246 463 211 444 134 407 c 5
 134 0 l 5
 60 0 l 5xbc
EndSplineSet
Validated: 1
EndChar

StartChar: n
Encoding: 342 110 86
GlifName: n
Width: 544
Flags: W
HStem: 0 21G<60 134 420 494> 466 74<227.78 392.581> 511 20G<60 119.097>
VStem: 60 74<0 418.956> 420 74<0 437.431>
LayerCount: 2
Fore
SplineSet
60 0 m 5xd8
 60 531 l 5
 112 531 l 5xb8
 134 469 l 5
 195 504 249 540 330 540 c 4
 436 540 494 458 494 370 c 6
 494 0 l 5
 420 0 l 5
 420 370 l 6
 420 436 381 466 330 466 c 4
 250 466 211 446 134 409 c 5
 134 0 l 5
 60 0 l 5xd8
EndSplineSet
Validated: 1
EndChar

StartChar: o
Encoding: 343 111 87
GlifName: o
Width: 568
Flags: W
HStem: -5 74<175.515 395.003> 462 74<173.221 396.872>
VStem: 50 74<124.237 406.335> 444 74<126.206 409.804>
LayerCount: 2
Fore
SplineSet
50 258 m 4
 50 475 110 536 284 536 c 4
 463 536 518 469 518 258 c 4
 518 61 463 -5 284 -5 c 4
 105 -5 50 68 50 258 c 4
124 258 m 4
 124 81 181 69 284 69 c 4
 392 69 444 83 444 258 c 4
 444 448 401 462 284 462 c 4
 172 462 124 449 124 258 c 4
EndSplineSet
Validated: 1
EndChar

StartChar: p
Encoding: 344 112 88
GlifName: p
Width: 554
Flags: W
HStem: -270 21G<60 132> -8 74<186.875 387.269> 463 74<224.808 383.478>
VStem: 60 72<-270 32 87.1995 425.293> 60 53<509.263 531> 430 74<115.135 402.958>
LayerCount: 2
Fore
SplineSet
60 -270 m 5xf4
 60 531 l 5
 113 531 l 5xec
 132 472 l 5
 158 491 261 537 329 537 c 4
 474 537 504 390 504 268 c 4
 504 132 480 -8 329 -8 c 4
 284 -8 196 6 132 32 c 5
 132 -270 l 5
 60 -270 l 5xf4
132 92 m 5xf4
 201 74 252 66 329 66 c 4
 393 66 430 105 430 268 c 4
 430 398 394 463 329 463 c 4
 250 463 186 439 132 417 c 5
 132 92 l 5xf4
EndSplineSet
Validated: 1
EndChar

StartChar: q
Encoding: 345 113 89
GlifName: q
Width: 555
Flags: W
HStem: -270 21G<421 495> -10 74<170.87 370.126> 463 74<175.36 419.713>
VStem: 50 73.9828<116.185 404.035> 421 74<-270 29 84.3832 463>
LayerCount: 2
Fore
SplineSet
50 268 m 0
 50 436 109 537 234 537 c 0
 340 537 448 518 495 514 c 1
 495 -270 l 1
 421 -270 l 1
 421 29 l 1
 357 3 279 -10 234 -10 c 0
 81 -10 50 110 50 268 c 0
124 268 m 0
 124 262.295081967 123.982800322 256.461166353 123.982800322 250.539701561 c 0
 123.982800322 166.158828272 127.475409836 64 234 64 c 0
 308 64 338 68 421 89 c 1
 421 463 l 1
 234 463 l 2
 127 463 124 331 124 268 c 0
EndSplineSet
Validated: 1
EndChar

StartChar: r
Encoding: 346 114 90
GlifName: r
Width: 426
Flags: W
HStem: 0 21G<60 134> 462 75<230.081 405.422>
VStem: 60 74<0 413.98> 60 52<509.682 531>
LayerCount: 2
Fore
SplineSet
60 0 m 5xe0
 60 531 l 5
 112 531 l 5xd0
 134 464 l 5
 195 499 250 537 332 537 c 4
 361 537 394 535 406 529 c 5
 406 456 l 5
 394 459 361 462 332 462 c 4
 252 462 211 441 134 404 c 5
 134 0 l 5
 60 0 l 5xe0
EndSplineSet
Validated: 1
EndChar

StartChar: s
Encoding: 347 115 91
GlifName: s
Width: 506
Flags: W
HStem: -5 74<97.198 383.312> 14 55<62 282.5> 227 74<120.694 383.578> 463 73<119.823 414.988> 463 57<216.94 439>
VStem: 40 74<307.663 456.151> 392 74<78.2272 217.859>
LayerCount: 2
Fore
SplineSet
40 358 m 2xa6
 40 404 l 2
 40 486 75 536 178 536 c 0xb6
 230 536 387 525 439 520 c 1
 439 463 l 1x2e
 178 463 l 2
 114 463 114 438 114 404 c 2
 114 358 l 2
 114 303 141 301 178 301 c 2
 336 301 l 2
 423 301 466 247 466 172 c 2
 466 123 l 2
 466 14 400 -5 336 -5 c 0xb6
 287 -5 100 10 62 14 c 1
 62 69 l 1x66
 336 69 l 1
 336 69 337.555555556 68.8333333333 340.148148148 68.8333333333 c 0
 353.111111111 68.8333333333 392 73 392 123 c 2
 392 172 l 2
 392 207 380 227 336 227 c 2
 178 227 l 2
 84 227 40 255 40 358 c 2xa6
EndSplineSet
Validated: 1
EndChar

StartChar: t
Encoding: 348 116 92
GlifName: t
Width: 378
Flags: W
HStem: 1 74<213.414 250> 1 53<250.059 339> 458 74<193 348> 458 56<20 58.5>
VStem: 119 74<96.4826 458> 137 56<622.444 680>
LayerCount: 2
Fore
SplineSet
20 458 m 5x58
 20 514 l 5x58
 119 532 l 5x28
 137 680 l 5
 193 680 l 5
 193 532 l 5x24
 348 532 l 5
 348 458 l 5
 193 458 l 5
 193 190 l 6
 193 103 216 83 250 75 c 6xa8
 250 75 332 54 339 54 c 5
 339 1 l 5
 251 1 l 6
 174 1 119 49 119 190 c 6
 119 458 l 5
 20 458 l 5x58
EndSplineSet
Validated: 1
EndChar

StartChar: u
Encoding: 349 117 93
GlifName: u
Width: 544
Flags: W
HStem: -9 74<151.419 316.22> 0 21G<424.903 484> 511 20G<50 124 410 484>
VStem: 50 74<93.5694 531> 410 74<112.044 531>
LayerCount: 2
Fore
SplineSet
50 161 m 6xb8
 50 531 l 5
 124 531 l 5
 124 161 l 6
 124 95 163 65 214 65 c 4xb8
 294 65 333 85 410 122 c 5
 410 531 l 5
 484 531 l 5
 484 0 l 5
 432 0 l 5x78
 410 62 l 5
 349 27 295 -9 214 -9 c 4
 108 -9 50 73 50 161 c 6xb8
EndSplineSet
Validated: 1
EndChar

StartChar: v
Encoding: 350 118 94
GlifName: v
Width: 536
Flags: W
HStem: 0 21G<221.128 311.023> 511 20G<20 108.867 427.038 516>
LayerCount: 2
Fore
SplineSet
20 531 m 5
 101 531 l 5
 267 109 l 5
 435 531 l 5
 516 531 l 5
 303 0 l 5
 229 0 l 5
 20 531 l 5
EndSplineSet
Validated: 1
EndChar

StartChar: w
Encoding: 351 119 95
GlifName: w
Width: 801
Flags: W
HStem: 0 21G<211.505 305.692 494.923 585.646> 511 20G<20 108.441 389.46 476 692.322 781>
LayerCount: 2
Fore
SplineSet
20 531 m 5
 101 531 l 5
 258 109 l 5
 396 531 l 5
 476 531 l 5
 422 361 l 5
 538 109 l 5
 700 531 l 5
 781 531 l 5
 578 0 l 5
 504 0 l 5
 386 260 l 5
 299 0 l 5
 219 0 l 5
 20 531 l 5
EndSplineSet
Validated: 1
EndChar

StartChar: x
Encoding: 352 120 96
GlifName: x
Width: 524
Flags: W
HStem: 0 21G<24 130.455 393.545 492> 511 20G<24 130.118 393.49 500>
LayerCount: 2
Fore
SplineSet
24 0 m 5
 216 266 l 5
 24 531 l 5
 116 531 l 5
 260 327 l 5
 408 531 l 5
 500 531 l 5
 306 263 l 5
 492 0 l 5
 408 0 l 5
 262 202 l 5
 116 0 l 5
 24 0 l 5
EndSplineSet
Validated: 1
EndChar

StartChar: y
Encoding: 353 121 97
GlifName: y
Width: 554
Flags: W
HStem: -270 21G<177 237.706> 0 74.3028<240.509 271> 511 20G<21 108.217 442.304 532>
LayerCount: 2
Fore
SplineSet
21 531 m 1
 102 531 l 1
 231 116 l 2
 242.032258065 81.064516129 264.709677419 74.3028095734 280.383035145 74.3028095734 c 0
 290.024169105 74.3028095734 297.015082 76.8613274863 297.015082 76.9946060236 c 0
 297.015082 76.9981702358 297.010082339 77 297 77 c 2
 449 531 l 1
 532 531 l 1
 298 -168 l 1
 223 -270 l 1
 177 -270 l 1
 271 0 l 1
 250 0 184 2 151 110 c 2
 21 531 l 1
EndSplineSet
Validated: 1
EndChar

StartChar: z
Encoding: 354 122 98
GlifName: z
Width: 456
Flags: W
HStem: 1 74<142 426> 457 74<30 334>
LayerCount: 2
Fore
SplineSet
30 457 m 1
 30 531 l 1
 426 531 l 1
 426 457 l 1
 142 75 l 1
 426 75 l 2
 426.333333333 74.6666666667 426.444444444 66.3333333333 426.444444444 55.3703703704 c 0
 426.444444444 33.4444444444 426 1 426 1 c 1
 45 1 l 1
 45 75 l 1
 334 457 l 1
 30 457 l 1
EndSplineSet
Validated: 1
EndChar

StartChar: bnmAA
Encoding: 355 2494 99
GlifName: bnmA_A_
Width: 200
VWidth: 0
Flags: W
HStem: 0 21G<85 159> 0 21G<85 159> 573 63.3281<-10 85 159 211>
VStem: 85 74<0 573>
AnchorPoint: "anchor0" 45 636.328 basechar 0
LayerCount: 2
Fore
SplineSet
-10 573 m 25xb0
 -10 636.328125 l 25
 45 636.328125 l 17
 88 630.701171875 l 1
 84 696.328125 l 1
 125 696.328125 l 1
 148 636.328125 l 9
 211 636.328125 l 17
 211 573 l 1
 159 573 l 25
 159 0 l 1
 85 0 l 1
 85 573 l 9
 -10 573 l 25xb0
EndSplineSet
Validated: 524289
EndChar

StartChar: bnmI
Encoding: 356 2495 100
GlifName: bnmI_
Width: 200
VWidth: 0
Flags: W
HStem: 0 21G<92 165> 0 21G<92 165> 573 63.3281<-12 79.561 165 211> 808.061 71.4396<143.687 338.853>
VStem: 62 73<640.832 797.324> 92 73<0 573>
LayerCount: 2
Fore
SplineSet
135 706 m 6xb8
 135 677 135 655.328125 162 636.328125 c 13
 211 636.328125 l 21
 211 573 l 5
 165 573 l 29
 165 0 l 5
 92 0 l 5
 92 573 l 13
 -12 573 l 29
 -12 636.328125 l 29
 14 636.328125 l 21
 92 628 l 21xb4
 65 646 62 680 62 704 c 6
 62 764 l 6
 62 851.02616028 110.844013951 879.500179613 188.3128601 879.500179613 c 4
 251.492270202 879.500179613 333.560272734 859.922623472 424 839 c 4
 558 808 707 764 707 764 c 5
 692 715 l 5
 282 797.9609375 l 6
 257.732454022 802.600618326 229.237304688 808.060546875 203.528320312 808.060546875 c 4
 165.995117188 808.060546875 135 801.104289826 135 756 c 6
 135 706 l 6xb8
EndSplineSet
Validated: 1
EndChar

StartChar: bnmII
Encoding: 357 2496 101
GlifName: bnmI_I_
Width: 238
Flags: W
HStem: 0 21G<74.3359 147.336> 0 21G<74.3359 147.336> 573 63.3281<-17.6641 72.3359 155.469 252.336> 573 55<147.336 190.203> 680 72<-460.509 -167.82> 841 74<-300.499 7.3612>
VStem: -533.664 73<753.096 827.254> -160.664 73<635 666.221> 74.3359 73<0 573 636.328 755.079>
AnchorPoint: "anchor0" -160.664 636.325 mark 0
LayerCount: 2
Fore
SplineSet
147.3359375 628 m 13x1f80
 198.3359375 636.328125 l 13
 252.3359375 636.328125 l 29
 252.3359375 573 l 29x2f80
 147.3359375 573 l 21
 147.3359375 0 l 5
 74.3359375 0 l 5
 74.3359375 573 l 29x9f80
 -17.6640625 573 l 5
 -17.6640625 636.328125 l 5
 72.3359375 636.328125 l 21x2f80
 72.3359375 703.328125 52.3359375 841 -53.6640625 841 c 4
 -145.6640625 841 -383.6640625 832 -411.6640625 830 c 4
 -459.6640625 827 -460.6640625 830 -460.6640625 783 c 4
 -460.6640625 742 -459.6640625 752 -301.6640625 752 c 4
 -141.6640625 752 -87.6640625 740 -87.6640625 635 c 13
 -160.6640625 635 l 21
 -160.6640625 680 -208.6640625 680 -327.6640625 680 c 4
 -519.6640625 680 -533.6640625 685 -533.6640625 783 c 4
 -533.6640625 882 -510.6640625 891 -420.6640625 896 c 6
 -420.6640625 896 -124.166015625 915 -72.6640625 915 c 4
 123.3359375 915 147.3359375 751 147.3359375 628 c 13x1f80
EndSplineSet
Validated: 33
Substitution2: "Single Substitution lookup 17 subtable" bnmII2
Substitution2: "Single Substitution lookup 31 subtable" bnmII3
EndChar

StartChar: bnmE
Encoding: 358 2503 102
GlifName: bnmE_
Width: 229
VWidth: 0
Flags: W
HStem: 573 63.3281<-55 100 176 242>
VStem: 19.0088 74.0781<150.225 381.965>
LayerCount: 2
Fore
SplineSet
176 573 m 5
 176 573 93.0869140625 407.01953125 93.0869140625 237.426757812 c 4
 93.0869140625 187.400390625 102.180664062 145.536132812 155.314453125 112.990234375 c 6
 290.80078125 18.2861328125 l 5
 268 -24 l 5
 268 -24 156.138328651 29.4044674149 117.08203125 52.439453125 c 4
 39.2685546875 98.3330078125 19.0087890625 152 19.0087890625 225.8984375 c 4
 19.0087890625 377.072265625 100 573 100 573 c 13
 -55 573 l 29
 -55 636.328125 l 13
 242 636.328125 l 21
 242 573 l 5
 176 573 l 5
EndSplineSet
Validated: 524289
Substitution2: "'init' Initial Forms in Bengali lookup 0 subtable" bnmE.init
Substitution2: "'init' Initial Forms in Bengali2 lookup 11 subtable" bnmE.init
EndChar

StartChar: bnmAI
Encoding: 359 2504 103
GlifName: bnmA_I_
Width: 270
VWidth: 0
Flags: W
HStem: 706 67<-140 135.644>
VStem: 60.0088 74.0781<150.912 381.503> 145 68.0039<636.328 696.676>
LayerCount: 2
Fore
SplineSet
213.00390625 636.328125 m 0
 212.990234375 714.322265625 180 773 86 773 c 0
 16 773 -144 759 -144 759 c 1
 -140 706 l 17
 -140 706 48 706 80 706 c 0
 128 706 145 690.328125 145 636.328125 c 0
 -14 636.328125 l 1
 -14 573 l 25
 141 573 l 17
 141 573 60.0087890625 376.470703125 60.0087890625 225.296875 c 0
 60.0087890625 151.3984375 80.9858141895 97.926411642 158.08203125 52.837890625 c 0
 197.2229265 29.9469480417 309 -24 309 -24 c 1
 331.80078125 18.2861328125 l 1
 196.314453125 112.388671875 l 2
 141.437446038 150.503703661 134.086914062 186.798828125 134.086914062 236.825195312 c 0
 134.086914062 406.41796875 217 573 217 573 c 1
 283 573 l 1
 283 636.328125 l 1
 213.00390625 636.328125 l 0
EndSplineSet
Validated: 524297
Substitution2: "'init' Initial Forms in Bengali lookup 0 subtable" bnmAI.init
Substitution2: "'init' Initial Forms in Bengali2 lookup 11 subtable" bnmAI.init
EndChar

StartChar: bnAUlntmk
Encoding: 362 2519 106
GlifName: bnA_U_lntmk
Width: 233
VWidth: 0
Flags: W
HStem: 0 21G<74 147> 0 21G<74 147> 573 63.3291<-10 74 147 246> 729.9 70.0996<-219.15 53.7806>
VStem: 74 73<0 573 636.329 712.29>
LayerCount: 2
Fore
SplineSet
145 636.329101562 m 13xb8
 246 636.327148438 l 21
 246 573 l 5
 147 573 l 29
 147 0 l 5
 74 0 l 5
 74.00390625 573 l 13
 -10 573 l 29
 -10 636.330078125 l 29
 16 636.328125 l 5
 74 630 l 21
 74 689 58 729.900390625 10 729.900390625 c 4
 -58 729.900390625 -332 729.900390625 -332 729.900390625 c 13
 -336 786 l 5
 -336 786 -43.0751953125 800 16 800 c 4
 115 800 145 714.329101562 145 636.329101562 c 13xb8
EndSplineSet
Validated: 1
EndChar

StartChar: bnNukta
Encoding: 363 2492 107
GlifName: bnN_ukta
Width: 0
VWidth: 0
Flags: W
HStem: -179.842 98<-204 -109>
VStem: -204 95<-179.842 -81.8418>
LayerCount: 2
Fore
SplineSet
-204 -164.841796875 m 2
 -204 -97.841796875 l 2
 -204 -84.841796875 -202 -81.841796875 -189 -81.841796875 c 2
 -125 -81.841796875 l 2
 -110 -81.841796875 -109 -84.841796875 -109 -97.841796875 c 2
 -109 -164.841796875 l 2
 -109 -179.841796875 -113 -179.841796875 -125 -179.841796875 c 2
 -189 -179.841796875 l 2
 -201 -179.841796875 -204 -176.841796875 -204 -164.841796875 c 2
EndSplineSet
Validated: 524289
EndChar

StartChar: bnmU
Encoding: 364 2497 108
GlifName: bnmU_
Width: 0
VWidth: 2048
GlyphClass: 4
Flags: W
HStem: -265 65.8203<-274.148 -190.814> -100.603 65.3525<-278.205 -191.102>
VStem: -354 64.9297<-181.385 -109.013> -131.591 71.5869<-23.3567 17.6201>
AnchorPoint: "anchor 1" -131.59 -1.49012e-09 mark 0
LayerCount: 2
Fore
SplineSet
-131.590820312 0 m 29
 -131.590820312 17.6201171875 l 5
 -60.00390625 17.6201171875 l 5
 -60.00390625 0 l 29
 -88 -102 l 5
 -60.2666015625 -117.204101562 65 -230 65 -230 c 5
 42 -261 l 5
 -108 -167 l 5
 -108 -167 -152.669921875 -265 -198 -265 c 4
 -242.43359375 -265 -354 -233.313476562 -354 -169 c 4
 -354 -137.823242188 -326.095703125 -35.25 -263.669921875 -35.25 c 4
 -223 -35.25 -152.620117188 -70.16796875 -152.620117188 -70.16796875 c 5
 -131.590820312 0 l 29
-171.190429688 -134.432617188 m 1
 -171.190429688 -134.432617188 -222 -100.602539062 -250.150390625 -100.602539062 c 0
 -274.490234375 -100.602539062 -289.0703125 -140.858398438 -289.0703125 -154.740234375 c 0
 -289.0703125 -183.025390625 -229.979492188 -199.1796875 -214.26953125 -199.1796875 c 0
 -192 -199.1796875 -171.190429688 -134.432617188 -171.190429688 -134.432617188 c 1
EndSplineSet
Validated: 524289
Substitution2: "Single Substitution lookup 29 subtable" bnmU5
Substitution2: "Single Substitution lookup 28 subtable" bnmU4
Substitution2: "Single Substitution lookup 26 subtable" bnmU3
Substitution2: "Single Substitution lookup 25 subtable" bnmU2
Substitution2: "Single Substitution lookup 24 subtable" bnmU1
EndChar

StartChar: bnmUU
Encoding: 365 2498 109
GlifName: bnmU_U_
Width: 0
VWidth: 2048
GlyphClass: 4
Flags: W
HStem: -281 72.9707<-280.014 -164.873> -108 71<-298.852 -240.557>
VStem: -377 71<-182.774 -111.919>
AnchorPoint: "anchor 1" -225 0 mark 0
LayerCount: 2
Fore
SplineSet
-152.413085938 0 m 9
 -152.413085938 17.6201171875 l 5
 -225 17.6201171875 l 1
 -225 0 l 17
 -248 -47 l 1
 -248 -47 -272 -37 -296 -37 c 0
 -346 -37 -377 -110 -377 -169 c 0
 -377 -243 -252 -281 -187 -281 c 0
 -134 -281 -83 -188 -83 -188 c 1
 73 -260 l 1
 98 -222 l 1
 98 -222 -13 -150 -69 -118 c 1
 -119 -118 l 1
 -119 -118 -162.594726562 -208.029296875 -200.65234375 -208.029296875 c 0
 -243 -208.029296875 -306 -182 -306 -157 c 0
 -306 -140.306640625 -296 -108 -271 -108 c 0
 -256 -108 -211.291015625 -123 -211.291015625 -123 c 1
 -152.413085938 0 l 9
EndSplineSet
Validated: 524297
Substitution2: "Single Substitution lookup 29 subtable" bnmUU5
Substitution2: "Single Substitution lookup 28 subtable" bnmUU4
Substitution2: "Single Substitution lookup 26 subtable" bnmUU3
Substitution2: "Single Substitution lookup 25 subtable" bnmUU2
Substitution2: "Single Substitution lookup 24 subtable" bnmUU1
EndChar

StartChar: bnmvR
Encoding: 366 2499 110
GlifName: bnmvR_
Width: 0
VWidth: 2048
GlyphClass: 4
Flags: W
VStem: -162 73<-5 21>
AnchorPoint: "anchor 1" -162 -5 mark 0
LayerCount: 2
Fore
SplineSet
38 -327 m 1
 -336 -172 l 1
 -345 -99 l 1
 -162 -5 l 1
 -162 21 l 25
 -89 21 l 1
 -89 -46 l 1
 -242 -127 l 1
 -242 -127 -33.3642578125 -225.096679688 62 -281 c 1
 38 -327 l 1
EndSplineSet
Validated: 524289
Substitution2: "Single Substitution lookup 26 subtable" bnmvR3
Substitution2: "Single Substitution lookup 25 subtable" bnmvR2
Substitution2: "Single Substitution lookup 24 subtable" bnmvR1
EndChar

StartChar: bnOne
Encoding: 369 2535 113
GlifName: bnO_ne
Width: 563
Flags: W
HStem: -2.06487 83.3217<233.942 357.939>
VStem: 423 84<150.64 277.222>
LayerCount: 2
Fore
SplineSet
264 522 m 0
 283.314981055 470.493383854 507 331 507 240 c 0
 507 144.182617188 423 -2.06486543924 303.839096082 -2.06486543924 c 0
 256.890671173 -2.06486543924 206.002131675 17.412249477 161 50 c 0
 106 90 44 145 44 145 c 1
 86 201 l 1
 86 201 147 159 199 126 c 0
 227.021484375 108.23046875 259.989257812 81.2568359375 294.919921875 81.2568359375 c 0
 378.638671875 81.2568359375 423 168.129882812 423 230 c 0
 423 302 221 415 193 493 c 0
 178 537 183 652 183 652 c 1
 241 659 l 1
 241 659 249 562 264 522 c 0
EndSplineSet
Validated: 524321
EndChar

StartChar: bnTwo
Encoding: 370 2536 114
GlifName: bnT_wo
Width: 596
VWidth: 0
Flags: W
VStem: 420.53 89.8055<349.917 438.056>
LayerCount: 2
Fore
SplineSet
467 299 m 4
 398.677734375 232.396484375 266 204 266 204 c 5
 517 29 l 5
 487 -27 l 5
 487 -27 269.48046875 74.654296875 67 240 c 13
 109 307 l 5
 173 265 l 5
 173 265 328.066533792 290.469500759 399 350 c 4
 414.586891904 363.081208438 420.529674597 378.171978161 420.529674597 392.859087938 c 4
 420.529674597 425.152257715 391.599609375 448.706054688 368 464 c 4
 338.044921875 483.413085938 125 623 125 623 c 13
 153 675 l 5
 153 675 329.854672796 590.19342506 413 531 c 4
 445.30942669 507.998038352 510.335127307 465.879580726 510.335127307 387.750667249 c 4
 510.335127307 360.34082274 497.360351562 328.596679688 467 299 c 4
EndSplineSet
Validated: 1
EndChar

StartChar: bnThree
Encoding: 371 2537 115
GlifName: bnT_hree
Width: 825
VWidth: 0
Flags: W
HStem: 17 85<366.274 530.711> 513 78<322.293 612.556>
VStem: 668 86.5068<268.883 460.258>
LayerCount: 2
Fore
SplineSet
538 591 m 4
 686 591 754.506835938 493.797851562 754.506835938 396.236328125 c 4
 754.506835938 250.737304688 677 17 448 17 c 4
 368 17 289.287109375 60.6552734375 211 159 c 4
 120.338867188 272.889648438 60 397 60 397 c 5
 107 429 l 5
 258 227 l 6
 322.295898438 140.98828125 382 102 446 102 c 4
 599 102 668 268 668 393 c 4
 668 473 605 513 517 513 c 4
 459.6640625 513 267 493 267 493 c 5
 256 556 l 5
 256 556 403.198242188 591 538 591 c 4
EndSplineSet
Validated: 1
EndChar

StartChar: bnFour
Encoding: 372 2538 116
GlifName: bnF_our
Width: 680
Flags: W
HStem: -1 79<167.351 489.619> 310 82<194.086 465.622> 557 79<194.68 466.189>
VStem: 72 87<87.7168 302.281> 103 85<398.796 549.366> 471 85<398.391 548.994> 499 85<88.0996 301.179>
LayerCount: 2
Fore
SplineSet
419 392 m 6xec
 445 392 471 402 471 436 c 6
 471 511 l 6
 470 547 452 557 420 557 c 6
 240 557 l 6
 208 557 189 547 188 511 c 6
 188 435 l 6
 188 402 214 392 240 392 c 6
 419 392 l 6xec
435 636 m 6
 497 636 556 622 556 518 c 6
 556 456 l 22xec
 556 422 553 376 517 362 c 5
 559 349 583 326 584 279 c 6
 584 124 l 6
 584 123 584 121 584 120 c 4
 584 27 552 -1 451 -1 c 6
 211 -1 l 6
 128 -1 72 21 72 122 c 6
 72 274 l 6xf2
 72 321 104 350 146 363 c 5
 106 377 103 422 103 456 c 6
 103 520 l 6
 103 618 166 636 236 636 c 6
 435 636 l 6
159 125 m 6xf2
 159 82 193 78 227 78 c 6
 431 78 l 6
 486 78 499 98 499 126 c 6
 499 259 l 6
 499 292 484 310 431 310 c 6
 227 310 l 6
 185 310 159 302 159 257 c 6
 159 125 l 6xf2
EndSplineSet
Validated: 1
EndChar

StartChar: bnSix
Encoding: 373 2540 117
GlifName: bnS_ix
Width: 725
VWidth: 0
Flags: W
HStem: 0 79<304.444 447.066> 347 78<376.954 583.694>
VStem: 302 73<415 614> 589 79<236.345 340.968>
LayerCount: 2
Fore
SplineSet
302 614 m 25
 375 614 l 25
 375 415 l 1
 375 415 467.735351562 425 527 425 c 0
 630 425 668 385 668 307 c 0
 668 210 549 0 374 0 c 0
 320 0 267.333007812 21.619140625 204 94 c 0
 113 198 44 394 44 394 c 1
 91 416 l 1
 91 416 191 233 255 147 c 0
 290.500976562 99.2958984375 335 79 371 79 c 0
 501 79 589 246 589 306 c 0
 589 341 564 347 517 347 c 0
 470.732421875 347 302 334 302 334 c 9
 302 614 l 25
EndSplineSet
Validated: 524289
EndChar

StartChar: bnNine
Encoding: 374 2543 118
GlifName: bnN_ine
Width: 688
Flags: W
HStem: 0 21G<335 387> 0 21G<335 387> 256.829 75.165<171.857 279.198>
VStem: 539 83<198.693 307.179>
LayerCount: 2
Fore
SplineSet
335 0 m 1xb0
 335 0 329.576171875 92.744140625 310 166 c 0
 297.944335938 211.112304688 279.290039062 256.829101562 237.864257812 256.829101562 c 0
 217.762695312 256.829101562 187.666787712 242.833393856 170 234 c 0
 115.313368821 209.586325367 134.962890625 164.282226562 156 118 c 0
 172 82 177 71 177 71 c 9
 128 43 l 1
 128 43 80 113 73 131 c 0
 39.5546875 210.4296875 61.2978515625 266.02734375 144 303 c 0
 183.541015625 320.752929688 213.314453125 331.994140625 245.931640625 331.994140625 c 0
 300.48828125 331.994140625 335.701171875 298.166015625 360 250 c 0
 382.19921875 205.994140625 396 107 396 107 c 1
 419 107 539 187.461914062 539 250 c 0
 539 352 225 617 225 617 c 1
 262 663 l 1
 546 432 622 340 622 250 c 0
 622 130 439 0 335 0 c 1xb0
EndSplineSet
Validated: 524321
EndChar

StartChar: bnEight
Encoding: 375 2542 119
GlifName: bnE_ight
Width: 655
VWidth: 0
Flags: W
HStem: 0 78<141.163 262.588> 355 78<178.843 424.14>
VStem: 46 77<99.0234 336 401 636> 432 79.4512<244.237 346.298>
LayerCount: 2
Fore
SplineSet
123 336 m 13
 123 172 l 5
 123 112 143 78 192 78 c 4
 255 78 338 144 400 229 c 4
 424 262 432 288 432 307 c 4
 432 343 401.999016677 354.769568882 375 355 c 4
 336.387217138 355.329552251 123 336 123 336 c 13
46 636 m 13
 123 636 l 21
 123 401 l 21
 123 401 146.68359375 405.883789062 184 412 c 4
 315.084960938 433.485351562 371 431 421 433 c 4
 450 434 626 474 626 474 c 5
 636 428 l 5
 636 428 588.028320312 397.000976562 497 367 c 5
 497 367 511.451171875 353.219726562 511.451171875 315.05078125 c 4
 511.451171875 285.383789062 500.263671875 254.807617188 486 230 c 4
 415 106 295 0 184 0 c 4
 119 0 46 37 46 159 c 6
 46 636 l 13
EndSplineSet
Validated: 33
EndChar

StartChar: bnSeven
Encoding: 376 2541 120
GlifName: bnS_even
Width: 548
VWidth: 0
Flags: W
HStem: 239 77<123.435 389.914> 557 75<258.394 374.392>
VStem: 33 77<328.323 426.48> 390 75<34.5557 248 316 541.362>
LayerCount: 2
Fore
SplineSet
390 97 m 0
 390 148.002929688 390 248 390 248 c 5
 390 248 272 239 158 239 c 0
 79 239 33 293 33 369 c 0
 33 398 44.12109375 431.92578125 57 453 c 0
 134 579 258 632 329 632 c 0
 394 632 465 594.999023438 465 473 c 1
 465 473 465 137 465 117 c 0
 465 72 497.9375 8.9873046875 497.9375 8.9873046875 c 1
 456 -21 l 1
 456 -21 390 29 390 97 c 0
390 316 m 1
 390 462 l 1
 390 522 377 557 325 557 c 0
 283 557 199 508 148 448 c 0
 121.772460938 417.14453125 110 389 110 370 c 0
 110 334 141 316 168 316 c 0
 241.821289062 316 390 316 390 316 c 1
EndSplineSet
Validated: 524289
EndChar

StartChar: bnZero
Encoding: 377 2534 121
GlifName: bnZ_ero
Width: 600
Flags: W
HStem: 32 76<195.879 409.137> 497 76<196.316 409.753>
VStem: 68 85<155.116 449.748> 451 85<154.01 452.934>
LayerCount: 2
Fore
SplineSet
68 295 m 4
 68 512 128 573 302 573 c 4
 481 573 536 506 536 295 c 4
 536 98 481 32 302 32 c 4
 123 32 68 105 68 295 c 4
153 295 m 4
 153 118 199 108 302 108 c 4
 410 108 451 120 451 295 c 4
 451 485 419 497 302 497 c 4
 190 497 153 486 153 295 c 4
EndSplineSet
Validated: 1
EndChar

StartChar: bnFive
Encoding: 378 2539 122
GlifName: bnF_ive
Width: 585
VWidth: 0
Flags: W
VStem: 53.1836 82.3916<84.816 487.661> 371 67<262.928 412.574> 443.941 86.2314<144.348 204.256>
LayerCount: 2
Fore
SplineSet
156 662 m 1
 151 586 l 1
 426 507 l 1
 467 588 l 1
 514 572 l 1
 514 572 438 377 438 311 c 0
 438 258.59375 530.172851562 205.259765625 530.172851562 171.206054688 c 0
 530.172851562 83 184.552734375 -75.8466796875 98 27 c 0
 69.8232421875 60.48046875 53.18359375 127 53.18359375 233.508789062 c 0
 53.18359375 425.5703125 103 666 103 666 c 1
 156 662 l 1
400 442 m 1
 148 512 l 1
 148 512 135.575195312 358.036132812 135.575195312 247.2734375 c 0
 135.575195312 177.34375 138.09765625 105.501953125 153 88 c 0
 209.772460938 21.3232421875 443.94140625 132 443.94140625 172.384765625 c 0
 443.94140625 191.052734375 371 245.73046875 371 293 c 4
 371 335 400 442 400 442 c 1
EndSplineSet
Validated: 524321
EndChar

StartChar: bnCandrabindu
Encoding: 379 2433 123
GlifName: bnC_andrabindu
Width: 0
VWidth: 0
GlyphClass: 4
Flags: W
AnchorPoint: "anchor0" -157 636 mark 0
LayerCount: 2
Fore
SplineSet
-270 763 m 1
 -232 806 l 1
 -232 806 -142 723 -103.416015625 721.916015625 c 0
 -97.9220895743 721.761668424 -92.787109375 723.208007812 -88 726 c 0
 -47.28515625 749.744140625 42 835 42 835 c 9
 74 804 l 1
 74 804 18.689453125 731.8359375 -31 689 c 0
 -60 664 -73.9587562958 654.526679012 -107.16796875 656.862304688 c 0
 -166 661 -270 763 -270 763 c 1
-111 771 m 2
 -142 795 l 2
 -150 801 -152 809 -146 817 c 2
 -122 849 l 2
 -116 857 -107 857 -99 851 c 2
 -68 828 l 2
 -59 821 -60 813 -65 806 c 2
 -89 774 l 2
 -95 767 -103 766 -111 771 c 2
EndSplineSet
Validated: 524321
Substitution2: "Single Substitution lookup 17 subtable" bnCandrabindu2
EndChar

StartChar: bnAnusvara
Encoding: 380 2434 124
GlifName: bnA_nusvara
Width: 445
Flags: W
HStem: 219 69.3058<92.3128 232.465> 359 60<164.925 284.002> 569 60<166.312 283.334>
VStem: 92 66<424.855 562.455> 291 66<424.09 562.455>
LayerCount: 2
Fore
SplineSet
88 279 m 1
 91.6103884604 279.369244274 166.895998486 288.305783288 185.775166813 288.305783288 c 0
 232.555911955 288.305783288 292.186773245 267.223973494 337 186 c 0
 358 146 412 62 431 -17 c 1
 388 -33 l 1
 275 149 l 2
 236 212 193 219 167 219 c 0
 142.860982965 219 93 213 93 213 c 1
 88 279 l 1
92 490 m 4
 92 608 138 629 224 629 c 4
 314 629 357 608 357 490 c 4
 357 383 314 359 224 359 c 4
 135 359 92 386 92 490 c 4
158 490 m 4
 158 420 175 419 224 419 c 4
 278 419 291 421 291 490 c 4
 291 568 275 569 224 569 c 4
 176 569 158 568 158 490 c 4
EndSplineSet
Validated: 1
EndChar

StartChar: bnVisarga
Encoding: 381 2435 125
GlifName: bnV_isarga
Width: 445
Flags: W
HStem: 9 60<165.013 283.999> 219 59.4912<166.294 283.331> 359.342 59.6582<165.013 283.999> 569 59.833<166.294 283.331>
VStem: 92.1709 65.8291<74.8104 212.352 424.981 562.523> 291 66.3799<73.9419 212.322 424.113 562.493>
LayerCount: 2
Fore
SplineSet
158 140 m 0
 158 70 175 69 224 69 c 0
 278 69 291 71 291 140 c 0
 291 218 275 219 224 219 c 0
 176 219 158 218 158 140 c 0
158 490 m 0
 158 420 175 419 224 419 c 0
 278 419 291 421 291 490 c 0
 291 568 275 569 224 569 c 0
 176 569 158 568 158 490 c 0
92.1708984375 140.006835938 m 0
 92.1708984375 257.693359375 137.551757812 278.491210938 224.299804688 278.491210938 c 0
 313.54296875 278.491210938 357.379882812 257.552734375 357.379882812 140.006835938 c 0
 357.379882812 32.2900390625 313.54296875 9 224.299804688 9 c 0
 135.05859375 9 92.1708984375 35.7802734375 92.1708984375 140.006835938 c 0
92.1708984375 490.348632812 m 0
 92.1708984375 608.03515625 137.551757812 628.833007812 224.299804688 628.833007812 c 0
 313.54296875 628.833007812 357.379882812 607.89453125 357.379882812 490.348632812 c 0
 357.379882812 382.631835938 313.54296875 359.341796875 224.299804688 359.341796875 c 0
 135.05859375 359.341796875 92.1708984375 386.122070312 92.1708984375 490.348632812 c 0
EndSplineSet
Validated: 1
EndChar

StartChar: bnVirama
Encoding: 382 2509 126
GlifName: bnV_irama
Width: 0
VWidth: 2048
Flags: W
HStem: -231 218.148
VStem: -199 277
AnchorPoint: "anchor 1" -195 0 mark 0
LayerCount: 2
Fore
SplineSet
-162.615234375 -12.8515625 m 5
 -162.615234375 -12.8515625 -153.416816453 -18.3920700748 -117 -44 c 4
 -43.0169524943 -96.0241163478 20 -143 78 -194 c 5
 50 -231 l 5
 -199 -76 l 5
 -162.615234375 -12.8515625 l 5
EndSplineSet
Validated: 1
Substitution2: "Single Substitution lookup 26 subtable" bnVirama3
Substitution2: "Single Substitution lookup 25 subtable" bnVirama2
Substitution2: "Single Substitution lookup 24 subtable" bnVirama1
EndChar

StartChar: bnTAkhanda
Encoding: 383 2510 127
GlifName: bnT_A_khanda
Width: 500
VWidth: 0
Flags: W
HStem: 559 78<173.456 357.097>
VStem: 70 81<368.022 535.143> 354.045 67.9551<40.8916 188.789>
AnchorPoint: "anchor0" 162 637.328 basechar 0
LayerCount: 2
Fore
SplineSet
413 545 m 1
 413 545 251 559 218 559 c 0
 160 559 151 500 151 403 c 0
 151 320 422 307.974980048 422 183 c 0
 422 107 386 -15 386 -15 c 5
 331 -6 l 1
 331 -6 354.044921875 106.173250578 354.044921875 156.09765625 c 0
 354.044921875 233.015322079 70 256 70 382 c 0
 70 531 83 637 194 637 c 0
 295 637 422 599 422 599 c 1
 413 545 l 1
EndSplineSet
Validated: 1
LCarets2: 2 0 0
Ligature2: "'half' Half Forms in Bengali2 lookup 7 subtable" bnTA bnVirama uni200D
Ligature2: "'half' Half Forms in Bengali lookup 6 subtable" bnTA.half bnVirama uni200D
EndChar

StartChar: NameMe.65536
Encoding: 384 -1 128
GlifName: N_ameM_e.65536
Width: 633
VWidth: 2048
Flags: W
HStem: 0 48<132 495> 648 48<132 495>
VStem: 84 48<48 648> 495 48<48 648>
LayerCount: 2
Fore
SplineSet
84 696 m 1
 543 696 l 1
 543 0 l 1
 84 0 l 1
 84 696 l 1
132 48 m 1
 495 48 l 1
 495 648 l 1
 132 648 l 1
 132 48 l 1
EndSplineSet
Validated: 1
EndChar

StartChar: bnK_SSA
Encoding: 412 -1 156
GlifName: bnK__S_S_A_
Width: 960
VWidth: 0
Flags: W
HStem: 0 21G<584 657> 0 21G<584 657> 377 69<488.134 584 657 820.29> 573 63.3281<-14 219 284 429 487 584 657 970>
VStem: 244 71<496.381 563.83> 584 73<0 158 221 377 446 573>
AnchorPoint: "anchor 1" 584 0 basechar 0
AnchorPoint: "anchor0" 721 636 basechar 0
LayerCount: 2
Fore
SplineSet
657 377 m 25xbc
 657 0 l 1
 584 0 l 9
 584 158 l 17
 584 158 356.708007812 236.09765625 306 253 c 0
 281.97265625 261.008789062 268.510742188 258.670898438 252 232 c 0
 237.578125 207.482421875 235.983398438 190.009765625 255 173 c 0
 293.708007812 138.377929688 322 112 322 112 c 1
 291 70 l 1
 291 70 239 94 205 126 c 0
 157.215820312 170.973632812 154.118164062 209.15625 190 270 c 0
 222 324 251 329 278 329 c 0
 295 329 330 316 330 316 c 1
 330 316 347 350 336.5859375 367.35546875 c 0
 328.521484375 380.794921875 207 435 166 450 c 0
 149.534179688 456.024414062 135.528320312 456.741210938 125 437 c 0
 115.833007812 419.975585938 118.165039062 405.747070312 132 393 c 0
 158.168945312 368.889648438 170 356 170 356 c 1
 147 317 l 1
 147 317 118 331 82 359 c 0
 50.720703125 383.328125 41.8466796875 421.629882812 70 468 c 0
 92 507 112 526 141 526 c 0
 169.764648438 526 231 496 231 496 c 1
 231 496 244 515 244 531 c 0
 244 546 219 573 219 573 c 1
 -14 573 l 1
 -14 636.328125 l 1
 970 636.328125 l 1
 970 573 l 25
 657 573 l 1
 657 446 l 25
 783 446 l 2
 908 446 928 333 876 245 c 0
 850.973632812 202.6484375 793 143 793 143 c 1
 744 174 l 17
 810 274 l 2
 844.030273438 325.560546875 835.83203125 377 771 377 c 2
 657 377 l 25xbc
584 446 m 25
 584 573 l 25
 487 573 l 17
 487 573 487 516 487 474 c 0
 487 451.977539062 502 446 515 446 c 1
 584 446 l 25
584 377 m 1
 525 377 458.231445312 377.69140625 432 423 c 0
 410 461 429 573 429 573 c 9
 284 573 l 17
 284 573 315 547 315 518 c 0
 315 498 296 469 296 469 c 1
 296 469 388.3359375 415.162109375 407.084960938 385.0234375 c 0
 423.651367188 358.39453125 396 297 396 297 c 1
 584 221 l 1
 584 377 l 1
EndSplineSet
Validated: 524321
LCarets2: 2 0 0
Ligature2: "'akhn' Akhand lookup 2 subtable" bnKA bnVirama bnSSA
EndChar

StartChar: bnJ_NYA
Encoding: 413 -1 157
GlifName: bnJ__N_Y_A_
Width: 950
VWidth: 0
Flags: W
HStem: 26.6436 74.3564<332.264 468.354> 103 70<626.841 812.28> 275 60<731 808.655> 316 73<391.294 506> 435 78<718.022 811.135> 573 63.3281<-15 350.055 420.055 962>
VStem: 593.443 79.5586<222.29 310.224> 814 71<174.728 269.398 340.44 432.106>
AnchorPoint: "anchor 1" 376 35 basechar 0
AnchorPoint: "anchor0" 739 637 basechar 0
LayerCount: 2
Fore
SplineSet
420.0546875 572.98046875 m 1xdf
 417 555 l 1
 582 409 l 1
 582 409 710 513 790 513 c 0
 846.732421875 513 884 480.778320312 884 394 c 0
 884 361 882 314 841 308 c 1
 884.09375 300.642578125 885 250.932617188 885 215 c 0
 885 106 813.708007812 103 759 103 c 0
 673 103 578 118 578 118 c 1
 578 118 541.23046875 88.76953125 524 74 c 0
 489 44 443.969726562 26.6435546875 393.94921875 26.6435546875 c 0
 340.586914062 26.6435546875 276 48 212 138 c 0
 146.575195312 230.002929688 75 428 75 428 c 1
 122 446 l 1
 122 446 224.321289062 253.297851562 278 178 c 0
 312.610351562 129.450195312 353.37890625 101 394 101 c 0
 440.852539062 101 468.612304688 120.334960938 491 140 c 0
 565 205 593.443359375 243 593.443359375 277 c 0
 593.443359375 303.608398438 578.7265625 316 525 316 c 0
 471 316 307 293 307 293 c 9
 350.0546875 572.98046875 l 1
 -15 573 l 1
 -15 636.328125 l 1
 962 636.328125 l 1
 962 573 l 1
 420.0546875 572.98046875 l 1xdf
506 389 m 1
 405 480 l 1
 388.9453125 370 l 1
 388.9453125 370 453 389 506 389 c 1
626 173 m 9
 776 173 l 2
 805.993164062 173 814 182 814 214 c 0
 814 259.244140625 804.763671875 275 761 275 c 2
 731 275 l 17
 731 335 l 9
 761 335 l 2xef
 798 335 814 346 814 384 c 0
 814 420.76953125 810.543945312 435 777 435 c 0
 762 435 742.483599664 427.09587889 718 414 c 2
 632 368 l 1
 632 368 673.001953125 348 673.001953125 286.791992188 c 0
 673.001953125 232.57421875 626 173 626 173 c 9
EndSplineSet
Validated: 524289
LCarets2: 2 0 0
Ligature2: "'akhn' Akhand lookup 2 subtable" bnJA bnVirama bnNYA
EndChar

StartChar: bnReph
Encoding: 414 -1 158
GlifName: bnR_eph
Width: 0
VWidth: 2048
GlyphClass: 4
Flags: W
HStem: 652.612 229.966
VStem: -208.544 293.839
AnchorPoint: "anchor0" -296 653 mark 0
LayerCount: 2
Fore
SplineSet
-208.543945312 704.838867188 m 1
 -208.543945312 704.838867188 -201.334554703 712.726620516 -164.298828125 739.693359375 c 0
 -90.3306321756 793.551652659 -7.6767578125 844.537109375 59.5390625 882.578125 c 1
 85.294921875 843.981445312 l 1
 -163.018554688 652.612304688 l 1
 -208.543945312 704.838867188 l 1
EndSplineSet
Validated: 1
LCarets2: 1 0
Ligature2: "'rphf' Reph Form lookup 3 subtable" bnRA bnVirama
EndChar

StartChar: bnRAc2
Encoding: 415 -1 159
GlifName: bnR_A_c2
Width: 0
VWidth: 0
GlyphClass: 4
Flags: W
HStem: -228 73<-461.254 -276.985>
VStem: -157 73<-228 -144 -68 99>
LayerCount: 2
Fore
SplineSet
-157 -144 m 5
 -157 -144 -269.475585938 -228 -374 -228 c 4
 -417 -228 -505 -228 -566 -139 c 4
 -591.715820312 -101.48046875 -616 -41 -636 26 c 5
 -594 48 l 5
 -512 -83 l 6
 -467.071289062 -154.77734375 -399 -155 -371 -155 c 4
 -280.122070312 -155 -157 -68 -157 -68 c 5
 -157 99 l 5
 -84 134 l 13
 -84 -228 l 5
 -157 -228 l 5
 -157 -144 l 5
EndSplineSet
Validated: 1
LCarets2: 1 0
Ligature2: "'blwf' Below Base Forms in Bengali2 lookup 5 subtable" bnVirama bnRA
Ligature2: "'blwf' Below Base Forms in Bengali2 lookup 5 subtable" bnVirama asRA
Ligature2: "'blwf' Below Base Forms in Bengali lookup 4 subtable" asRA bnVirama
Ligature2: "'blwf' Below Base Forms in Bengali lookup 4 subtable" bnRA bnVirama
EndChar

StartChar: bnBAc2
Encoding: 416 -1 160
GlifName: bnB_A_c2
Width: 0
VWidth: 0
GlyphClass: 4
Flags: W
VStem: -177 73.5938<-205 0>
LayerCount: 2
Fore
SplineSet
-103.40625 -289.99609375 m 21
 -177 -290 l 5
 -426 -116 l 5
 -426 -25 l 5
 -176 78 l 29
 -103.40625 78 l 29
 -103.40625 -289.99609375 l 21
-177 -205 m 29
 -177 0 l 29
 -358 -75 l 29
 -177 -205 l 29
EndSplineSet
Validated: 1
LCarets2: 1 0
Ligature2: "'blwf' Below Base Forms in Bengali2 lookup 5 subtable" bnVirama bnBA
Ligature2: "'blwf' Below Base Forms in Bengali lookup 4 subtable" bnBA bnVirama
EndChar

StartChar: bnKA.half
Encoding: 417 -1 161
GlifName: bnK_A_.half
Width: 635
VWidth: 0
GlyphClass: 3
Flags: W
HStem: 573 63.3281<-12 312 385 647>
VStem: 312 74<212.25 465 542 572.994> 552.146 73.5596<321.065 418.688>
LayerCount: 2
Fore
SplineSet
386 465 m 5
 386 123 l 1
 312 123 l 1
 36 341 l 1
 36 429 l 1
 312 542 l 25
 312 573 l 1
 -12 573 l 1
 -12 636.328125 l 1
 647 636.328125 l 1
 647 572.998046875 l 1
 385 572.994140625 l 25
 385 538 l 5
 526 500 l 6
 580.275390625 486.158203125 625.705078125 443.88671875 625.705078125 378.375976562 c 4
 625.705078125 357.4765625 622.153320312 332.643554688 607 307 c 4
 581 263 537 215 537 215 c 5
 487 246 l 5
 531 322 l 6
 544.403320312 344.143554688 552.145507812 365.150390625 552.145507812 376.802734375 c 4
 552.145507812 409.979492188 529.828125 428.26171875 475 441 c 6
 386 465 l 5
312 212.25 m 25
 312 467 l 25
 104 377 l 25
 312 212.25 l 25
EndSplineSet
Validated: 1
LCarets2: 1 0
Ligature2: "'half' Half Forms in Bengali2 lookup 7 subtable" bnKA bnVirama
Ligature2: "'half' Half Forms in Bengali lookup 6 subtable" bnKA bnVirama
EndChar

StartChar: bnGA.half
Encoding: 419 -1 163
GlifName: bnG_A_.half
Width: 360
VWidth: 0
GlyphClass: 3
Flags: W
HStem: 549.388 75.3906<129.965 279.181>
VStem: 15.8506 86.9395<445.386 520.574> 220.035 73.0049<259.192 339.464>
LayerCount: 2
Fore
SplineSet
401.837890625 564 m 17
 401.837890625 564 254.265265088 624.778320312 159.793945312 624.778320312 c 0
 133.889648438 624.778320312 114 622 91 603 c 0
 71.3520994551 586.769125637 15.8505859375 503.37678978 15.8505859375 448.177734375 c 0
 15.8505859375 391.694335938 129.75 368.682617188 191 344 c 0
 213.856760258 334.476349892 220.03515625 306.245436484 220.03515625 286.23828125 c 0
 220.03515625 264.698242188 95 182 95 182 c 1
 125 135 l 1
 125 135 293.040039062 221 293.040039062 263.68359375 c 0
 293.040039062 295.348632812 279.759765625 348.624023438 275 361 c 0
 266 386 254 397 216 412 c 0
 159.537109375 435.140625 102.790039062 442.001953125 102.790039062 469.06640625 c 0
 102.790039062 496.487304688 138.791992188 549.387695312 160.770507812 549.387695312 c 0
 188 549.387695312 242.241210938 536.090820312 265 531 c 0
 375 507 l 1
 401.837890625 564 l 17
EndSplineSet
Validated: 9
LCarets2: 1 0
Ligature2: "'half' Half Forms in Bengali2 lookup 7 subtable" bnGA bnVirama
Ligature2: "'half' Half Forms in Bengali lookup 6 subtable" bnGA bnVirama
EndChar

StartChar: bnNGA.half
Encoding: 421 -1 165
GlifName: bnN_G_A_.half
Width: 590
GlyphClass: 3
Flags: W
HStem: 123 74<235.671 379.791> 340 72<299.079 489.021> 443 62<299 432.887> 573 63.3281<-10 236 495 601> 583 53.3281<303.119 436.397>
VStem: 228 71<396 443 505 572.172> 437 61<509.544 572.772> 491 72<272.518 335.597>
LayerCount: 2
Fore
SplineSet
236 573 m 5xf5
 -10 573 l 5
 -10 636.328125 l 5
 601 636.328125 l 5
 601 573 l 5
 495 573 l 21
 495 573 497.891139968 562.564528136 498 544 c 5xf6
 498 479 490 443 413 443 c 6
 299 443 l 5
 299 396 l 5
 299 396 407.896143602 412 450 412 c 4
 527 412 563 374 563 321 c 4
 563 236.555252557 482 180 400 145 c 4
 363.801757812 129.549804688 337 123 296 123 c 4
 252 123 182.760742188 141.854492188 139 214 c 4
 65 336 44 439 44 439 c 5
 91 458 l 5
 91 458 146 351 191 270 c 4
 221 216 262 197 299 197 c 4
 322.0703125 197 341.01171875 202.969726562 367 213 c 4
 432.020507812 238.095703125 491 273.061523438 491 313 c 4
 491 333 471 339 429 340 c 4
 400 340 228 340 228 340 c 13
 228 521 l 6
 228 553.537224454 236 573 236 573 c 5xf5
299 505 m 5
 390 505 l 6
 422 505 437 517 437 542 c 5
 437 582 437 583 365 583 c 4xee
 303.251953125 583 299 582.650390625 299 505 c 5
EndSplineSet
Validated: 1
LCarets2: 1 0
Ligature2: "'half' Half Forms in Bengali2 lookup 7 subtable" bnNGA bnVirama
Ligature2: "'half' Half Forms in Bengali lookup 6 subtable" bnNGA bnVirama
EndChar

StartChar: bnCA.half
Encoding: 422 -1 166
GlifName: bnC_A_.half
Width: 575
VWidth: 0
GlyphClass: 3
Flags: W
HStem: 134 75<170.835 302.606> 573 63.3281<-10 80 153 584>
VStem: 80 73<224.637 464.205 516 573> 439 72<321.198 409.448>
LayerCount: 2
Fore
SplineSet
153 464.205078125 m 13
 153 304 l 5
 153 244 169 209 218 209 c 4
 260 209 343 235 404 305 c 4
 430.60546875 335.53125 439 353 439 372 c 4
 439 414.706054688 398.252929688 417.693359375 359 425 c 4
 251.380859375 445.033203125 153 464.205078125 153 464.205078125 c 13
153 516 m 29
 153 516 225.327148438 508.337890625 262 504 c 4
 355 493 383 489.985379156 406 485.205078125 c 4
 476.172095007 470.620567772 511 445.766601562 511 386 c 4
 511 357 501.151367188 325.504882812 489 306 c 4
 414.010742188 185.627929688 291 134 214 134 c 4
 149 134 80 171 80 293 c 6
 80 573 l 5
 -10 573 l 5
 -10 636.328125 l 5
 584 636.328125 l 5
 584 573 l 5
 153 573 l 21
 153 516 l 29
EndSplineSet
Validated: 1
LCarets2: 1 0
Ligature2: "'half' Half Forms in Bengali lookup 6 subtable" bnCA bnVirama
EndChar

StartChar: bnTTA.half
Encoding: 427 -1 171
GlifName: bnT_T_A_.half
Width: 571
VWidth: 0
GlyphClass: 3
Flags: W
HStem: 134 75<164.835 285.55> 427 62<256 423.822> 573 63.3281<-13 74 147 404 474 582> 705 67<117.794 392.718>
VStem: 74 73<224.637 573> 404 70<636.328 696.525> 435 71<328.945 413.033>
LayerCount: 2
Fore
SplineSet
147 304 m 5xfc
 147 244 163 209 212 209 c 4
 254 209 339.176757812 249.775390625 392 305 c 4
 414 328 435 350 435 381 c 4
 435 426 362 427 321 427 c 4
 296.909179688 427 256 427 256 427 c 5
 250 481 l 5
 250 481 333 489 368 489 c 4
 456.8828125 489 506 446.147460938 506 381 c 4xfa
 506 351 489.357092595 317.699929633 476 299 c 4
 396 187 279 134 208 134 c 4
 143 134 74 171 74 293 c 6
 74 573 l 5
 -13 573 l 5
 -13 636.328125 l 5
 404 636.328125 l 21
 404 690.328125 388 705 340 705 c 4
 243.678710938 705 47 705 47 705 c 13
 43 758 l 5
 43 758 287.67348719 771.856055521 346 772 c 4
 439.999713744 772.231982664 474 714.328125 474 636.328125 c 13
 582 636.328125 l 5
 582 573 l 5
 147 573 l 5
 147 304 l 5xfc
EndSplineSet
Validated: 33
LCarets2: 1 0
Ligature2: "'half' Half Forms in Bengali2 lookup 7 subtable" bnTTA bnVirama
Ligature2: "'half' Half Forms in Bengali lookup 6 subtable" bnTTA bnVirama
EndChar

StartChar: bnDDHA.half
Encoding: 435 -1 179
GlifName: bnD_D_H_A_.half
Width: 571
VWidth: 0
GlyphClass: 3
Flags: W
HStem: 134 75<164.835 285.55> 427 62<256 423.822>
VStem: 74 73<224.637 304> 435 71<328.945 413.033>
LayerCount: 2
Fore
SplineSet
74 573 m 5
 74 293 l 6
 74 171 143 134 208 134 c 4
 279 134 396 187 476 299 c 4
 489.357421875 317.700195312 506 351 506 381 c 4
 506 446.147460938 456.8828125 489 368 489 c 4
 333 489 250 481 250 481 c 5
 256 427 l 5
 256 427 296.909179688 427 321 427 c 4
 362 427 435 426 435 381 c 4
 435 350 414 328 392 305 c 4
 339.176757812 249.775390625 254 209 212 209 c 4
 163 209 147 244 147 304 c 5
 147 573 l 5
 582 573 l 5
 582 636.328125 l 13
 -13 636.328125 l 5
 -13 573 l 5
 74 573 l 5
-816 39 m 1049
EndSplineSet
Validated: 9
LCarets2: 1 0
Ligature2: "'half' Half Forms in Bengali2 lookup 7 subtable" bnDDHA bnVirama
Ligature2: "'half' Half Forms in Bengali lookup 6 subtable" bnDDHA bnVirama
EndChar

StartChar: bnBA.half
Encoding: 436 -1 180
GlifName: bnB_A_.half
Width: 435
VWidth: 0
GlyphClass: 3
Flags: W
HStem: 573 63.3281<-12 317 390 444>
VStem: 317 73<211.004 465 540 573>
LayerCount: 2
Fore
SplineSet
390 573 m 5
 390 120 l 5
 317 120 l 5
 29 338 l 5
 29 429 l 5
 317 540 l 29
 317 573 l 5
 -12 573 l 5
 -12 636.328125 l 5
 444 636.328125 l 5
 444 573 l 5
 390 573 l 5
317 211.00390625 m 5
 317 465 l 5
 98 376 l 29
 317 211.00390625 l 5
EndSplineSet
Validated: 1
LCarets2: 1 0
Ligature2: "'half' Half Forms in Bengali2 lookup 7 subtable" bnBA bnVirama
Ligature2: "'half' Half Forms in Bengali lookup 6 subtable" bnBA bnVirama
EndChar

StartChar: bnPA.half
Encoding: 437 -1 181
GlifName: bnP_A_.half
Width: 540
VWidth: 0
GlyphClass: 3
Flags: W
HStem: 548 73<269.026 388.81>
LayerCount: 2
Fore
SplineSet
462 464 m 5
 462 464 432.064453125 493.083984375 411 510 c 4
 381.525390625 533.669921875 357 548 329 548 c 4
 301 548 277.745117188 531.4296875 264 523 c 4
 239.557617188 508.010742188 176.029296875 454.765625 176.029296875 454.765625 c 5
 296 312 l 5
 462 464 l 5
541 395 m 5
 513 420 l 5
 310 233 l 5
 265 240 l 5
 120.029296875 416.765625 l 5
 76 387 l 5
 40 434 l 5
 40 434 151.666015625 535.313476562 230 586 c 4
 264 608 297 621 326 621 c 4
 366 621 391.39142578 605.652089845 414 590 c 4
 466 554 581 445 581 445 c 5
 541 395 l 5
EndSplineSet
Validated: 524289
LCarets2: 1 0
Ligature2: "'half' Half Forms in Bengali2 lookup 7 subtable" bnPA bnVirama
Ligature2: "'half' Half Forms in Bengali lookup 6 subtable" bnPA bnVirama
EndChar

StartChar: bnNA.half
Encoding: 438 -1 182
GlifName: bnN_A_.half
Width: 450
VWidth: 0
GlyphClass: 3
Flags: W
HStem: 417.226 73.1729<184.84 344.85> 573 63.1641<-13 462>
VStem: 89.3555 74.4795<286.684 396.029>
LayerCount: 2
Fore
SplineSet
466 356 m 5
 466 356 303.875 417.225585938 232.795898438 417.225585938 c 4
 188.532226562 417.225585938 163.834960938 377.1875 163.834960938 338.705078125 c 4
 163.834960938 327.055664062 166.279296875 315.623046875 172.087890625 306 c 4
 199.555664062 260.5 261 203 261 203 c 5
 230 157 l 5
 230 157 155.732421875 208.493164062 135 230 c 4
 104.16015625 261.9921875 89.35546875 306.028320312 89.35546875 347.431640625 c 4
 89.35546875 387.131835938 104.359375 424.202148438 133 450 c 4
 166.502929688 480.177734375 198.908203125 490.3984375 246.963867188 490.3984375 c 4
 323.952148438 490.3984375 488 414 488 414 c 13
 466 356 l 5
462 573 m 17
 -13 573 l 1
 -13 636.1640625 l 1
 462 636.4921875 l 9
 462 573 l 17
EndSplineSet
Validated: 1
LCarets2: 1 0
Ligature2: "'half' Half Forms in Bengali2 lookup 7 subtable" bnNA bnVirama
Ligature2: "'half' Half Forms in Bengali lookup 6 subtable" bnNA bnVirama
EndChar

StartChar: bnDA.half
Encoding: 439 -1 183
GlifName: bnD_A_.half
Width: 485
GlyphClass: 3
Flags: W
LayerCount: 2
Fore
SplineSet
64.94140625 573 m 17
 64.841796875 375.500976562 l 25
 100.841796875 324 l 1
 339.041015625 434 l 1
 295.440429688 146 l 1
 364.140625 146 l 1
 418.041015625 500 l 1
 372.841796875 523 l 1
 138.841796875 416 l 25
 138.841796875 573 l 1
 498 573 l 1
 498 636.328125 l 1
 -11 636.328125 l 1
 -11 573 l 9
 64.94140625 573 l 17
EndSplineSet
Validated: 524297
LCarets2: 1 0
Ligature2: "'half' Half Forms in Bengali2 lookup 7 subtable" bnDA bnVirama
Ligature2: "'half' Half Forms in Bengali lookup 6 subtable" bnDA bnVirama
EndChar

StartChar: bnNNA.half
Encoding: 440 -1 184
GlifName: bnN_N_A_.half
Width: 420
VWidth: 0
GlyphClass: 3
Flags: W
HStem: 531.592 75.252<166.247 318.491>
VStem: 47.3555 77.3916<373.236 487.458>
LayerCount: 2
Fore
SplineSet
463 526 m 1
 463 526 358.999829576 578.999335359 281 599 c 0
 264.456054688 603.2421875 233.393554688 606.84375 218.091796875 606.84375 c 0
 179.677734375 606.84375 151.846679688 600.365234375 117.298828125 571 c 0
 87.9287109375 546.03515625 47.35546875 477.8671875 47.35546875 426.166992188 c 0
 47.35546875 384.763671875 68 345 93 317.735351562 c 0
 131.23046875 276.041015625 184 245 184 245 c 1
 220 285 l 1
 220 285 124.747070312 374.735351562 124.747070312 429 c 0
 124.747070312 467.666015625 166.318359375 531.591796875 212.634765625 531.591796875 c 0
 304.725585938 531.591796875 432 460 432 460 c 1
 463 526 l 1
EndSplineSet
Validated: 524297
LCarets2: 1 0
Ligature2: "'half' Half Forms in Bengali2 lookup 7 subtable" bnNNA bnVirama
Ligature2: "'half' Half Forms in Bengali lookup 6 subtable" bnNNA bnVirama
EndChar

StartChar: bnDDA.half
Encoding: 441 -1 185
GlifName: bnD_D_A_.half
Width: 630
VWidth: 0
GlyphClass: 3
Flags: W
HStem: 154 72<263.247 386.319> 410 68<344.633 482.773> 573 63.3281<-15 271 344 644>
VStem: 271 73<466 573> 486 71<320.062 406.124>
LayerCount: 2
Fore
SplineSet
333 154 m 4
 290 154 239 164 167 251 c 4
 107.446289062 322.9609375 79 395 79 395 c 5
 119 423 l 5
 119 423 156 373 220 291 c 4
 257 244 289 226 323 226 c 4
 386.583007812 226 486 317 486 372 c 4
 486 394 481 410 439 410 c 4
 386 410 271 397 271 397 c 13
 271 573 l 29
 -15 573 l 5
 -15 636.328125 l 5
 644 636.328125 l 5
 644 573 l 29
 344 573 l 29
 344 466 l 5
 344 466 392.010742188 478 452 478 c 4
 538 478 557 426 557 382 c 4
 557 285.473632812 422.947265625 154 333 154 c 4
EndSplineSet
Validated: 1
LCarets2: 1 0
Ligature2: "'half' Half Forms in Bengali2 lookup 7 subtable" bnDDA bnVirama
Ligature2: "'half' Half Forms in Bengali lookup 6 subtable" bnDDA bnVirama
EndChar

StartChar: bnMA.half
Encoding: 442 -1 186
GlifName: bnM_A_.half
Width: 525
VWidth: 0
GlyphClass: 3
Flags: W
HStem: 342 73<315.326 397.169> 417 73<119.826 184.212> 573 63.3281<-10 121 201 383 449 534>
VStem: 34 73<325.307 405.039> 188.834 73.166<480.143 535.16> 413 73<429.237 543.434>
LayerCount: 2
Fore
SplineSet
392 342 m 4
 354.515625 342 180.301757812 417 153 417 c 4
 139.143554688 417 107 394.895507812 107 362 c 4
 107 337.033203125 156 301 156 301 c 5
 131 262 l 5
 131 262 87.0927734375 281.953125 70 295 c 4
 49.013671875 311.018554688 34 333 34 357 c 4
 34 428.165039062 96.5166015625 490 139 490 c 4
 156 490 183 480 183 480 c 5
 183 480 188.833984375 493.819335938 188.833984375 503.767578125 c 4
 188.833984375 525.211914062 121 573 121 573 c 5
 -10 573 l 21
 -10 636.328125 l 5
 534 636.328125 l 5
 534 573 l 13
 449 573 l 5
 449 573 486 508.090820312 486 478 c 4
 486 434 425 342 392 342 c 4
250 459 m 5
 250 459 348 415 368 415 c 4
 391 415 413 458 413 480 c 4
 413 509 383 573 383 573 c 5
 201 573 l 5
 201 573 262 540 262 510 c 4
 262 486 250 459 250 459 c 5
EndSplineSet
Validated: 1
LCarets2: 1 0
Ligature2: "'half' Half Forms in Bengali2 lookup 7 subtable" bnMA bnVirama
Ligature2: "'half' Half Forms in Bengali lookup 6 subtable" bnMA bnVirama
EndChar

StartChar: bnLA.half
Encoding: 443 -1 187
GlifName: bnL_A_.half
Width: 585
VWidth: 0
GlyphClass: 3
Flags: W
HStem: 420 70<157.122 319.18 451.125 597.204> 573 63.3281<-14 595>
VStem: 63 75<235.972 400.164> 353 56<244 293>
LayerCount: 2
Fore
SplineSet
630 437 m 17
 630 437 613.284179688 490 531 490 c 0
 463 490 415 483 387 424 c 1
 367.249023438 491.481445312 285.517578125 494 205 494 c 0
 144 494 63 475 63 361 c 0
 63 240.530273438 130 136 130 136 c 1
 176 153 l 1
 176 153 138 289.916015625 138 338 c 0
 138 384 155.37109375 417 212 417 c 0
 319.225585938 417 345.635742188 408.26171875 350 293 c 1
 353 244 l 1
 409 244 l 1
 420 327 l 2
 431.009765625 406.268554688 467.796875 420 536 420 c 0
 585.607868242 420 591.956363671 391.999999147 591.956363671 391.999999147 c 1
 630 437 l 17
595 573 m 17
 -14 573 l 1
 -14 636.328125 l 1
 595 636.328125 l 9
 595 573 l 17
EndSplineSet
Validated: 524297
LCarets2: 1 0
Ligature2: "'half' Half Forms in Bengali2 lookup 7 subtable" bnLA bnVirama
Ligature2: "'half' Half Forms in Bengali lookup 6 subtable" bnLA bnVirama
EndChar

StartChar: bnSHA.half
Encoding: 444 -1 188
GlifName: bnS_H_A_.half
Width: 440
VWidth: 0
GlyphClass: 3
Flags: W
HStem: 562.332 72<294.276 434.257>
VStem: 198 77<393.195 543.483>
LayerCount: 2
Fore
SplineSet
457 608.33203125 m 5
 457 608.33203125 419 634.33203125 335 634.33203125 c 4
 299 634.33203125 277 630.33203125 250 599.33203125 c 5
 226 629.33203125 200 636.33203125 160 636.33203125 c 4
 108 636.33203125 -11 636.33203125 -11 636.33203125 c 5
 -11 573.33203125 l 5
 -11 573.33203125 108.108398438 564.484375 146 560.33203125 c 4
 182.918945312 556.286132812 198 533.33203125 198 483.33203125 c 4
 198 413.473632812 193.701171875 391.6171875 149 370.33203125 c 4
 106.999023438 350.333007812 62 334.33203125 62 334.33203125 c 5
 77 279.33203125 l 5
 77 279.33203125 135 287.33203125 176 303.33203125 c 4
 222.553710938 321.5 242 340.33203125 242 340.33203125 c 5
 242 340.33203125 269.330078125 319.819335938 310 303.33203125 c 4
 347 288.33203125 387 282.33203125 387 282.33203125 c 5
 405 336.33203125 l 5
 405 336.33203125 350 358.33203125 315 379.33203125 c 4
 279.6953125 400.514648438 275 418.046875 275 478.33203125 c 4
 275 531.33203125 297.770507812 562.33203125 352 562.33203125 c 4
 397 562.33203125 457 540.33203125 457 510.33203125 c 5
 457 608.33203125 l 5
EndSplineSet
Validated: 9
LCarets2: 1 0
Ligature2: "'half' Half Forms in Bengali2 lookup 7 subtable" bnSHA bnVirama
Ligature2: "'half' Half Forms in Bengali lookup 6 subtable" bnSHA bnVirama
EndChar

StartChar: bnSA.half
Encoding: 445 -1 189
GlifName: bnS_A_.half
Width: 710
VWidth: 0
GlyphClass: 3
Flags: W
HStem: 322 78<109.781 209.607 467.495 557.825> 573 63.3281<-10 288 365 554 617 718>
VStem: 578 75<421.284 542.398>
LayerCount: 2
Fore
SplineSet
325 482 m 5
 325 482 500.126953125 400 526 400 c 4
 544 400 578 440 578 463 c 4
 578 503.01 554 573 554 573 c 5
 365 573 l 5
 325 482 l 5
550 322 m 4
 484 322 296 423 296 423 c 5
 296 423 248 322 194 322 c 4
 132 322 49 375 49 375 c 5
 68 423 l 5
 68 423 137 400 182 400 c 4
 220 400 288 573 288 573 c 5
 -10 573 l 21
 -10 636.328125 l 5
 718 636.328125 l 5
 718 573 l 13
 617 573 l 5
 617 573 653 505.01 653 461 c 4
 653 426.756835938 591 322 550 322 c 4
EndSplineSet
Validated: 1
LCarets2: 1 0
Ligature2: "'half' Half Forms in Bengali2 lookup 7 subtable" bnSA bnVirama
Ligature2: "'half' Half Forms in Bengali lookup 6 subtable" bnSA bnVirama
EndChar

StartChar: bnSSA.half
Encoding: 447 -1 191
GlifName: bnS_S_A_.half
Width: 505
VWidth: 0
GlyphClass: 3
Flags: W
HStem: 572.999 63.3291<-14 77 143 363 432 516>
VStem: 396 73<427.441 535.729>
LayerCount: 2
Fore
SplineSet
57 366.999023438 m 4
 13 428 77 572.999023438 77 572.999023438 c 5
 -14 572.999023438 l 5
 -14 636.328125 l 5
 516 636.328125 l 5
 516 573 l 13
 432 573 l 5
 432 573 469 488.923223454 469 459 c 4
 469 415 412 310 379 302.999023438 c 4
 348.674924296 296.565534217 105.691683515 299.493563326 57 366.999023438 c 4
121 504.999023438 m 5
 121 504.999023438 97.1123046875 426.975585938 112 404.999023438 c 4
 133 374 340 369.999023438 340 369.999023438 c 5
 121 504.999023438 l 5
379 425.999023438 m 5
 379 425.999023438 396 450.999023438 396 472.999023438 c 4
 396 500.056640625 363 572.999023438 363 572.999023438 c 5
 143 572.999023438 l 29
 137 558.999023438 l 5
 379 425.999023438 l 5
EndSplineSet
Validated: 33
LCarets2: 1 0
Ligature2: "'half' Half Forms in Bengali2 lookup 7 subtable" bnSSA bnVirama
Ligature2: "'half' Half Forms in Bengali lookup 6 subtable" bnSSA bnVirama
EndChar

StartChar: bnK_RA
Encoding: 481 -1 225
GlifName: bnK__R_A_
Width: 875
VWidth: 0
GlyphClass: 3
Flags: W
HStem: 0 73<230.746 415.072> 444 73<377.546 514.764> 573 63.3281<-14.0391 887.961>
VStem: 755.547 72.5596<214.14 306.38>
AnchorPoint: "anchor 1" 534.96 0 basechar 0
AnchorPoint: "anchor0" 710.96 637 basechar 0
LayerCount: 2
Fore
SplineSet
534.9609375 160 m 21
 535 160 411.877929688 73 321 73 c 4
 293 73 224.928710938 73.22265625 180 145 c 6
 98 276 l 5
 56 254 l 5
 76 187 100.284179688 126.51953125 126 89 c 4
 187 0 275 0 318 0 c 4
 412.524414062 0 535 84 535 84 c 13
 534.9609375 0 l 5
 607.9609375 0 l 5
 607.9609375 346 l 5
 696.9609375 320 l 6
 736.922851562 309.390625 755.546875 299.40625 755.546875 268.229492188 c 4
 755.546875 256.577148438 751.001953125 243.551757812 742.401367188 228.426757812 c 6
 702.106445312 161.802734375 l 5
 752 136 l 5
 752 136 775.9609375 167 800.401367188 200.426757812 c 4
 817.981445312 224.470703125 828.106445312 253.903320312 828.106445312 274.802734375 c 4
 828.106445312 330.313476562 799.361328125 366.31640625 743.9609375 382 c 6
 602.668945312 422 l 5
 602.668945312 422 579 517 453.9609375 517 c 4
 373.960842872 517 280.9609375 452 207.9609375 388 c 5
 239.9609375 347 l 21
 239.9609375 347 386.633789062 444 453.9609375 444 c 4
 502.9609375 444 534.9609375 421 534.9609375 363 c 5
 534.9609375 160 l 21
887.9609375 573 m 25
 -14.0390625 573 l 1
 -14.0390625 636.328125 l 1
 887.9609375 636.328125 l 1
 887.9609375 573 l 25
EndSplineSet
Validated: 41
LCarets2: 1 0
Ligature2: "'pres' Pre Base Substitutions in Bengali2 lookup 12 subtable" bnKA bnRAc2
EndChar

StartChar: bnKH_RA
Encoding: 482 -1 226
GlifName: bnK_H__R_A_
Width: 660
VWidth: 0
GlyphClass: 3
Flags: W
HStem: -173 73<235.746 419.694> 441.622 63.9746<179.201 268.08> 572.998 63.3262<613 676>
VStem: 102.173 69.1426<509.096 577.595> 540 136<572.998 636.324> 540 73<-166 -91 -13 0 85 572.998>
AnchorPoint: "anchor0" 540 636.328 basechar 0
LayerCount: 2
Fore
SplineSet
613 -166 m 17xf4
 537 -166 l 1
 537 -91 l 17
 537 -91 417.524414062 -173 323 -173 c 0
 280 -173 192 -173 131 -84 c 0
 105.284179688 -46.48046875 81 14 61 81 c 1
 103 103 l 1
 185 -28 l 2
 229.928710938 -99.77734375 298 -100 326 -100 c 0
 416.877929688 -100 540 -13 540 -13 c 1
 540 0 l 1
 131 233 l 1
 131 316 l 1
 390 427 l 1
 390 427 375.875493264 459.494132543 367 483 c 0
 364.100682179 490.678556943 362 495 353 495 c 0
 336 495 241.709960938 441.622070312 200.05078125 441.622070312 c 0
 168.828125 441.622070312 155.824879892 450.502624129 135 472 c 0
 117.823242188 489.731445312 102.172851562 524.5234375 102.172851562 549.572265625 c 0
 102.172851562 574.73046875 109.840139999 596.92448962 128 614 c 0
 162.034179688 646.001953125 226 637 226 637 c 1
 238 597 l 1
 238 597 220.108537917 590.325877672 192 577 c 0
 178.583984375 570.639648438 171.315429688 560.45703125 171.315429688 549.35546875 c 0
 171.315429688 541.393554688 175.554316876 533.813187519 180 525 c 0
 185.045160738 514.998399253 188.832899699 505.596679688 210.138671875 505.596679688 c 0
 243 505.596679688 341 573 379 573 c 0
 402.1953125 573 415.135222589 559.058086736 420 546 c 0
 439 495 472 386 472 386 c 1
 210 271 l 25
 540 85 l 25xf4
 540 636 l 17
 535 702 l 1
 579 702 l 1
 602 636.32421875 l 1
 676 636.32421875 l 17
 676 572.998046875 l 1xf8
 613 572.998046875 l 1
 613 -166 l 17xf4
EndSplineSet
Validated: 524321
LCarets2: 1 0
Ligature2: "'pres' Pre Base Substitutions in Bengali2 lookup 12 subtable" bnKHA bnRAc2
EndChar

StartChar: bnG_RA
Encoding: 483 -1 227
GlifName: bnG__R_A_
Width: 660
VWidth: 0
GlyphClass: 3
Flags: W
HStem: -18 73<216.746 400.122> 549.388 72.3906<249.492 397.883>
VStem: 139.851 81.9395<444.922 519.589> 337.035 73.0049<241.912 340.874>
AnchorPoint: "anchor0" 520.4 635.9 basechar 0
LayerCount: 2
Fore
SplineSet
593 -18 m 5
 593 573 l 29
 671 573 l 5
 671 636.328125 l 13
 580 636.328125 l 21
 554 702 l 5
 513 702 l 5
 520.616210938 636.099609375 l 5
 520.6171875 561 l 21
 520.6171875 561 373.265625 621.778320312 278.793945312 621.778320312 c 4
 252.889648438 621.778320312 233 619 210 600 c 4
 190.352539062 583.76953125 139.850585938 503.376953125 139.850585938 448.177734375 c 4
 139.850585938 391.694335938 248.75 368.682617188 310 344 c 4
 332.856445312 334.4765625 337.03515625 310.245117188 337.03515625 290.23828125 c 4
 337.03515625 268.698242188 212 186 212 186 c 5
 244 135 l 5
 244 135 410.040039062 221 410.040039062 263.68359375 c 4
 410.040039062 295.348632812 396.759765625 348.624023438 392 361 c 4
 383 386 373 397 335 412 c 4
 278.537109375 435.140625 221.790039062 441.001953125 221.790039062 467.06640625 c 4
 221.790039062 494.487304688 257.791992188 549.387695312 279.770507812 549.387695312 c 4
 307 549.387695312 361.241210938 536.090820312 384 531 c 4
 520.6171875 502 l 5
 520.6171875 142 l 5
 521 142 397.877929688 55 307 55 c 4
 279 55 210.928710938 55.22265625 166 127 c 6
 84 258 l 5
 42 236 l 5
 62 169 86.2841796875 108.51953125 112 71 c 4
 173 -18 261 -18 304 -18 c 4
 404.524414062 -18 521 66 521 66 c 5
 521 -18 l 5
 593 -18 l 5
EndSplineSet
Validated: 41
LCarets2: 1 0
Ligature2: "'pres' Pre Base Substitutions in Bengali2 lookup 12 subtable" bnGA bnRAc2
EndChar

StartChar: bnGH_RA
Encoding: 484 -1 228
GlifName: bnG_H__R_A_
Width: 650
VWidth: 0
GlyphClass: 3
Flags: W
HStem: -178 72<212.997 392.695> 364.544 64.2656<176.832 365.017> 572.998 63.3301<-12.9502 155.05 220.05 516.05 589.05 664.05>
VStem: 98.0498 73<438.279 519.51> 516.05 72.9502<-171 -95 -18 0 82 572.998>
AnchorPoint: "anchor0" 471 636.3 basechar 0
LayerCount: 2
Fore
SplineSet
220.049804688 572.998046875 m 1
 220.049804688 572.998046875 171.049804688 497 171.049804688 472 c 0
 171.049804688 463 171.049804688 455 179.049804688 446 c 0
 192.045898438 431.704101562 243.646484375 428.809570312 305.046875 428.809570312 c 0
 338.134765625 428.809570312 400.049804688 429 400.049804688 429 c 1
 421.049804688 342 l 1
 215.049804688 225 l 5
 516.049804688 82 l 25
 516.049804688 572.998046875 l 25
 220.049804688 572.998046875 l 1
589 -171 m 17
 514 -171 l 1
 514 -95 l 17
 514 -95 399.524414062 -178 299 -178 c 0
 256 -178 168 -178 107 -89 c 0
 81.2841796875 -51.48046875 57 9 37 76 c 1
 79 98 l 1
 161 -33 l 2
 205.928710938 -104.77734375 274 -106 302 -106 c 0
 392.877929688 -106 516.3828125 -18 516 -18 c 9
 516.049804688 0 l 1
 132.049804688 185 l 1
 132.049804688 260 l 1
 330.049804688 365 l 1
 330.049804688 365 303.098632812 364.543945312 279.831054688 364.543945312 c 0
 222.1953125 364.543945312 138.049804688 371 111.049804688 408 c 0
 101.544921875 421.025390625 98.0498046875 436 98.0498046875 451 c 0
 98.0498046875 503 155.049804688 572.998046875 155.049804688 572.998046875 c 1
 -12.9501953125 572.998046875 l 1
 -12.9501953125 636.328125 l 1
 664.049804688 636.328125 l 1
 664.049804688 572.998046875 l 9
 589.049804688 572.998046875 l 25
 589 -171 l 17
EndSplineSet
Validated: 37
LCarets2: 1 0
Ligature2: "'pres' Pre Base Substitutions in Bengali2 lookup 12 subtable" bnGHA bnRAc2
EndChar

StartChar: bnNG_RA
Encoding: 485 -1 229
GlifName: bnN_G__R_A_
Width: 690
GlyphClass: 3
Flags: W
HStem: -146 73<242.746 425.938> 16.167 75.3428<301.007 426.08> 292 70<367.082 561.836> 433 60<367 506.061> 573 66<372.986 507.787>
VStem: 302 65<351 433 502 567.679> 510 62<496.945 568.999> 547 71<-139 -63 0.394302 108> 566.148 71.3691<206.163 285.626>
AnchorPoint: "anchor0" 461 636.5 basechar 0
AnchorPoint: "anchor 1" 545 -136 basechar 0
LayerCount: 2
Fore
SplineSet
27 403 m 1xfd
 74 421 l 1
 74 421 178 241 246 166 c 0
 287.0546875 120.234375 318.59765625 91.509765625 355.565429688 91.509765625 c 0
 373.525390625 91.509765625 400.638671875 98.216796875 425 112 c 0
 501 155 566.1484375 209 566.1484375 259.221679688 c 0xfc80
 566.1484375 276.35546875 552 292 501 292 c 0
 472 292 372 292 302 292 c 9
 302 440 l 17
 302 440 228.275390625 461.263671875 174 489 c 0
 148.892578125 501.831054688 138 508 138 508 c 9
 161 554 l 1
 302 502 l 1
 302 539 303.651367188 576.172851562 328 604 c 0
 349 628 370 639 430 639 c 0
 516 639 572 636 572 534 c 0xfe
 572 469 557 433 480 433 c 2
 367 433 l 1
 367 351 l 1
 367 351 479.938476562 362 522 362 c 0
 593 362 637.517578125 321.931640625 637.517578125 268.57421875 c 0xfc80
 637.517578125 231.699273432 618.018554688 188.971679688 618.018554688 188.971679688 c 9
 618 -139.028320312 l 17
 545 -139 l 1
 545 -63 l 17
 545 -63 430.524414062 -146 330 -146 c 0
 287 -146 199 -146 138 -57 c 0
 112.284179688 -19.48046875 88 41 68 108 c 1
 110 130 l 1
 192 -1 l 2
 236.928710938 -72.77734375 305 -73 333 -73 c 0
 423.877929688 -73 547.3828125 14 547 13.9716796875 c 1
 547 108 l 17
 547 108 502 72 464 50 c 0
 429.96646857 30.2963765405 402.525390625 16.1669921875 356.516601562 16.1669921875 c 0
 312.512695312 16.1669921875 268.882092396 36.4221288927 200 106 c 0
 101 206 27 403 27 403 c 1xfd
367 493 m 1
 463 493 l 2
 495 493 510 502 510 527 c 0xfe
 510 569 508 573 437 573 c 0
 375.674804688 573 367 572 367 493 c 1
EndSplineSet
Validated: 37
LCarets2: 1 0
Substitution2: "Single Substitution lookup 21 subtable" bnNG1_RA
Ligature2: "'pres' Pre Base Substitutions in Bengali2 lookup 12 subtable" bnNGA bnRAc2
EndChar

StartChar: bnNG1_RA
Encoding: 486 -1 230
GlifName: bnN_G_1_R_A_
Width: 650
GlyphClass: 3
Flags: W
HStem: -28 72<222.642 406.997> 123 74<275.671 420.565> 339 73<339.079 529.667> 443 62<339 472.887> 573 63.3281<-10 276 535 661> 583 53.3281<343.119 476.397>
VStem: 268 71<396 443 505 572.172> 477 61<509.544 572.772> 537 73<-28 56 132 201 276.278 333.125>
AnchorPoint: "anchor 1" 537 -25 basechar 0
AnchorPoint: "anchor0" 507 636 basechar 0
LayerCount: 2
Fore
SplineSet
610 321 m 0xfa80
 610 272.661132812 610 -28 610 -28 c 1
 537 -28 l 1
 537 56 l 1xfa80
 537 56 411.524414062 -28 311 -28 c 0
 268 -28 176 -28 115 61 c 0
 89.2841796875 98.51953125 65 159 45 226 c 1
 87 248 l 1
 169 117 l 2
 214.162654386 44.8499057986 286 44 314 44 c 0
 405 44 537 132 536.6171875 132 c 9
 536.6171875 201 l 1
 536.6171875 201 497 169 440 145 c 0
 403.726614184 129.726995446 377 123 336 123 c 0
 292 123 222.760742188 141.854492188 179 214 c 0
 105 336 84 439 84 439 c 1
 131 458 l 1
 131 458 186 351 231 270 c 0
 261 216 302 197 339 197 c 0
 362.0703125 197 381.011825789 202.969449229 407 213 c 0
 472.020507812 238.095703125 531 271.061523438 531 313 c 0
 531 333 511 338 469 339 c 0
 440 339 268 339 268 339 c 9
 268 521 l 2
 268 553.537109375 276 573 276 573 c 1
 -10 573 l 1
 -10 636.328125 l 1
 661 636.328125 l 1
 661 573 l 1
 535 573 l 17
 535 573 537.891601562 562.564453125 538 544 c 1xfb
 538 479 530 443 453 443 c 2
 339 443 l 1
 339 396 l 1
 339 396 447.896484375 412 490 412 c 0
 567 412 610 374 610 321 c 0xfa80
339 505 m 1
 430 505 l 2
 462 505 477 517 477 542 c 1
 477 582 477 583 405 583 c 0xf7
 343.251953125 583 339 582.650390625 339 505 c 1
EndSplineSet
Validated: 37
EndChar

StartChar: bnC_RA
Encoding: 487 -1 231
GlifName: bnC__R_A_
Width: 732
VWidth: 0
GlyphClass: 3
Flags: W
HStem: -172 73<221.746 405.129> 0 73<277.096 395.11> 572.998 63.3301<-12 188 261 739>
VStem: 188 73<90.6372 405 463 572.998> 526 73<-172 -88 -12 100> 581 74<242.52 344.288>
AnchorPoint: "anchor 1" 526 -168 basechar 0
AnchorPoint: "anchor0" 574 637 basechar 0
LayerCount: 2
Fore
SplineSet
261 405 m 9xf4
 261 166 l 1
 261 106 277 73 326 73 c 0
 381 73 496 144 551 229 c 0
 573 263 581 288 581 307 c 0
 581 343 557.219726562 348 523 355 c 0
 425.258789062 374.993164062 261 405 261 405 c 9xf4
599 160 m 9xf8
 599 -172 l 1
 526 -172 l 1
 526 -88 l 1
 526 -88 409.524414062 -172 309 -172 c 0
 266 -172 178 -172 117 -83 c 0
 91.2841796875 -45.48046875 67 15 47 82 c 1
 89 104 l 1
 171 -27 l 2
 215.928710938 -98.77734375 284 -99 312 -99 c 0
 402.877929688 -99 526 -12 526 -12 c 1
 526 100 l 1xf8
 526 100 430.561917832 -2.84217094304e-14 322 0 c 0
 257 1.70171193534e-14 188 37 188 159 c 2
 188 572.998046875 l 1
 -12 572.998046875 l 1
 -12 636.328125 l 1
 739 636.328125 l 1
 739 572.998046875 l 1
 261 572.998046875 l 17
 261 463 l 25
 261 463 332.709960938 455.448242188 370 451 c 0
 488.9765625 436.806640625 513 434 542 429 c 0
 618.95703125 415.733398438 655 371.7421875 655 312 c 0xf4
 655 255.432617188 599 160.131835938 599 160 c 9xf8
EndSplineSet
Validated: 1
LCarets2: 1 0
Ligature2: "'pres' Pre Base Substitutions in Bengali2 lookup 12 subtable" bnCA bnRAc2
EndChar

StartChar: bnCH_RA
Encoding: 488 -1 232
GlifName: bnC_H__R_A_
Width: 680
VWidth: 0
GlyphClass: 3
Flags: W
HStem: -181 73<198.966 355.865> 198 72<194.727 301.139> 573.014 63.3145<-14 113 186 692>
VStem: 113 73<277.752 461 516 573.014> 401 73<342.712 404.475> 481 73<-181 -97> 561 73<257.858 380.704>
AnchorPoint: "anchor 1" 481 -174 basechar 0
AnchorPoint: "anchor0" 511 636.5 basechar 0
LayerCount: 2
Fore
SplineSet
381 344 m 0
 393.62890625 354.463867188 401 369 401 385 c 0
 401 424.76171875 361.272460938 429.969726562 321 437 c 0
 212.123046875 456.006835938 186 461 186 461 c 1
 186 324 l 1
 187 280 216 270 235 270 c 0
 279 270 346 315 381 344 c 0
480.6171875 -7 m 17
 480.6171875 -7 430 8 268 74 c 1
 268 150 l 1
 268 150 538.494140625 210.89453125 555 281 c 0
 560.447265625 304.13671875 561 315 561 340 c 0
 561 367 554.5703125 377.971679688 516 392 c 0
 488.004882812 402.181640625 469.66796875 405 469.66796875 405 c 1
 469.66796875 405 474 390.366210938 474 381 c 0
 474 347 456.037109375 317.588867188 416 285 c 0
 371.641601562 248.89453125 299.76953125 198 228 198 c 0
 182 198 113 233 113 322 c 2
 113 573.013671875 l 1
 -14 573.013671875 l 1
 -14 636.328125 l 1
 692 636.328125 l 1
 692 573.013671875 l 1
 186 573.013671875 l 1
 186 516 l 17
 186 516 273.9765625 504.461914062 332 496 c 0
 407.008789062 485.060546875 442.327148438 481.064453125 515 464 c 0
 584.9375 447.578125 634 420 634 345 c 0
 634 317 627.454402903 277.56439935 622 247 c 0
 607.754882812 167.17578125 372 105 372 105 c 1
 615 3 l 1
 599 -44 l 1
 554 -30 l 1
 554 -181 l 1
 481 -181 l 1
 481 -97 l 1
 481 -97 354.524414062 -181 264 -181 c 0
 221 -181 163 -181 102 -92 c 0
 76.2841796875 -54.48046875 41 49 41 49 c 1
 88 72 l 1
 156 -36 l 2
 201.108398438 -107.642578125 239 -108 267 -108 c 0
 348.877929688 -108 480.6171875 -21 480.6171875 -21 c 1
 480.6171875 -7 l 17
EndSplineSet
Validated: 1
LCarets2: 1 0
Ligature2: "'pres' Pre Base Substitutions in Bengali2 lookup 12 subtable" bnCHA bnRAc2
EndChar

StartChar: bnJ_RA
Encoding: 489 -1 233
GlifName: bnJ__R_A_
Width: 875
VWidth: 0
GlyphClass: 3
Flags: W
HStem: -148 74<221.986 432.972> 29.6436 77.3564<312.296 433.561> 315 69<379.311 555.581> 573.002 63.3262<-15 305 378 894>
VStem: 305 73<378 493 555 573.002> 561.045 79.5586<225.466 338.808> 671 73<-148 -61 18 71.3288>
AnchorPoint: "anchor0" 705 636.5 basechar 0
AnchorPoint: "anchor 1" 671 -144 basechar 0
LayerCount: 2
Fore
SplineSet
675 491 m 0
 589 518 378 555 378 555 c 1
 378 573.001953125 l 1049
672 18 m 1
 672 87 l 1
 672 87 714.04296875 230.674804688 740 322 c 0
 754.010061459 371.291908105 735.73828125 400.71484375 687 415 c 0
 629 432 378 493 378 493 c 1
 378 378 l 1
 378 378 427.6015625 384 465.6015625 384 c 0
 534.599609375 384 640.603515625 371.59765625 640.603515625 305.791992188 c 0
 640.603515625 233.950195312 607 177 500 82 c 0
 469.782873288 55.1717099287 422.969726562 29.6435546875 372.94921875 29.6435546875 c 0
 319.586914062 29.6435546875 266.623145382 59.1006731052 203 131 c 0
 80 270 44 372 44 372 c 1
 89 397 l 1
 89 397 181.321289062 276.297851562 243 201 c 0
 280.782226562 154.875 319.37890625 107 373 107 c 0
 404.852539062 107 439.168945312 129.8515625 462 149 c 0
 524 201 561.044921875 243 561.044921875 277 c 0
 561.044921875 312.608398438 513.328125 315 459.6015625 315 c 0
 405.6015625 315 305 306 305 306 c 9
 305 573.001953125 l 25
 -15 573.001953125 l 1
 -15.009765625 636.328125 l 1
 894 636.328125 l 1
 894 573.001953125 l 25
 378 573.001953125 l 25
 378 555 l 1
 378 555 589 518 675 491 c 0
 750.010742188 467.1328125 823.481445312 447.625976562 823.481445312 373.022460938 c 0
 823.481445312 360.103515625 822 345 817 329 c 2
 744 44 l 9
 744 -148 l 1
 671 -148 l 1
 671 -61 l 1
 671 -61 422.524414062 -148 304 -148 c 0
 261 -148 177 -145 116 -56 c 0
 90.2841796875 -18.48046875 66 42 46 109 c 1
 88 131 l 1
 170 0 l 2
 214.928710938 -71.77734375 279 -74 307 -74 c 0
 397.877929688 -74 672 18 672 18 c 1
EndSplineSet
Validated: 35
LCarets2: 1 0
Ligature2: "'pres' Pre Base Substitutions in Bengali2 lookup 12 subtable" bnJA bnRAc2
EndChar

StartChar: bnJH_RA
Encoding: 490 -1 234
GlifName: bnJ_H__R_A_
Width: 780
VWidth: 0
GlyphClass: 3
Flags: W
HStem: -150 73<205.003 359.033> 573.014 63.3066<-14 477 744 799.889>
VStem: 477 71<-150 -66 12 30 119 198 271 458 532 573.014> 671 128.889<573.014 636.32> 671 73<39 160 226.727 573.014>
AnchorPoint: "anchor0" 671 636.3 basechar 0
AnchorPoint: "anchor 1" 475 -147 basechar 0
LayerCount: 2
Fore
SplineSet
477 12 m 9xe8
 477 30 l 1
 99 278 l 1
 99 367 l 1
 477 532 l 25
 477 573.013671875 l 9
 -14 573.013671875 l 17
 -14 636.3203125 l 1
 548 636.3203125 l 9
 548 271 l 25
 671 226.7265625 l 25xe8
 671 636.3203125 l 1
 666 702 l 1
 710 702 l 1
 733 636.3203125 l 1
 799.888671875 636.3203125 l 17
 799.888671875 573.013671875 l 1xf0
 744 573.013671875 l 25
 744 39 l 1
 671 39 l 1
 671 160 l 25
 548 198 l 25
 548 -150 l 1
 475 -150 l 1
 475 -66 l 1
 475 -66 367.524414062 -150 267 -150 c 0
 224 -150 172 -150 111 -61 c 0
 85.2841796875 -23.48046875 59 56 59 56 c 1
 105 82 l 1
 161 -5 l 2
 206.797851562 -76.150390625 242 -77 270 -77 c 0
 360.877929688 -77 477 12 477 12 c 9xe8
477 119 m 25
 477 458 l 25
 170 320 l 25
 477 119 l 25
EndSplineSet
Validated: 524289
LCarets2: 1 0
Ligature2: "'pres' Pre Base Substitutions in Bengali2 lookup 12 subtable" bnJHA bnRAc2
EndChar

StartChar: bnNY_RA
Encoding: 491 -1 235
GlifName: bnN_Y__R_A_
Width: 955
VWidth: 0
GlyphClass: 3
Flags: W
HStem: -165 73<228.746 426.657> 0 73<288.758 473.073> 99 67<666.05 823.872> 277 62<722 823.639> 452 67<666.057 822.349> 556 74<417.103 552.794>
VStem: 593 73<-165 -81 -5 84 174 442> 828 73<170.032 270.83 344.005 446.335>
AnchorPoint: "anchor0" 733 635 basechar 0
LayerCount: 2
Fore
SplineSet
666 174 m 17
 666 174 741.905273438 166 782 166 c 0
 808 166 828 176 828 208 c 2
 828 228 l 2
 828 266 812 277 775 277 c 2
 722 277 l 17
 722 339 l 9
 775 339 l 2
 812 339 828 350 828 388 c 2
 828 410 l 2
 828 443 809 452 784 452 c 0
 743.35546875 452 666 442 666 442 c 9
 666 174 l 17
593 84 m 1
 593 84 470.524414062 0 376 0 c 0
 333 0 245 0 184 89 c 0
 158.284179688 126.51953125 134 187 114 254 c 1
 154 279 l 1
 238 145 l 2
 282.982421875 73.2421875 351 73 379 73 c 0
 469.877929688 73 593 160 593 160 c 1
 593 457 l 1
 593 505 553.501953125 556 487.501953125 556 c 0
 410.276367188 556 240 420 240 420 c 9
 210 458 l 1
 282 541 387 630 480.501953125 630 c 0
 640.520507812 630 666 500 666 500 c 1
 666 500 745.083007812 519.01171875 782 519 c 0
 846 518.98046875 902 518 902 405 c 2
 902 397 l 2
 902 364 898 317 857 311 c 1
 898 304 901 257 901 224 c 2
 901 215 l 2
 901 103 842 99 782 99 c 0
 727.319335938 99 666 120 666 120 c 1
 666 -165 l 1
 593 -165 l 1
 593 -81 l 1
 593 -81 416.524414062 -165 316 -165 c 0
 273 -165 185 -165 124 -76 c 0
 98.2841796875 -38.48046875 74 22 54 89 c 1
 96 111 l 1
 178 -20 l 2
 222.928710938 -91.77734375 291 -92 319 -92 c 0
 409.877929688 -92 593 -5 593 -5 c 9
 593 84 l 1
EndSplineSet
Validated: 33
LCarets2: 1 0
Ligature2: "'blws' Below Base Substitutions lookup 19 subtable" bnNYA bnRAc2
Ligature2: "'pres' Pre Base Substitutions in Bengali2 lookup 12 subtable" bnNYA bnRAc2
EndChar

StartChar: bnTT_RA
Encoding: 492 -1 236
GlifName: bnT_T__R_A_
Width: 700
VWidth: 0
GlyphClass: 3
Flags: W
HStem: -168 73<220.746 404.129> 0 74<274.492 396.228> 337 66<407 555.325> 573.008 63.3184<-13 188 261 413 483 710> 732 67<121.738 394.767>
VStem: 188 73<86.6083 573.008> 413 70<636.326 712.036> 525 69<-168 -84 -8 95> 563 71<227.256 328.705>
AnchorPoint: "anchor0" 533 636.2 basechar 0
AnchorPoint: "anchor 1" 525 -164 basechar 0
LayerCount: 2
Fore
SplineSet
483 636.326171875 m 9xff
 710 636.326171875 l 1
 710 573.0078125 l 1
 261 573.0078125 l 17
 261 573.0078125 261 210 261 169 c 1
 261 109 271 74 320 74 c 0
 375 74 478 128 533 213 c 0
 555 247 563 272 563 291 c 0
 563 327 534.411132812 337 505 337 c 0
 468 337 407 337 407 337 c 1
 401 397 l 1
 401 397 490 403 524 403 c 0
 596.241210938 403 634 355.7421875 634 296 c 0xfe80
 634 248.0703125 594 177 594 177 c 1
 594 -168 l 1
 525 -168 l 1
 525 -84 l 1
 525 -84 408.524414062 -168 308 -168 c 0
 265 -168 177 -168 116 -79 c 0
 90.2841796875 -41.48046875 66 19 46 86 c 1
 88 108 l 1
 170 -23 l 2
 214.928710938 -94.77734375 283 -95 311 -95 c 0
 401.877929688 -95 525 -8 525 -8 c 1
 525 95 l 1
 525 95 416.029296875 0 316 0 c 0
 251 0 188 37 188 159 c 2
 188 573.0078125 l 1
 -13 573.0078125 l 1
 -13 636.326171875 l 1
 413 636.326171875 l 17
 413 690.326171875 397 732 349 732 c 0
 239 732 44 732 44 732 c 9
 40 785 l 1
 40 785 287 799 355 799 c 0
 449 799 483 714.326171875 483 636.326171875 c 9xff
EndSplineSet
Validated: 1
LCarets2: 1 0
Ligature2: "'pres' Pre Base Substitutions in Bengali2 lookup 12 subtable" bnTTA bnRAc2
EndChar

StartChar: bnTTH_RA
Encoding: 493 -1 237
GlifName: bnT_T_H__R_A_
Width: 635
GlyphClass: 3
Flags: W
HStem: -158 73<213.182 358.532> -0.148438 74.1484<278.718 391.685> 573.003 63.3232<-14 218 290 643>
VStem: 218 72<534.549 573.002> 491 69<-158 -74 2 93.373> 505 73<177.042 262.61>
AnchorPoint: "anchor0" 476 637 basechar 0
AnchorPoint: "anchor 1" 491 -155 basechar 0
LayerCount: 2
Fore
SplineSet
491 93.373046875 m 1xf8
 491 93.373046875 411.934570312 -0.1484375 319.408203125 -0.1484375 c 0
 211.004882812 -0.1484375 92 216 92 279 c 1
 92 279 206 334 242.094726562 374.038085938 c 0
 264.780273438 399.202148438 276 421.7890625 276 444 c 0
 276 464.1328125 263.094726562 481.038085938 240.094726562 513.038085938 c 0
 220.250976562 540.646484375 218 561.001953125 218 573.001953125 c 1
 -14 573.001953125 l 1
 -14 636.326171875 l 1
 219.591796875 636.326171875 l 1
 219.591796875 636.326171875 220.686523438 659.389648438 246 687 c 0
 299.553710938 745.412109375 400 816 400 816 c 1
 432 779 l 1
 432 779 334.8515625 689.180664062 304 658 c 0
 293.51953125 647.408203125 287.81640625 636.326171875 287.81640625 636.326171875 c 1
 643 636.326171875 l 1
 643 573.001953125 l 1
 290 573.002929688 l 17
 290 505.82421875 578 335 578 225 c 0xf4
 578 208.145507812 560 164 560 164 c 9
 560 -158 l 1
 491 -158 l 1
 491 -74 l 1
 491 -74 359.524414062 -158 274 -158 c 0
 240 -158 165 -143 109 -62 c 0
 83.1328125 -24.5849609375 56 55 56 55 c 1
 104 82 l 1
 160 -6 l 2
 204.370117188 -78.1015625 255 -85 277 -85 c 0
 340.877929688 -85 491 2 491 2 c 1
 491 93.373046875 l 1xf8
505 222 m 0
 505 265 335.094726562 409.038085938 335.094726562 409.038085938 c 1
 335 396 328 372 299.094726562 338.038085938 c 0
 255.98828125 287.390625 174 243 174 243 c 1
 174 243 255 74 326 74 c 0
 403.641601562 74 505 185 505 222 c 0
EndSplineSet
Validated: 1
LCarets2: 1 0
Ligature2: "'pres' Pre Base Substitutions in Bengali2 lookup 12 subtable" bnTTHA bnRAc2
EndChar

StartChar: bnDDH_RA
Encoding: 494 -1 238
GlifName: bnD_D_H__R_A_
Width: 690
VWidth: 0
GlyphClass: 3
Flags: W
HStem: -166 73<222.746 406.129> 0 74<276.492 398.228> 337 66<409 557.325>
VStem: 190 73<86.6083 169> 565 71<227.256 328.705>
AnchorPoint: "anchor 1" 527 -160 basechar 0
AnchorPoint: "anchor0" 527 636.6 basechar 0
LayerCount: 2
Fore
SplineSet
190 573.0078125 m 1
 190 159 l 2
 190 37 253 0 318 0 c 0
 418.029296875 0 527 95 527 95 c 1
 527 -6 l 1
 527 -6 403.877929688 -93 313 -93 c 0
 285 -93 216.928710938 -92.77734375 172 -21 c 2
 90 110 l 1
 48 88 l 1
 68 21 92.2841796875 -39.48046875 118 -77 c 0
 179 -166 267 -166 310 -166 c 0
 410.524414062 -166 527 -82 527 -82 c 1
 527 -166 l 1
 596 -166 l 1
 596 177 l 1
 596 177 636 248.0703125 636 296 c 0
 636 355.7421875 598.241210938 403 526 403 c 0
 492 403 403 397 403 397 c 1
 409 337 l 1
 409 337 470 337 507 337 c 0
 536.411132812 337 565 327 565 291 c 0
 565 272 557 247 535 213 c 0
 480 128 377 74 322 74 c 0
 273 74 263 109 263 169 c 1
 263 210 263 573.0078125 263 573.0078125 c 9
 702 573.0078125 l 1
 702 636.326171875 l 9
 -13 636.326171875 l 1
 -13 573.0078125 l 1
 190 573.0078125 l 1
EndSplineSet
Validated: 9
LCarets2: 1 0
Ligature2: "'pres' Pre Base Substitutions in Bengali2 lookup 12 subtable" bnDDHA bnRAc2
EndChar

StartChar: bnNN_RA
Encoding: 495 -1 239
GlifName: bnN_N__R_A_
Width: 655
VWidth: 0
GlyphClass: 3
Flags: W
HStem: -19 73<216.746 397.707> 531.592 75.252<245.247 398.221>
VStem: 126.355 77.3916<373.236 487.458> 511 73<636.328 665.909> 533 47<700.091 730>
AnchorPoint: "anchor 1" 511.4 -16 basechar 0
AnchorPoint: "anchor0" 511 636.6 basechar 0
LayerCount: 2
Fore
SplineSet
584 -19 m 1xf0
 584 572.99609375 l 1xf0
 665 572.99609375 l 1
 665 636.328125 l 9
 580 636.328125 l 25
 580 730 l 1
 533 730 l 1xe8
 511 636 l 25
 511 540 l 1
 511 540 438 579 360 599 c 0
 343.456054688 603.2421875 312.393554688 606.84375 297.091796875 606.84375 c 0
 258.677734375 606.84375 230.846679688 600.365234375 196.298828125 571 c 0
 166.928710938 546.03515625 126.35546875 477.8671875 126.35546875 426.166992188 c 0
 126.35546875 384.763671875 147 345 172 317.735351562 c 0
 210.23046875 276.041015625 263 245 263 245 c 1
 299 285 l 1
 299 285 203.747070312 374.735351562 203.747070312 429 c 0
 203.747070312 467.666015625 245.318359375 531.591796875 291.634765625 531.591796875 c 0
 383.725585938 531.591796875 511 460 511 460 c 1
 511 141 l 1
 511 141 397.877929688 54 307 54 c 0
 279 54 210.928710938 54.22265625 166 126 c 2
 84 257 l 1
 42 235 l 1
 62 168 86.2841796875 107.51953125 112 70 c 0
 173 -19 261 -19 304 -19 c 0
 404.524414062 -19 511 65 511 65 c 1
 511 -19 l 1
 584 -19 l 1xf0
EndSplineSet
Validated: 524297
LCarets2: 1 0
Ligature2: "'pres' Pre Base Substitutions in Bengali2 lookup 12 subtable" bnNNA bnRAc2
EndChar

StartChar: bnT_RA
Encoding: 496 -1 240
GlifName: bnT__R_A_
Width: 675
VWidth: 0
GlyphClass: 3
Flags: W
HStem: 0 73<230.746 415.072> 446 73<379.535 514.074> 573 63.3281<-14.0391 687.961>
VStem: 534.961 73<0 84 160 426.533>
AnchorPoint: "anchor0" 501.96 637 basechar 0
AnchorPoint: "anchor 1" 534.96 0 basechar 0
LayerCount: 2
Fore
SplineSet
607.9609375 372 m 5
 607.9609375 0 l 5
 534.9609375 0 l 5
 535 84 l 21
 535 84 412.524414062 0 318 0 c 4
 275 0 187 0 126 89 c 4
 100.284179688 126.51953125 76 187 56 254 c 5
 98 276 l 5
 180 145 l 6
 224.928710938 73.22265625 293 73 321 73 c 4
 411.877929688 73 535 160 534.9609375 160 c 13
 534.9609375 366 l 5
 534.9609375 424 502.9609375 446 453.9609375 446 c 4
 386.633789062 446 239.9609375 347 239.9609375 347 c 13
 207.9609375 388 l 5
 280.9609375 452 373.9609375 519 453.9609375 519 c 4
 586 519 607.9609375 426 607.9609375 372 c 5
687.9609375 573 m 25
 -14.0390625 573 l 1
 -14.0390625 636.328125 l 1
 687.9609375 636.328125 l 1
 687.9609375 573 l 25
EndSplineSet
Validated: 33
LCarets2: 1 0
Ligature2: "'pres' Pre Base Substitutions in Bengali2 lookup 12 subtable" bnTA bnRAc2
EndChar

StartChar: bnTH_RA
Encoding: 497 -1 241
GlifName: bnT_H__R_A_
Width: 672
VWidth: 0
GlyphClass: 3
Flags: W
HStem: -159 73<231.746 415.169> 529 76<109.322 354.882> 572.998 63.3301<609.322 683.322>
VStem: 369.322 72<414.361 516.216> 536.322 73<-159 -75 1 20 102 572.998> 536.322 46<683.489 711>
AnchorPoint: "anchor 1" 536 -150.9 basechar 0
AnchorPoint: "anchor0" 536.304 636.3 basechar 0
LayerCount: 2
Fore
SplineSet
536.322265625 1 m 9xb8
 536.322265625 20 l 1
 131.322265625 231 l 1
 131.322265625 318 l 1
 131.322265625 318 369.322265625 375.091796875 369.322265625 454 c 0
 369.322265625 514 359.322265625 529 258.322265625 529 c 4
 200.322265625 529 109.322265625 529 109.322265625 529 c 5
 101.322265625 586 l 1
 101.322265625 586 185.322265625 605 259.322265625 605 c 0
 418.427734375 605 441.322265625 550 441.322265625 441 c 0
 441.322265625 333.357421875 212.322265625 269 212.322265625 269 c 9
 536.322265625 102 l 1xd8
 536.322265625 711 l 1
 582.322265625 711 l 1xd4
 601.322265625 636.328125 l 9
 683.322265625 636.328125 l 1
 683.322265625 572.998046875 l 1
 609.322265625 572.998046875 l 1
 609.322265625 -159 l 17
 536 -159 l 1
 536 -75 l 1
 536 -75 419.524414062 -159 319 -159 c 0
 276 -159 188 -159 127 -70 c 0
 101.284179688 -32.48046875 77 28 57 95 c 1
 99 117 l 1
 181 -14 l 2
 225.928710938 -85.77734375 294 -86 322 -86 c 0
 412.877929688 -86 536.322265625 1 536.322265625 1 c 9xb8
EndSplineSet
Validated: 524289
LCarets2: 1 0
Ligature2: "'pres' Pre Base Substitutions in Bengali2 lookup 12 subtable" bnTHA bnRAc2
EndChar

StartChar: bnD_RA
Encoding: 498 -1 242
GlifName: bnD__R_A_
Width: 680
GlyphClass: 3
Flags: W
HStem: -56 72<237.814 398.25> 572.998 63.3301<-10 176 249.9 691>
VStem: 176 73.9004<310 572.998> 506 72<-56 28 104 194.963>
AnchorPoint: "anchor 1" 505.9 -54 basechar 0
AnchorPoint: "anchor0" 463 636 basechar 0
LayerCount: 2
Fore
SplineSet
176 264.3984375 m 9
 176 573 l 1
 -10 572.998046875 l 1
 -10 636.328125 l 1
 691 636.328125 l 1
 691 572.998046875 l 1
 249.900390625 572.998046875 l 1
 249.900390625 310 l 1
 568.900390625 460 l 1
 615.099609375 427 l 1
 578 141 l 1
 578 -56 l 17
 506 -56 l 1
 506 28 l 1
 506 28 409.524414062 -56 309 -56 c 0
 266 -56 198 -56 137 33 c 0
 111.284179688 70.51953125 87 131 67 198 c 1
 109 220 l 1
 191 89 l 2
 235.928710938 17.22265625 284 16 312 16 c 0
 402.877929688 16 506 104 506 104 c 9
 506 162 l 1
 532.099609375 357 l 1
 220.919921875 208 l 1
 176 264.3984375 l 9
EndSplineSet
Validated: 524289
LCarets2: 1 0
Ligature2: "'pres' Pre Base Substitutions in Bengali2 lookup 12 subtable" bnDA bnRAc2
EndChar

StartChar: bnDH_RA
Encoding: 499 -1 243
GlifName: bnD_H__R_A_
Width: 635
VWidth: 0
GlyphClass: 3
Flags: W
HStem: -143 73<208.746 392.129> 572.998 63.3301<586 653> 605 56<223.538 343.985>
VStem: 144.293 65.707<511.938 593.961> 513 73<-143 -59 17 30 115 456 530 572.998>
AnchorPoint: "anchor 1" 513.6 -140 basechar 0
AnchorPoint: "anchor0" 513 636.7 basechar 0
LayerCount: 2
Fore
SplineSet
513 115 m 25x98
 513 456 l 1
 206 315 l 1
 513 115 l 25x98
513 17 m 9
 513 30 l 17
 135 281 l 1
 135 360 l 1
 271 419.513671875 l 1
 271 419.513671875 144.29296875 463.217773438 144.29296875 540.15625 c 0
 144.29296875 587.002929688 185 661 236 661 c 0
 291 661 352 637 352 637 c 1
 342 595 l 1
 342 595 289.84765625 605 259 605 c 0xb8
 230 605 210 572.21875 210 542 c 0
 210 500.723632812 345 455 345 455 c 1
 513 530 l 1
 513 636 l 1
 509 702 l 1
 553 702 l 1
 576 636.328125 l 9
 653 636.328125 l 1
 653 572.998046875 l 1
 586 572.998046875 l 25xd8
 586 -143 l 17
 513 -143 l 1
 513 -59 l 1
 513 -59 396.524414062 -143 296 -143 c 0
 253 -143 165 -143 104 -54 c 0
 78.2841796875 -16.48046875 54 44 34 111 c 1
 76 133 l 1
 158 2 l 2
 202.928710938 -69.77734375 271 -70 299 -70 c 0
 389.877929688 -70 513 17 513 17 c 9
EndSplineSet
Validated: 524289
LCarets2: 1 0
Ligature2: "'pres' Pre Base Substitutions in Bengali2 lookup 12 subtable" bnDHA bnRAc2
EndChar

StartChar: bnN_RA
Encoding: 500 -1 244
GlifName: bnN__R_A_
Width: 650
VWidth: 0
GlyphClass: 3
Flags: W
HStem: -68 72<220.379 399.504> 416.226 73.1729<219.625 375.717>
VStem: 124.355 73.4795<285.922 395.221>
AnchorPoint: "anchor 1" 524.1 -64.6 basechar 0
AnchorPoint: "anchor0" 482.9 636.7 basechar 0
LayerCount: 2
Fore
SplineSet
596 -68 m 9
 596 572.998046875 l 1
 665 572.998046875 l 1
 665 636.328125 l 1
 -9 636.328125 l 1
 -9 572.998046875 l 1
 523 572.998046875 l 1
 523 413 l 17
 523 413 358.952148438 489.3984375 281.963867188 489.3984375 c 0
 233.908203125 489.3984375 201.502929688 480.177734375 168 450 c 0
 139.359375 424.202148438 124.35546875 386.131835938 124.35546875 346.431640625 c 0
 124.35546875 305.028320312 139.16015625 261.9921875 170 230 c 0
 190.732421875 208.493164062 261 157 261 157 c 1
 296 202 l 1
 296 202 233.552734375 259.498046875 206.087890625 305 c 0
 200.279296875 314.623046875 197.834960938 326.055664062 197.834960938 337.705078125 c 0
 197.834960938 376.1875 223.532226562 416.225585938 267.795898438 416.225585938 c 0
 338.875 416.225585938 523 345 523 345 c 1
 523 92 l 1
 523 92 397 4 309.3828125 4 c 0
 281.3828125 4 213.311523438 5.22265625 168.3828125 77 c 2
 86.3828125 208 l 1
 44.3828125 186 l 1
 64.3828125 119 88.6669921875 58.51953125 114.3828125 21 c 0
 175.3828125 -68 263.3828125 -68 306.3828125 -68 c 0
 406.907226562 -68 523.3828125 16 523.3828125 16 c 1
 523.3828125 -68 l 1
 596 -68 l 9
EndSplineSet
Validated: 9
LCarets2: 1 0
Ligature2: "'pres' Pre Base Substitutions in Bengali2 lookup 12 subtable" bnNA bnRAc2
EndChar

StartChar: bnP_RA
Encoding: 501 -1 245
GlifName: bnP__R_A_
Width: 660
VWidth: 0
GlyphClass: 3
Flags: W
HStem: 1 73<200.133 390.462> 548 73<277.996 397.81> 572.994 63.3301<617.454 670.598>
VStem: 544.004 73.4502<0.00390625 85 164 400 488 572.994>
AnchorPoint: "anchor 1" 544.4 5 basechar 0
AnchorPoint: "anchor0" 544 636.2 basechar 0
LayerCount: 2
Fore
SplineSet
471 464 m 1xd0
 471 464 441.064453125 493.083984375 420 510 c 0
 390.525390625 533.669921875 366 548 338 548 c 0
 310 548 286.745117188 531.4296875 273 523 c 0
 248.557617188 508.010742188 185.029296875 454.765625 185.029296875 454.765625 c 1
 305 312 l 1
 471 464 l 1xd0
617.454101562 0 m 17
 543.98828125 0.00390625 l 1
 543.98828125 85 l 1
 543.98828125 85 387.911132812 1 287.38671875 1 c 0
 244.38671875 1 156.38671875 1 95.38671875 90 c 0
 69.6708984375 127.51953125 45.38671875 188 25.38671875 255 c 1
 67.38671875 277 l 1
 149.38671875 146 l 2
 194.315429688 74.22265625 262.38671875 74 290.38671875 74 c 0
 381.264648438 74 544.00390625 164 544.00390625 164 c 1
 544.00390625 400 l 1
 522 420 l 1
 319 233 l 1
 274 240 l 1
 129.029296875 416.765625 l 1
 85 387 l 1
 49 434 l 1
 49 434 160 536 239 586 c 0
 269.290039062 605.170898438 306 621 335 621 c 0xd0
 375 621 400.391601562 605.65234375 423 590 c 0
 475 554 544 488 544 488 c 1
 544 636.19921875 l 1
 536.59765625 702 l 1
 578.454101562 701.99609375 l 1
 604.454101562 636.32421875 l 9
 670.59765625 636.328125 l 1
 670.59765625 572.998046875 l 1
 617.454101562 572.994140625 l 25xb0
 617.454101562 0 l 17
EndSplineSet
Validated: 524289
LCarets2: 1 0
Ligature2: "'pres' Pre Base Substitutions in Bengali2 lookup 12 subtable" bnPA bnRAc2
EndChar

StartChar: bnPH_RA
Encoding: 502 -1 246
GlifName: bnP_H__R_A_
Width: 900
VWidth: 0
GlyphClass: 3
Flags: W
HStem: -153 72<229.997 409.888> 429 64<606 768.766> 572.998 63.332<-14 144 179 915>
VStem: 343 81<358.229 414.741> 533 73<-153 -69 7 20 105 429> 781 76<316.533 414.911>
AnchorPoint: "anchor 1" 533 -149 basechar 0
AnchorPoint: "anchor0" 735 636 basechar 0
LayerCount: 2
Fore
SplineSet
606 -153 m 1
 533 -153 l 1
 533 -69 l 1
 533 -69 416.524414062 -153 316 -153 c 0
 273 -153 185 -153 124 -64 c 0
 98.2841796875 -26.48046875 74 34 54 101 c 1
 96 123 l 1
 178 -8 l 2
 222.928710938 -79.77734375 291 -81 319 -81 c 0
 409.877929688 -81 533 7 533 7 c 1
 533 20 l 1
 165 197 l 1
 165 272 l 1
 165 272 343 346 343 389 c 0
 343 421.25 128 538 128 538 c 9
 144 572.998046875 l 1
 -14 572.998046875 l 1
 -14 636.330078125 l 1
 915 636.330078125 l 1
 915 572.998046875 l 25
 179 572.998046875 l 1
 179 572.998046875 279.984375 529.013671875 350 487 c 0
 384.999023438 465.998046875 424 440 424 395 c 0
 424 336 389 300 261 234 c 1
 533 105 l 1
 533 493 l 25
 701 493 l 18
 813 493 857 443 857 370 c 0
 857 348 848.401367188 322.803710938 836 298 c 0
 814 254 751 194 751 194 c 1
 700 228 l 1
 700 228 742 290 762 321 c 0
 774.374023438 340.1796875 781 362 781 375 c 0
 781 411 750 429 704 429 c 2
 606 429 l 25
 606 -153 l 1
EndSplineSet
Validated: 1
LCarets2: 1 0
Ligature2: "'pres' Pre Base Substitutions in Bengali2 lookup 12 subtable" bnPHA bnRAc2
EndChar

StartChar: bnB_RA
Encoding: 503 -1 247
GlifName: bnB__R_A_
Width: 646
VWidth: 0
GlyphClass: 3
Flags: W
HStem: -143 72<192.854 364.846> 572.998 63.3301<-14 511 585 659>
VStem: 511 74<-143 -64 17 30 114.789 454 532 572.998>
AnchorPoint: "anchor 1" 511.2 -140 basechar 0
AnchorPoint: "anchor0" 513 636.7 basechar 0
LayerCount: 2
Fore
SplineSet
511 114.7890625 m 1
 511 454 l 1
 208 314 l 25
 511 114.7890625 l 1
585 -143 m 1
 511 -143 l 1
 511 -64 l 1
 511 -64 364.524414062 -143 264 -143 c 0
 221 -143 153 -143 92 -54 c 0
 66.2841796875 -16.48046875 32 86 32 86 c 1
 78 110 l 1
 146 2 l 2
 191.109375 -69.64453125 239 -71 267 -71 c 0
 357.877929688 -71 511 17 511 17 c 1
 511 30 l 1
 133 273 l 1
 133 362 l 1
 511 532 l 25
 511 572.998046875 l 9
 -14 572.998046875 l 17
 -14 636.328125 l 1
 659 636.328125 l 1
 659 572.998046875 l 1
 585 572.998046875 l 17
 585 -143 l 1
EndSplineSet
Validated: 1
LCarets2: 1 0
Ligature2: "'pres' Pre Base Substitutions in Bengali2 lookup 12 subtable" bnBA bnRAc2
EndChar

StartChar: bnBH_RA
Encoding: 504 -1 248
GlifName: bnB_H__R_A_
Width: 745
VWidth: 0
GlyphClass: 3
Flags: W
HStem: 1 74<248.192 440.181> 264 75<290.993 421.718> 357 86<504.761 569.367> 452 64.0977<292.507 386> 573 63.3281<-11 753>
VStem: 213 74<346.138 450.895> 605 73<1 85 164 319.386>
AnchorPoint: "anchor 1" 603 8 basechar 0
AnchorPoint: "anchor0" 601 636.7 basechar 0
LayerCount: 2
Fore
SplineSet
753 573 m 1
 -11 573 l 1
 -11 636.328125 l 1
 753 636.328125 l 1
 753 573 l 1
678 1 m 17
 603 1 l 1
 603 85 l 1
 603 85 434.524414062 1 334 1 c 0
 291 1 203 1 142 90 c 0
 116.284179688 127.51953125 92 188 72 255 c 1
 114 277 l 1
 196 146 l 2
 236.157169772 81.8464726816 309 75 337 75 c 0
 427.877929688 75 605 164 605 164 c 9
 605 164 605 232.272460938 605 277 c 0
 605 295 563 357 535 357 c 0
 508.631835938 357 466.34765625 264 376 264 c 0
 271.8515625 264 213 289.602539062 213 383 c 0
 213 446 226.416850924 486.416850924 240 500 c 0
 255 515 282 516.09765625 308.72265625 516.09765625 c 0
 344 516.09765625 392 506 392 506 c 1
 386 452 l 1
 386 452 349.595703125 452 312.498046875 452 c 0
 287.498046875 452 287 402 287 376 c 0
 287 340.8125 321.337890625 339 370 339 c 0
 435.115234375 339 483.598632812 443 537 443 c 0
 597 443 678 334 678 288 c 0
 678 218.56640625 678 1 678 1 c 17
EndSplineSet
Validated: 524289
LCarets2: 1 0
Ligature2: "'pres' Pre Base Substitutions in Bengali2 lookup 12 subtable" bnBHA bnRAc2
EndChar

StartChar: bnM_RA
Encoding: 505 -1 249
GlifName: bnM__R_A_
Width: 635
VWidth: 0
Flags: W
HStem: 30 73<217.746 396.105> 336 73<406.712 491.194> 417 73<210.917 278.58> 573 63.3281<-10 214 294 479 542 647>
VStem: 127 73<325.307 405.685> 281.834 73.166<480.143 535.16> 510 75<31 115 191 352 426.9 536.784>
AnchorPoint: "anchor 1" 510 34 basechar 0
AnchorPoint: "anchor0" 483 636.7 basechar 0
LayerCount: 2
Fore
SplineSet
343 459 m 1
 343 459 441 409 461 409 c 0
 484 409 512 458 512 480 c 0
 512 509 479 573 479 573 c 1
 294 573 l 1
 294 573 355 540 355 510 c 0
 355 486 343 459 343 459 c 1
585 478 m 9
 585 31 l 1
 510 31 l 1
 510 115 l 1
 510 115 405.524414062 30 305 30 c 0
 262 30 174 30 113 119 c 0
 87.2841796875 156.51953125 63 217 43 284 c 1
 85 306 l 1
 167 175 l 2
 211.928710938 103.22265625 280 103 308 103 c 0
 398.877929688 103 510 191 510 191 c 9
 510.045898438 352 l 1
 510.045898438 352 492.302734375 336 478 336 c 0
 440.515625 336 273.301757812 417 246 417 c 0
 232.143554688 417 200 398.895507812 200 362 c 0
 200 337.033203125 249 301 249 301 c 1
 224 262 l 1
 224 262 180.092773438 281.953125 163 295 c 0
 142.013671875 311.018554688 127 333 127 357 c 0
 127 428.165039062 189.516601562 490 232 490 c 0
 249 490 276 480 276 480 c 1
 276 480 281.833984375 493.819335938 281.833984375 503.767578125 c 0
 281.833984375 525.211914062 214 573 214 573 c 1
 -10 573 l 17
 -10 636.328125 l 1
 647 636.328125 l 1
 647 573 l 9
 542 573 l 1
 542 573 585 508.090820312 585 478 c 9
EndSplineSet
Validated: 1
LCarets2: 1 0
Ligature2: "'pres' Pre Base Substitutions in Bengali2 lookup 12 subtable" bnMA bnRAc2
EndChar

StartChar: bnY_RA
Encoding: 506 -1 250
GlifName: bnY__R_A_
Width: 675
VWidth: 0
GlyphClass: 3
Flags: W
HStem: -172 72<234.997 414.483> 573 63.3281<-8 145.002 180.002 540.002 613.002 683>
VStem: 344.002 81<358.229 414.741> 540.002 72.998<-172 -88 -10 0 85 573>
AnchorPoint: "anchor 1" 538 -168 basechar 0
AnchorPoint: "anchor0" 505 636.6 basechar 0
LayerCount: 2
Fore
SplineSet
540.001953125 573 m 25
 180.001953125 572.998046875 l 1
 180.001953125 572.998046875 280.986328125 529.013671875 351.001953125 487 c 0
 386.000976562 465.998046875 425.001953125 440 425.001953125 395 c 0
 425.001953125 336 388.001953125 300 260.001953125 234 c 1
 540.001953125 85 l 1
 540.001953125 573 l 25
540 -10 m 9
 540.001953125 0 l 1
 166.001953125 197 l 1
 166.001953125 272 l 1
 166.001953125 272 344.001953125 346 344.001953125 389 c 0
 344.001953125 421.25 129.001953125 538 129.001953125 538 c 9
 145.001953125 572.998046875 l 9
 -8 573 l 1
 -8 636.328125 l 1
 683 636.328125 l 1
 683 573 l 9
 613.001953125 573 l 25
 613 -172 l 1
 538 -172 l 1
 538 -88 l 1
 538 -88 421.524414062 -172 321 -172 c 0
 278 -172 190 -172 129 -83 c 0
 103.284179688 -45.48046875 79 15 59 82 c 1
 101 104 l 1
 183 -27 l 2
 227.928710938 -98.77734375 296 -100 324 -100 c 0
 412 -100 540 -10 540 -10 c 9
EndSplineSet
Validated: 1
LCarets2: 1 0
Ligature2: "'pres' Pre Base Substitutions in Bengali2 lookup 12 subtable" bnYA bnRAc2
EndChar

StartChar: bnR_RA
Encoding: 507 -1 251
GlifName: bnR__R_A_
Width: 665
VWidth: 0
GlyphClass: 3
Flags: W
HStem: -143 72<202.854 374.846> -0.433594 97.9033<245.673 341> 572.998 63.3301<-4 521 595 672>
VStem: 245.673 95.3271<-0.433594 97.4697> 521 74<-143 -64 17 30 114.789 454 532 572.998>
AnchorPoint: "anchor 1" 520.9 -139.6 basechar 0
AnchorPoint: "anchor0" 479 636.7 basechar 0
LayerCount: 2
Fore
SplineSet
521 114.7890625 m 1
 521 454 l 1
 218 314 l 25
 521 114.7890625 l 1
595 -143 m 1
 521 -143 l 1
 521 -64 l 1
 521 -64 374.524414062 -143 274 -143 c 0
 231 -143 163 -143 102 -54 c 0
 76.2841796875 -16.48046875 42 86 42 86 c 1
 88 110 l 1
 156 2 l 2
 201.109375 -69.64453125 249 -71 277 -71 c 0
 367.877929688 -71 521 17 521 17 c 1
 521 30 l 1
 143 273 l 1
 143 362 l 1
 521 532 l 25
 521 572.998046875 l 9
 -4 572.998046875 l 17
 -4 636.328125 l 1
 672 636.328125 l 1
 672 572.998046875 l 1
 595 572.998046875 l 17
 595 -143 l 1
245.672851562 19.318359375 m 2
 245.672851562 76 l 2
 245.672851562 88.8818359375 252.543945312 97.4697265625 266.284179688 97.4697265625 c 2
 319.530273438 97.4697265625 l 2
 334.989257812 97.4697265625 341 89.740234375 341 76 c 2
 341 19.318359375 l 2
 341 3.8603515625 331.552734375 -0.43359375 319.530273438 -0.43359375 c 2
 266.284179688 -0.43359375 l 2
 254.26171875 -0.43359375 245.672851562 7.294921875 245.672851562 19.318359375 c 2
EndSplineSet
Validated: 1
LCarets2: 1 0
Ligature2: "'pres' Pre Base Substitutions in Bengali2 lookup 12 subtable" bnRA bnRAc2
EndChar

StartChar: bnL_RA
Encoding: 508 -1 252
GlifName: bnL__R_A_
Width: 815
VWidth: 0
GlyphClass: 3
Flags: W
HStem: -98 78<225.961 443.64> 409 77<237.335 397.172 529.05 665.555>
VStem: 141 75<226.947 388.941> 431 56<234 282> 682 73<316 393.591>
AnchorPoint: "anchor 1" 682 -94 basechar 0
AnchorPoint: "anchor0" 625 636.7 basechar 0
LayerCount: 2
Fore
SplineSet
682 68 m 1
 681.6171875 68 408.877929688 -20 318 -20 c 0
 290 -20 219.8984375 -16.7822265625 179 47 c 2
 95 178 l 1
 53 156 l 1
 73 89 97.2841796875 28.51953125 123 -9 c 0
 184 -98 272 -98 315 -98 c 0
 415.524414062 -98 682 -14 682 -14 c 1
 682 -98 l 1
 755 -98 l 9
 755 573 l 1
 826 573 l 1
 826 636.328125 l 1
 -10 636.328125 l 1
 -10 573 l 1
 682 573 l 1
 682 453 l 17
 682 453 666.284179688 481 609 481 c 0
 541 481 493 472 465 413 c 1
 445.249023438 480.481445312 363.517578125 486 283 486 c 0
 222 486 141 464 141 350 c 0
 141 229.530273438 208 128 208 128 c 1
 254 145 l 1
 254 145 216 281.916015625 216 330 c 0
 216 376 244.37109375 409 286 409 c 0
 393.225585938 409 423.635742188 397.26171875 428 282 c 1
 431 234 l 1
 487 234 l 1
 498 316 l 2
 508.640288851 395.318516886 545.796875 409 614 409 c 0
 676 409 682 359 682 316 c 0
 682 68 l 1
EndSplineSet
Validated: 9
LCarets2: 1 0
Ligature2: "'pres' Pre Base Substitutions in Bengali2 lookup 12 subtable" bnLA bnRAc2
EndChar

StartChar: bnSH_RA
Encoding: 509 -1 253
GlifName: bnS_H__R_A_
Width: 665
VWidth: 0
GlyphClass: 3
Flags: W
HStem: 1 73<195.494 384.931> 562 72<375.276 514.681> 573 63.3281<611 676>
VStem: 279 77<392.863 543.151> 538 73<0 85 164 539.637 636.328 661.773> 560 51<691.227 717>
AnchorPoint: "anchor 1" 538 4 basechar 0
AnchorPoint: "anchor0" 538 636 basechar 0
LayerCount: 2
Fore
SplineSet
538 164 m 1xb8
 538 510 l 1
 538 540 478 562 433 562 c 0xd8
 378.770507812 562 356 531 356 478 c 0
 356 417.71484375 360.6953125 400.182617188 396 379 c 0
 431 358 486 336 486 336 c 1
 468 282 l 1
 468 282 428 288 391 303 c 0
 350.330078125 319.487304688 323 340 323 340 c 1
 323 340 303.553710938 321.16796875 257 303 c 0
 216 287 158 279 158 279 c 1
 143 334 l 1
 143 334 187.999023438 350.000976562 230 370 c 0
 274.701171875 391.28515625 279 413.141601562 279 483 c 0
 279 533 263.918945312 555.954101562 227 560 c 0
 189.108398438 564.15234375 -10 573 -10 573 c 1
 -10 636.328125 l 1
 -10 636.328125 189 636.328125 241 636.328125 c 0xb8
 281 636.328125 307 629 331 599 c 1
 358 630 380 634 416 634 c 0
 460 634 504 624 538 608 c 1
 538 636 l 1xd8
 560 717 l 1
 611 717 l 1xd4
 611 636.328125 l 25xb8
 676 636.328125 l 17
 676 573 l 1
 611 573 l 25xb4
 611 0 l 1
 538 0 l 1
 538 85 l 1
 538 85 394.524414062 1 283 1 c 0
 240 1 152 1 91 90 c 0
 65.2841796875 127.51953125 41 188 21 255 c 1
 63 277 l 1
 145 146 l 2
 189.928710938 74.22265625 256 74 284 74 c 0
 376 74 538 164 538 164 c 1xb8
EndSplineSet
Validated: 1
LCarets2: 1 0
Ligature2: "'pres' Pre Base Substitutions in Bengali2 lookup 12 subtable" bnSHA bnRAc2
EndChar

StartChar: bnSS_RA
Encoding: 510 -1 254
GlifName: bnS_S__R_A_
Width: 675
VWidth: 0
GlyphClass: 3
Flags: W
HStem: -181 73<235.746 419.423> 353 76<436.456 542.002> 573 63.3281<-8 147.002 182.002 542.002 615.002 689>
VStem: 542.002 73<-181 -97 -21 0 85 353 429 573>
AnchorPoint: "anchor 1" 540 -171.7 basechar 0
AnchorPoint: "anchor0" 480 636.5 basechar 0
LayerCount: 2
Fore
SplineSet
542.001953125 -21 m 9
 542.001953125 0 l 1
 168.001953125 197 l 1
 168.001953125 272 l 1
 168.001953125 272 346.001953125 346 346.001953125 389 c 0
 346.001953125 421.25 131.001953125 538 131.001953125 538 c 9
 147.001953125 572.998046875 l 9
 -8 573 l 1
 -8 636.328125 l 1
 689 636.328125 l 1
 689 573 l 9
 615.001953125 573 l 25
 615.001953125 -181 l 1
 540 -181 l 1
 540 -97 l 1
 540 -97 423.524414062 -181 323 -181 c 0
 280 -181 192 -181 131 -92 c 0
 105.284179688 -54.48046875 81 6 61 73 c 1
 103 95 l 1
 185 -36 l 2
 229.928710938 -107.77734375 298 -108 326 -108 c 0
 416.877929688 -108 542.384765625 -21 542.001953125 -21 c 9
353.001953125 487 m 0
 378.928710938 473.6640625 469 429 542.001953125 429 c 1
 542.001953125 573 l 9
 182.001953125 572.998046875 l 1
 182.001953125 572.998046875 282.986328125 523.013671875 353.001953125 487 c 0
425 373.85546875 m 1
 425 373.85546875 426 311 258.001953125 233 c 1
 542.001953125 85 l 1
 542.001953125 353 l 1
 490 353 425 373.85546875 425 373.85546875 c 1
EndSplineSet
Validated: 37
LCarets2: 1 0
Ligature2: "'blws' Below Base Substitutions lookup 19 subtable" bnSSA bnRAc2
EndChar

StartChar: bnS_RA
Encoding: 511 -1 255
GlifName: bnS__R_A_
Width: 710
VWidth: 0
GlyphClass: 3
Flags: W
HStem: 0 73<247.727 430.227> 322 75<109.781 209.607 472.258 549.285> 573 63.3281<-10 288 365 554 617 718>
VStem: 550 73<0 83 159 322> 578 75<420.694 542.398>
AnchorPoint: "anchor 1" 550 4 basechar 0
AnchorPoint: "anchor0" 539 636.7 basechar 0
LayerCount: 2
Fore
SplineSet
325 482 m 1xe8
 325 482 500.126953125 400 526 400 c 0
 544 400 578 440 578 463 c 0
 578 503.01 554 573 554 573 c 1
 365 573 l 1
 325 482 l 1xe8
550 159 m 9xf0
 550 322 l 1xf0
 484 322 296 423 296 423 c 1
 296 423 248 322 194 322 c 0
 132 322 49 375 49 375 c 1
 68 423 l 1
 68 423 137 397 182 397 c 0
 220 397 288 573 288 573 c 1
 -10 573 l 17
 -10 636.328125 l 1
 718 636.328125 l 1
 718 573 l 9
 617 573 l 1
 617 573 653 505.01 653 461 c 0xe8
 653 434.87157195 623 381 623 381 c 9
 623 0 l 1
 550 0 l 1
 550 83 l 1
 550 83 435.524414062 0 335 0 c 0
 292 0 204.000301053 0.00020634021196 143 89 c 0
 117.284179688 126.51953125 108 148 88 215 c 1
 137 241 l 1
 197 145 l 2
 241.842896501 73.2513655983 310 73 338 73 c 0
 427 73 550 159 550 159 c 9xf0
EndSplineSet
Validated: 1
LCarets2: 1 0
Ligature2: "'pres' Pre Base Substitutions in Bengali2 lookup 12 subtable" bnSA bnRAc2
EndChar

StartChar: bnH_RA
Encoding: 512 -1 256
GlifName: bnH__R_A_
Width: 690
VWidth: 0
GlyphClass: 3
Flags: W
HStem: -168 73<204.746 388.122> 443 74<242 539.018> 573 63.3281<-14 706>
VStem: 560 73.0029<306.846 421.795>
AnchorPoint: "anchor 1" 509 -166.1 basechar 0
AnchorPoint: "anchor0" 524 636.7 basechar 0
LayerCount: 2
Fore
SplineSet
508.6171875 6 m 9
 508.6171875 -8 l 1
 509 -8 385.877929688 -95 295 -95 c 0
 267 -95 198.928710938 -94.77734375 154 -23 c 2
 72 108 l 1
 30 86 l 1
 50 19 74.2841796875 -41.48046875 100 -79 c 0
 161 -168 249 -168 292 -168 c 0
 392.524414062 -168 509 -84 509 -84 c 1
 509 -168 l 1
 576 -168 l 1
 576 -16 l 0
 605 -25 l 1
 630 22 l 17
 630 22 422 121 330.900390625 166 c 1
 330.900390625 166 633.002929688 198.766601562 633.002929688 317.440429688 c 0
 633.002929688 425.787485982 625.510724504 517 453 517 c 0
 358 517 234 496 234 496 c 1
 242 443 l 1
 242 443 389 443 452 443 c 0
 521.344450936 443 560 439.329101562 560 342 c 0
 560 251.126953125 219.900390625 220 219.900390625 220 c 1
 211.900390625 142 l 1
 300.043945312 86.201171875 508.6171875 6 508.6171875 6 c 9
706 636.328125 m 17
 706 573 l 25
 -14 573 l 1
 -14 636.328125 l 1
 706 636.328125 l 17
EndSplineSet
Validated: 41
LCarets2: 1 0
Ligature2: "'pres' Pre Base Substitutions in Bengali2 lookup 12 subtable" bnHA bnRAc2
EndChar

StartChar: bnDDx_RA
Encoding: 513 -1 257
GlifName: bnD_D_x_R_A_
Width: 750
VWidth: 0
GlyphClass: 3
Flags: W
HStem: -200 72<309.997 489.882> -88 98<338 433> 39.6436 76.3564<362.302 486.052> 396 72<407.612 615.708>
VStem: 338 95<-88 10> 625.547 71.4551<264.644 384.27>
AnchorPoint: "anchor 1" 613 -197 basechar 0
AnchorPoint: "anchor0" 545 636.3 basechar 0
LayerCount: 2
Fore
SplineSet
613 152 m 1
 612.6171875 -40 l 1
 613 -40 489.877929688 -128 399 -128 c 0
 371 -128 302.928710938 -126.77734375 258 -55 c 2
 176 76 l 1
 134 54 l 1
 154 -13 178.284179688 -73.48046875 204 -111 c 0
 265 -200 353 -200 396 -200 c 0
 496.524414062 -200 613 -116 613 -116 c 1
 613 -200 l 1
 682 -200 l 1
 682 266 l 1
 682 266 697.001953125 297.461914062 697.001953125 350.791992188 c 0
 697.001953125 410.59765625 651.1015625 468 558.103515625 468 c 0
 490.103515625 468 406.103515625 452 406.103515625 452 c 1
 406.103515625 572.98046875 l 25
 760 572.98046875 l 25
 760 636.33203125 l 9
 -10 636.33203125 l 1
 -10 572.98046875 l 1
 333.103515625 572.98046875 l 25
 333.103515625 380 l 17
 333.103515625 380 498.103515625 396 552.103515625 396 c 0
 605.830078125 396 625.546875 375.608398438 625.546875 340 c 0
 625.546875 279 584.103515625 220 510.103515625 155 c 0
 487.715820312 135.334960938 454.956054688 116 423.103515625 116 c 0
 369.482421875 116 330.885742188 160.875 293.103515625 207 c 0
 231.424804688 282.297851562 129.103515625 456 129.103515625 456 c 1
 82.103515625 438 l 1
 82.103515625 438 130.103515625 276 253.103515625 137 c 0
 316.7265625 65.1005859375 376.690429688 39.6435546875 420.052734375 39.6435546875 c 0
 470.073242188 39.6435546875 514.026301698 60.0489062892 545 86 c 0
 570.986328125 107.772460938 613 152 613 152 c 1
338 -68 m 2
 338 -11 l 2
 338 2 345 10 358 10 c 2
 412 10 l 2
 427 10 433 2 433 -11 c 2
 433 -68 l 2
 433 -83 424 -88 412 -88 c 2
 358 -88 l 2
 346 -88 338 -80 338 -68 c 2
EndSplineSet
Validated: 41
LCarets2: 1 0
Substitution2: "Single Substitution lookup 21 subtable" bnDDx1_RA
Ligature2: "'pres' Pre Base Substitutions in Bengali2 lookup 12 subtable" bnDDxA bnRAc2
EndChar

StartChar: bnDDx1_RA
Encoding: 514 -1 258
GlifName: bnD_D_x1_R_A_
Width: 630
VWidth: 0
GlyphClass: 3
Flags: W
HStem: -130 98<188 283> 0 72<197.997 369.079> 154 72<264.448 387.025> 410 68<345.633 483.773> 573 63.3281<-14 272 345 645>
VStem: 188 95<-130 -32> 272 73<466 573> 481 69<0 84 160 232 310.718 338> 487 71<328.946 406.124>
AnchorPoint: "anchor 1" 481 5 basechar 0
AnchorPoint: "anchor0" 411 636.3 basechar 0
LayerCount: 2
Fore
SplineSet
481 232 m 1xf9
 481 232 406.337890625 154 334 154 c 0
 291 154 226.33984375 175.260742188 168 251 c 0
 111 325 74 403 74 403 c 1
 120 423 l 1
 120 423 156.658203125 372.731445312 221 291 c 0
 258 244 290 226 324 226 c 0
 387.583007812 226 487 317 487 372 c 0
 487 394 482 410 440 410 c 0
 387 410 272 397 272 397 c 1
 272 573 l 25
 -14 573 l 1
 -14 636.328125 l 1
 645 636.328125 l 1
 645 573 l 25
 345 573 l 1
 345 466 l 1
 345 466 393.010742188 478 453 478 c 0
 539 478 558 426 558 382 c 0xfa80
 558 359.161132812 550 338 550 338 c 1
 550 0 l 1
 481 0 l 1
 481 84 l 1
 481 84 376.524414062 0 284 0 c 0
 241 0 153 0 92 89 c 0
 66.2841796875 126.51953125 42 187 22 254 c 1
 64 276 l 1
 146 145 l 2
 190.928710938 73.22265625 259 72 287 72 c 0
 366.877929688 72 481.3828125 160 481 160 c 9
 481 232 l 1xf9
188 -110 m 2xfc
 188 -53 l 2
 188 -40 195 -32 208 -32 c 2
 262 -32 l 2
 277 -32 283 -40 283 -53 c 2
 283 -110 l 2
 283 -125 274 -130 262 -130 c 2
 208 -130 l 2
 196 -130 188 -122 188 -110 c 2xfc
EndSplineSet
Validated: 37
EndChar

StartChar: bnDDHx_RA
Encoding: 515 -1 259
GlifName: bnD_D_H_x_R_A_
Width: 725
VWidth: 0
GlyphClass: 3
Flags: W
HStem: -198 72<227.997 407.888> -92 98<268 363> 35 74<280.492 402.228> 372 66<413 561.325>
VStem: 194 73<121.608 204> 268 95<-92 6> 569 71<262.256 363.705>
AnchorPoint: "anchor 1" 531 -193 basechar 0
AnchorPoint: "anchor0" 501 635.528 basechar 0
LayerCount: 2
Fore
SplineSet
194 573.0078125 m 1
 194 194 l 2
 194 72 257 35 322 35 c 0
 422.029296875 35 531 130 531 130 c 1
 531 -38 l 1
 531 -38 407.877929688 -126 317 -126 c 0
 289 -126 220.928710938 -124.77734375 176 -53 c 2
 94 78 l 1
 52 56 l 1
 72 -11 96.2841796875 -71.48046875 122 -109 c 0
 183 -198 271 -198 314 -198 c 0
 414.524414062 -198 531 -114 531 -114 c 1
 531 -198 l 1
 600 -198 l 1
 600 212 l 1
 600 212 640 283.0703125 640 331 c 0
 640 390.7421875 602.241210938 438 530 438 c 0
 496 438 407 432 407 432 c 1
 413 372 l 1
 413 372 474 372 511 372 c 0
 540.411132812 372 569 362 569 326 c 0
 569 307 561 282 539 248 c 0
 484 163 381 109 326 109 c 0
 277 109 267 144 267 204 c 1
 267 245 267 573.0078125 267 573.0078125 c 9
 742 573.0078125 l 1
 742 636.326171875 l 9
 -13 636.326171875 l 1
 -13 573.0078125 l 1
 194 573.0078125 l 1
268 -72 m 2
 268 -15 l 2
 268 -2 275 6 288 6 c 2
 342 6 l 2
 357 6 363 -2 363 -15 c 2
 363 -72 l 2
 363 -87 354 -92 342 -92 c 2
 288 -92 l 2
 276 -92 268 -84 268 -72 c 2
EndSplineSet
Validated: 9
Substitution2: "Single Substitution lookup 21 subtable" bnDDHx1_RA
LCarets2: 1 0
Ligature2: "'pres' Pre Base Substitutions in Bengali2 lookup 12 subtable" bnDDHxA bnRAc2
EndChar

StartChar: bnYx_RA
Encoding: 516 -1 260
GlifName: bnY_x_R_A_
Width: 665
VWidth: 0
GlyphClass: 3
Flags: W
HStem: -177 72<234.997 414.145> -39 97<259 354> 573 63.3281<-14 145.002 180.002 540.002 613.002 683>
VStem: 259 95<-39 58> 344.002 81<358.229 414.741> 540.002 72.998<-177 -95 -15 0 85 573>
AnchorPoint: "anchor 1" 538.3 -173.9 basechar 0
AnchorPoint: "anchor0" 483 636.3 basechar 0
LayerCount: 2
Fore
SplineSet
540.001953125 573 m 25xec
 180.001953125 572.998046875 l 1
 180.001953125 572.998046875 280.986328125 529.013671875 351.001953125 487 c 0
 386.000976562 465.998046875 425.001953125 440 425.001953125 395 c 0
 425.001953125 336 388.001953125 300 260.001953125 234 c 1
 540.001953125 85 l 1
 540.001953125 573 l 25xec
540 -15 m 9
 540.001953125 0 l 1
 166.001953125 197 l 1
 166.001953125 272 l 1
 166.001953125 272 344.001953125 346 344.001953125 389 c 0
 344.001953125 421.25 129.001953125 538 129.001953125 538 c 9
 145.001953125 572.998046875 l 9
 -14 573 l 1
 -14 636.328125 l 1
 683 636.328125 l 1
 683 573 l 9
 613.001953125 573 l 25
 613 -177 l 1
 538 -177 l 1
 538 -95 l 1
 538 -95 418 -177 321 -177 c 0
 278 -177 190 -177 129 -88 c 0
 103.284179688 -50.48046875 79 10 59 77 c 1
 101 99 l 1
 183 -32 l 2
 227.928710938 -103.77734375 296 -105 324 -105 c 0
 414 -105 540 -15 540 -15 c 9
259 -20 m 2xf4
 259 37 l 2
 259 50 266 58 279 58 c 2
 333 58 l 2
 348 58 354 51 354 37 c 2
 354 -20 l 2
 354 -35 345 -39 333 -39 c 2
 279 -39 l 2
 267 -39 259 -32 259 -20 c 2xf4
EndSplineSet
Validated: 1
LCarets2: 1 0
Ligature2: "'pres' Pre Base Substitutions in Bengali2 lookup 12 subtable" bnYxA bnRAc2
EndChar

StartChar: bnK_SS_RA
Encoding: 517 -1 261
GlifName: bnK__S_S__R_A_
Width: 950
VWidth: 0
GlyphClass: 3
Flags: W
HStem: -118 73<217.553 412.407> 377 69<488.134 584 657 820.279> 573 63.3281<-14 219 284 429 487 584 657 970>
VStem: 244 71<496.381 563.706> 584 73<-118 -34 43 158 221 377 446 573>
AnchorPoint: "anchor 1" 582 -114 basechar 0
AnchorPoint: "anchor0" 738 637 basechar 0
LayerCount: 2
Fore
SplineSet
584 446 m 1
 584 573 l 1
 487 573 l 1
 487 573 487 516 487 474 c 0
 487 451.977539062 502 446 515 446 c 1
 584 446 l 1
584 377 m 1
 525 377 458.231445312 377.69140625 432 423 c 0
 410 461 429 573 429 573 c 1
 284 573 l 1
 284 573 315 546 315 518 c 4
 315 498 296 469 296 469 c 1
 296 469 388.334960938 415.162109375 407.084960938 385.0234375 c 0
 423.651367188 358.39453125 396 297 396 297 c 1
 584 221 l 1
 584 377 l 1
584 43 m 1
 584 158 l 1
 584 158 345.708007812 236.09765625 295 253 c 0
 270.97265625 261.008789062 259.904296875 259.037109375 244 232 c 0
 229.578125 207.482421875 227.983398438 190.009765625 247 173 c 0
 285.708007812 138.377929688 314 112 314 112 c 1
 283 70 l 1
 283 70 231 94 197 126 c 0
 149.215820312 170.973632812 146.118164062 209.15625 182 270 c 0
 214 324 243 329 270 329 c 0
 287 329 330 316 330 316 c 1
 330 316 347 350 336.5859375 367.35546875 c 0
 328.521484375 380.794921875 207 434.999023438 166 450 c 0
 149.534179688 456.024414062 135.607421875 456.69921875 125 437 c 0
 115.833007812 419.975585938 118.165039062 405.747070312 132 393 c 0
 158.168945312 368.889648438 170 356 170 356 c 1
 147 317 l 1
 147 317 118 331 82 359 c 0
 50.720703125 383.328125 41.8466796875 421.629882812 70 468 c 0
 92 507 112 526 141 526 c 0
 169.764648438 526 231 496 231 496 c 1
 231 496 244 515 244 531 c 0
 244 546 219 573 219 573 c 1
 -14 573 l 1
 -14 636.328125 l 1
 970 636.328125 l 1
 970 573 l 1
 657 573 l 1
 657 446 l 1
 783 446 l 2
 907.956054688 446 928.000976562 333 876 245 c 0
 850.973632812 202.6484375 793 143 793 143 c 1
 744 174 l 17
 810 274 l 2
 844.030273438 325.560546875 835.83203125 377 771 377 c 2
 657 377 l 1
 657 -118 l 1
 582 -118 l 1
 582 -34 l 1
 582 -34 404.5625 -118 305 -118 c 0
 261 -118 174 -118 113 -29 c 0
 87.2841796875 8.51953125 63 69 43 136 c 1
 85 158 l 1
 167 27 l 2
 211.928710938 -44.77734375 280 -45 308 -45 c 0
 397 -45 584 43 584 43 c 1
EndSplineSet
Validated: 524321
LCarets2: 1 0
Ligature2: "'pres' Pre Base Substitutions in Bengali2 lookup 12 subtable" bnK_SSA bnRAc2
EndChar

StartChar: bnJ_NY_RA
Encoding: 518 -1 262
GlifName: bnJ__N_Y__R_A_
Width: 950
VWidth: 0
GlyphClass: 3
Flags: W
HStem: -140 74<266.746 457.114> 26.6436 74.3564<332.264 468.354> 103 70<684.035 812.28> 275 60<731 808.655> 319 72<392.724 506> 438 75<718.022 810.83> 573 63.3281<-15 350.055 420.055 962>
VStem: 599.443 73.5586<230.893 313.164> 610.617 73.3828<-139 -55 24 106.542> 814 71<174.728 269.398 340.44 434.936>
AnchorPoint: "anchor 1" 610.7 -136 basechar 0
AnchorPoint: "anchor0" 736 635.928 basechar 0
LayerCount: 2
Fore
SplineSet
506 391 m 1xee40
 405 480 l 1
 388.9453125 377 l 1
 388.9453125 377 453 391 506 391 c 1xee40
626 173 m 9
 776 173 l 2
 805.993164062 173 814 182 814 214 c 0
 814 259.244140625 804.763671875 275 761 275 c 2
 731 275 l 17
 731 335 l 9
 761 335 l 2
 798 335 814 346 814 384 c 0
 814 420.76953125 810.543945312 438 775 438 c 0
 760 438 748.692382812 433.416992188 718 417 c 2
 632 368 l 1
 632 368 673.001953125 348 673.001953125 286.791992188 c 0xf740
 673.001953125 232.57421875 626 173 626 173 c 9
582 409 m 1
 582 409 710 513 790 513 c 0
 846.732421875 513 884 480.778320312 884 394 c 0
 884 361 882 314 841 308 c 1
 884.09375 300.642578125 885 250.932617188 885 215 c 0
 885 106 813.708007812 103 759 103 c 0
 731.84765625 103 684 106.541992188 684 106.541992188 c 9
 684 -139 l 1
 610.6015625 -139 l 1
 610.6015625 -55 l 1
 610.6015625 -55 454.524414062 -140 354 -140 c 0
 311 -140 223 -139 162 -50 c 0
 136.284179688 -12.48046875 112 48 92 115 c 1
 134 137 l 1
 216 6 l 2
 260.928710938 -65.77734375 329 -66 357 -66 c 0
 447.877929688 -66 611 24 610.6171875 24 c 1
 610.6171875 113 l 0xeec0
 572 118 l 1
 572 118 541.23046875 88.76953125 524 74 c 0
 489 44 443.969726562 26.6435546875 393.94921875 26.6435546875 c 0
 340.586914062 26.6435546875 276 48 212 138 c 0
 146.575195312 230.002929688 75 428 75 428 c 1
 122 446 l 1
 122 446 224.321289062 253.297851562 278 178 c 0
 312.610351562 129.450195312 353.37890625 101 394 101 c 0
 440.852539062 101 468.612304688 120.334960938 491 140 c 0
 565 205 599.443359375 250 599.443359375 284 c 0
 599.443359375 310.608398438 581.7265625 319 528 319 c 0xef40
 474 319 307 303 307 303 c 1
 350.0546875 572.98046875 l 1
 -15 573 l 1
 -15 636.328125 l 1
 962 636.328125 l 1
 962 573 l 1
 420.0546875 572.98046875 l 1
 417 555 l 1
 582 409 l 1
EndSplineSet
Validated: 37
LCarets2: 1 0
MultipleSubs2: "Multiple Substitution lookup 22 subtable" bnJA.half bnNY_RA
Ligature2: "'pres' Pre Base Substitutions in Bengali2 lookup 12 subtable" bnJ_NYA bnRAc2
EndChar

StartChar: bnYAc2
Encoding: 519 -1 263
GlifName: bnY_A_c2
Width: 215
VWidth: 0
Flags: W
HStem: 573 63.3281<-14 87 157 224>
VStem: 29.1172 76.3457<356.765 512.475> 112.256 73.4912<120.458 260.898>
LayerCount: 2
Fore
SplineSet
87 573 m 9
 -14 573 l 1
 -14 636.328125 l 1
 224 636.328125 l 1
 224 573 l 1
 157 573 l 17
 157 573 140.98828125 541.943359375 123 506 c 0
 112.923828125 485.866210938 105.462890625 461.325195312 105.462890625 439.599609375 c 0
 105.462890625 347.002929688 185.747070312 269.2421875 185.747070312 183.02734375 c 0
 185.747070312 142.577148438 164.780273438 91.7802734375 122 49 c 0
 104 31 49 -13 49 -13 c 1
 13 22 l 1
 70 92 l 2
 89.794921875 116.5078125 112.255859375 149.012695312 112.255859375 179.463867188 c 0
 112.255859375 247.069335938 29.1171875 368.387695312 29.1171875 439.998046875 c 0
 29.1171875 468.766601562 42.1650390625 496.151367188 57 524 c 0
 73.294921875 554.587890625 87 573 87 573 c 9
EndSplineSet
Validated: 1
LCarets2: 2 0 0
Ligature2: "Ligature Substitution lookup 33 subtable" uni200D bnVirama bnYA
Ligature2: "'pstf' Post Base Forms in Bengali2 lookup 9 subtable" bnVirama bnYA
Ligature2: "'pstf' Post Base Forms in Bengali lookup 8 subtable" bnYA bnVirama
EndChar

StartChar: bnK_BA
Encoding: 520 -1 264
GlifName: bnK__B_A_
Width: 695
VWidth: 0
GlyphClass: 3
Flags: W
HStem: 573 63.3281<-12 336 409 704>
VStem: 336 73<3.48633 201.486 278.096 465 542 572.994> 576.146 73.5596<321.065 416.413>
AnchorPoint: "anchor 1" 335 -79 basechar 0
AnchorPoint: "anchor0" 501 637 basechar 0
LayerCount: 2
Fore
SplineSet
280 256.6015625 m 5
 336 278.095703125 l 5
 336 467.0078125 l 1
 128 377 l 1
 280 256.6015625 l 5
203.40234375 227.701171875 m 5
 60 341.00390625 l 1
 60 429 l 1
 336 542 l 25
 336 572.994140625 l 1
 -12 573 l 1
 -12 636.328125 l 1
 704 636.328125 l 1
 704 573 l 1
 409 573 l 25
 409 538 l 1
 550 500 l 2
 603.864307698 486.169975051 649.705078125 443.88671875 649.705078125 378.375976562 c 0
 649.705078125 357.4765625 646.153090006 332.643690779 631 307 c 0
 605 263 590.837236651 249.836191939 561 215 c 1
 511 246 l 1
 511 246 554.999672024 321.999149986 555 322 c 2
 563.735185085 337.088046965 576.145507812 365.150390625 576.145507812 376.802734375 c 0
 576.145507812 409.979492188 547.26022016 428.064270885 499 441 c 2
 410 465 l 1
 409.9921875 -79.513671875 l 5
 335.294921875 -79.513671875 l 5
 86.294921875 94.486328125 l 5
 86.294921875 179.486328125 l 5
 203.40234375 227.701171875 l 5
335.9921875 201.486328125 m 29
 155.294921875 129.486328125 l 29
 335.9921875 3.486328125 l 29
 335.9921875 201.486328125 l 29
EndSplineSet
Validated: 1
LCarets2: 1 0
Ligature2: "'pres' Pre Base Substitutions lookup 13 subtable" bnKA bnBAc2
EndChar

StartChar: bnG_BA
Encoding: 522 -1 266
GlifName: bnG__B_A_
Width: 572
VWidth: 0
GlyphClass: 3
Flags: W
HStem: 549.388 72.3906<160.492 310.377> 573 63.3281<504 582>
VStem: 50.8506 81.9395<444.606 519.589> 248.035 73.0049<241.912 341.18> 431.605 72.3945<-101 104 182 502 564 573>
AnchorPoint: "anchor 1" 430.406 -186 basechar 0
AnchorPoint: "anchor0" 431.4 636.3 basechar 0
LayerCount: 2
Fore
SplineSet
430.40625 -101 m 25x38
 430.40625 104 l 25
 249.40625 29 l 25
 430.40625 -101 l 25x38
431.60546875 502 m 1
 295 531 l 0
 272.241210938 536.090820312 218 549.387695312 190.770507812 549.387695312 c 0
 168.791992188 549.387695312 132.790039062 494.487304688 132.790039062 467.06640625 c 0
 132.790039062 440.001953125 189.241044177 434.404850983 246 412 c 0
 284 397 293.462045703 385.799855316 303 361 c 0
 307.759765625 348.624023438 321.040039062 295.348632812 321.040039062 263.68359375 c 0
 321.040039062 221 155 135 155 135 c 1
 123 186 l 1
 123 186 248.03515625 268.698242188 248.03515625 290.23828125 c 0
 248.03515625 310.245117188 243.966688864 334.744849154 221 344 c 0
 159.75 368.682617188 50.8505859375 391.694335938 50.8505859375 448.177734375 c 0
 50.8505859375 503.376953125 101.35255991 583.769506013 121 600 c 0
 144 619 163.889648438 621.778320312 189.793945312 621.778320312 c 0xb8
 268.265625 621.778320312 431.6171875 564 431.6171875 564 c 1
 431.616210938 636 l 1
 424 702 l 1
 465 702 l 1
 491 636.328125 l 9
 582 636.328125 l 17
 582 573 l 1
 504 573 l 1x78
 504 -185.99609375 l 1
 430.40625 -186 l 1
 181.40625 -12 l 1
 181.40625 79 l 1
 431.60546875 182 l 1
 431.60546875 502 l 1
EndSplineSet
Validated: 1
LCarets2: 1 0
Ligature2: "'pres' Pre Base Substitutions lookup 13 subtable" bnGA bnBAc2
EndChar

